<?xml version="1.0" encoding="iso-8859-1"?>
<!-- Generator: Adobe Illustrator 21.0.0, SVG Export Plug-In . SVG Version: 6.00 Build 0)  -->
<svg xmlns="http://www.w3.org/2000/svg" xmlns:xlink="http://www.w3.org/1999/xlink" version="1.1" id="Capa_1" x="0px" y="0px" viewBox="0 0 512 512" style="enable-background:new 0 0 512 512;" xml:space="preserve" width="512" height="512">
<g>
	<path style="fill:#C46F5F;" d="M377.123,57.13h-84.156h-135.82H72.991c-15.86,0-28.764,12.904-28.764,28.764v397.342   c0,15.86,12.904,28.764,28.764,28.764h304.132c15.86,0,28.764-12.904,28.764-28.764V85.894   C405.887,70.033,392.983,57.13,377.123,57.13z"/>
	<path style="fill:#B45F4A;" d="M76.187,483.236V85.894c0-15.86,12.904-28.764,28.764-28.764h-31.96   c-15.86,0-28.764,12.904-28.764,28.764v397.342c0,15.86,12.904,28.764,28.764,28.764h31.96   C89.091,512,76.187,499.096,76.187,483.236z"/>
	<path style="fill:#FFF6E9;" d="M371.368,89.09h-78.396H157.143H78.746c-1.413,0-2.559,1.146-2.559,2.559v385.832   c0,1.414,1.146,2.559,2.559,2.559h292.621c1.413,0,2.559-1.146,2.559-2.559V91.649C373.927,90.235,372.781,89.09,371.368,89.09z"/>
	<path style="fill:#F9E4C7;" d="M106.635,477.481V91.649c0-1.414,1.146-2.559,2.559-2.559H78.746c-1.413,0-2.559,1.146-2.559,2.559   v385.832c0,1.414,1.146,2.559,2.559,2.559h30.448C107.781,480.04,106.635,478.894,106.635,477.481z"/>
	<g>
		<path style="fill:#F9E4C7;" d="M327.639,189.371H122.475c-4.204,0-7.612-3.408-7.612-7.612c0-4.204,3.408-7.612,7.612-7.612    h205.164c4.204,0,7.612,3.408,7.612,7.612C335.251,185.963,331.843,189.371,327.639,189.371z"/>
	</g>
	<g>
		<path style="fill:#F9E4C7;" d="M327.639,441.232H122.475c-4.204,0-7.612-3.408-7.612-7.612s3.408-7.612,7.612-7.612h205.164    c4.204,0,7.612,3.408,7.612,7.612S331.843,441.232,327.639,441.232z"/>
	</g>
	<g>
		<path style="fill:#F9E4C7;" d="M272.833,225.351H122.475c-4.204,0-7.612-3.408-7.612-7.612c0-4.204,3.408-7.612,7.612-7.612    h150.358c4.204,0,7.612,3.408,7.612,7.612C280.445,221.943,277.037,225.351,272.833,225.351z"/>
	</g>
	<g>
		<path style="fill:#F9E4C7;" d="M272.833,261.331H122.475c-4.204,0-7.612-3.408-7.612-7.612c0-4.204,3.408-7.612,7.612-7.612    h150.358c4.204,0,7.612,3.408,7.612,7.612C280.445,257.923,277.037,261.331,272.833,261.331z"/>
	</g>
	<g>
		<path style="fill:#F9E4C7;" d="M272.833,297.311H122.475c-4.204,0-7.612-3.408-7.612-7.612s3.408-7.612,7.612-7.612h150.358    c4.204,0,7.612,3.408,7.612,7.612S277.037,297.311,272.833,297.311z"/>
	</g>
	<g>
		<path style="fill:#F9E4C7;" d="M272.833,333.292H122.475c-4.204,0-7.612-3.408-7.612-7.612c0-4.204,3.408-7.612,7.612-7.612    h150.358c4.204,0,7.612,3.408,7.612,7.612C280.445,329.884,277.037,333.292,272.833,333.292z"/>
	</g>
	<g>
		<path style="fill:#F9E4C7;" d="M272.833,369.272H122.475c-4.204,0-7.612-3.408-7.612-7.612s3.408-7.612,7.612-7.612h150.358    c4.204,0,7.612,3.408,7.612,7.612S277.037,369.272,272.833,369.272z"/>
	</g>
	<g>
		<path style="fill:#F9E4C7;" d="M272.833,405.252H122.475c-4.204,0-7.612-3.408-7.612-7.612c0-4.204,3.408-7.612,7.612-7.612    h150.358c4.204,0,7.612,3.408,7.612,7.612C280.445,401.844,277.037,405.252,272.833,405.252z"/>
	</g>
	<g>
		<path style="fill:#CCD2DB;" d="M251.424,63.876c-4.204,0-7.612-3.408-7.612-7.612V33.979c0-10.342-8.413-18.755-18.755-18.755    c-10.342,0-18.755,8.413-18.755,18.755v22.285c0,4.204-3.408,7.612-7.612,7.612c-4.204,0-7.612-3.408-7.612-7.612V33.979    C191.079,15.243,206.321,0,225.057,0s33.979,15.243,33.979,33.979v22.285C259.036,60.468,255.628,63.876,251.424,63.876z"/>
	</g>
	<path style="fill:#E4EAF8;" d="M284.913,49.16H165.201c-4.432,0-8.058,3.626-8.058,8.058v36.617c0,4.432,3.626,8.058,8.058,8.058   h119.712c4.432,0,8.058-3.626,8.058-8.058V57.218C292.972,52.786,289.346,49.16,284.913,49.16z"/>
	<path style="fill:#CCD2DB;" d="M187.591,93.835V57.218c0-4.432,3.626-8.058,8.058-8.058h-30.448c-4.432,0-8.058,3.626-8.058,8.058   v36.617c0,4.432,3.626,8.058,8.058,8.058h30.448C191.217,101.893,187.591,98.267,187.591,93.835z"/>
	<g>
		<path style="fill:#BCC2CC;" d="M262.018,83.138h-73.921c-4.204,0-7.612-3.408-7.612-7.612s3.408-7.612,7.612-7.612h73.921    c4.204,0,7.612,3.408,7.612,7.612S266.222,83.138,262.018,83.138z"/>
	</g>
	<path style="fill:#F9E4C7;" d="M276.348,153.391H173.766c-4.204,0-7.612-3.408-7.612-7.612s3.408-7.612,7.612-7.612h102.582   c4.204,0,7.612,3.408,7.612,7.612S280.552,153.391,276.348,153.391z"/>
	<path style="fill:#CCD2DB;" d="M336.874,389.593l26.893,26.893c0.423-2.106,1.41-4.079,2.999-5.668l9.412-9.412   c1.589-1.589,3.563-2.576,5.668-2.999l-26.893-26.893c-2.56,3.365-5.367,6.591-8.428,9.652   C343.465,384.226,340.239,387.032,336.874,389.593z"/>
	<path style="fill:#BCC2CC;" d="M363.169,395.588c-3.138-3.138-2.994-8.248,0.289-11.233c0.755-0.686,1.5-1.386,2.238-2.099   l-10.742-10.742c-2.56,3.365-5.367,6.591-8.428,9.651c-3.061,3.061-6.287,5.868-9.651,8.428l26.893,26.893   c0.423-2.106,1.41-4.079,2.999-5.668l5.816-5.816L363.169,395.588z"/>
	<g>
		<path style="fill:#E4EAF8;" d="M347.366,382.005c-40.147,40.147-105.472,40.147-145.62,0s-40.148-105.472,0-145.62    c40.148-40.148,105.472-40.148,145.62,0S387.514,341.858,347.366,382.005z"/>
	</g>
	<path style="fill:#CCD2DB;" d="M233.691,382.005c-40.148-40.148-40.148-105.472,0-145.62   c16.007-16.007,36.017-25.625,56.838-28.868c-31.399-4.891-64.642,4.727-88.783,28.868c-40.147,40.148-40.147,105.472,0,145.62   c24.14,24.14,57.383,33.758,88.782,28.867C269.708,407.63,249.698,398.012,233.691,382.005z"/>
	<path style="fill:#FF6B6B;" d="M374.922,400.149l-9.412,9.412c-4.612,4.612-4.612,12.09,0,16.703l72.689,72.689   c4.612,4.612,12.09,4.612,16.702,0l9.412-9.412c4.612-4.612,4.612-12.09,0-16.702l-72.689-72.689   C387.012,395.537,379.534,395.537,374.922,400.149z"/>
	<path style="fill:#EE5253;" d="M395.958,426.264c-4.613-4.613-4.613-12.09,0-16.703l2.539-2.539l-6.873-6.872   c-4.612-4.612-12.09-4.612-16.702,0l-9.412,9.412c-4.613,4.613-4.613,12.09,0,16.703l72.689,72.689   c4.612,4.612,12.09,4.612,16.702,0l6.873-6.873L395.958,426.264z"/>
	<path style="fill:#54A0FF;" d="M224.345,258.984c-27.686,27.686-27.686,72.735,0,100.422c27.686,27.686,72.735,27.686,100.422,0   c27.686-27.686,27.686-72.736,0-100.422S252.032,231.298,224.345,258.984z"/>
	<path style="fill:#338DEF;" d="M254.793,359.406c-27.686-27.686-27.686-72.735,0-100.422c9.955-9.955,22.157-16.31,34.987-19.106   c-22.853-4.981-47.703,1.374-65.435,19.106c-27.686,27.686-27.686,72.735,0,100.422c17.732,17.732,42.582,24.087,65.435,19.106   C276.95,375.716,264.748,369.361,254.793,359.406z"/>
</g>















</svg>
