<?xml version="1.0" encoding="iso-8859-1"?>
<!-- Generator: Adobe Illustrator 21.0.0, SVG Export Plug-In . SVG Version: 6.00 Build 0)  -->
<svg xmlns="http://www.w3.org/2000/svg" xmlns:xlink="http://www.w3.org/1999/xlink" version="1.1" id="Capa_1" x="0px" y="0px" viewBox="0 0 512 512" style="enable-background:new 0 0 512 512;" xml:space="preserve" width="512" height="512">
<g>
	<path style="fill:#E4EAF8;" d="M497.276,218.382h-40.441c-3.504,0-6.516-2.445-7.281-5.865   c-5.047-22.568-13.931-43.685-25.945-62.625c-1.878-2.961-1.48-6.82,1-9.3l28.599-28.599c5.75-5.75,5.75-15.073,0-20.823   l-32.377-32.377c-5.75-5.75-15.073-5.75-20.823,0l-28.599,28.599c-2.479,2.479-6.339,2.878-9.3,1   c-18.94-12.014-40.058-20.898-62.625-25.945c-3.42-0.765-5.865-3.776-5.865-7.281V14.724C293.618,6.592,287.026,0,278.894,0   h-45.788c-8.132,0-14.724,6.592-14.724,14.724v40.441c0,3.504-2.445,6.516-5.865,7.281c-22.568,5.047-43.685,13.931-62.625,25.945   c-2.961,1.878-6.82,1.48-9.3-1l-28.599-28.599c-5.75-5.75-15.073-5.75-20.823,0L58.792,91.169c-5.75,5.75-5.75,15.073,0,20.823   l28.599,28.599c2.479,2.479,2.878,6.339,1,9.3c-12.014,18.94-20.898,40.058-25.945,62.625c-0.765,3.42-3.776,5.865-7.281,5.865   H14.724C6.592,218.382,0,224.974,0,233.106v45.788c0,8.132,6.592,14.724,14.724,14.724h40.441c3.504,0,6.516,2.445,7.281,5.865   c5.047,22.568,13.931,43.685,25.945,62.625c1.878,2.961,1.48,6.82-1,9.3l-28.599,28.599c-5.75,5.75-5.75,15.073,0,20.823   l32.377,32.377c5.75,5.75,15.073,5.75,20.823,0l28.599-28.599c2.479-2.479,6.339-2.878,9.3-1   c18.94,12.014,40.058,20.898,62.625,25.945c3.42,0.765,5.865,3.776,5.865,7.281v40.441c0,8.132,6.592,14.724,14.724,14.724h45.788   c8.132,0,14.724-6.592,14.724-14.724v-40.441c0-3.505,2.445-6.516,5.865-7.281c22.568-5.047,43.685-13.931,62.625-25.945   c2.961-1.878,6.82-1.48,9.3,1l28.599,28.599c5.75,5.75,15.073,5.75,20.823,0l32.377-32.377c5.75-5.75,5.75-15.073,0-20.823   l-28.599-28.599c-2.479-2.479-2.878-6.339-1-9.3c12.014-18.94,20.898-40.058,25.945-62.625c0.765-3.42,3.776-5.865,7.281-5.865   h40.441c8.132,0,14.724-6.592,14.724-14.724v-45.788C512,224.974,505.408,218.382,497.276,218.382z"/>
	<path style="fill:#CCD2DB;" d="M87.391,140.592c2.48,2.479,2.878,6.339,1,9.3c-12.014,18.94-20.898,40.058-25.945,62.625   c-0.765,3.42-3.776,5.865-7.281,5.865h30.907c3.504,0,6.516-2.445,7.281-5.865c5.047-22.568,13.931-43.685,25.945-62.625   c1.878-2.961,1.48-6.82-1-9.3l-28.599-28.599c-5.75-5.75-5.75-15.073,0-20.823l27.335-27.335l-5.042-5.042   c-5.75-5.75-15.073-5.75-20.823,0L58.792,91.169c-5.75,5.75-5.75,15.073,0,20.823L87.391,140.592z"/>
	<path style="fill:#CCD2DB;" d="M30.907,278.894v-45.788c0-8.132,6.592-14.724,14.724-14.724H14.724   C6.592,218.382,0,224.974,0,233.106v45.788c0,8.132,6.592,14.724,14.724,14.724h30.907C37.5,293.618,30.907,287.026,30.907,278.894   z"/>
	<path style="fill:#CCD2DB;" d="M89.699,420.831c-5.75-5.75-5.75-15.073,0-20.823l28.599-28.599c2.48-2.479,2.878-6.339,1-9.3   c-12.014-18.94-20.898-40.058-25.945-62.625c-0.765-3.42-3.776-5.865-7.281-5.865H55.165c3.504,0,6.516,2.445,7.281,5.865   c5.047,22.568,13.931,43.685,25.945,62.625c1.878,2.961,1.48,6.82-1,9.3l-28.599,28.599c-5.75,5.75-5.75,15.073,0,20.823   l32.377,32.377c5.75,5.75,15.073,5.75,20.823,0l5.042-5.042L89.699,420.831z"/>
	<path style="fill:#FF6B6B;" d="M258.061,256.233V112.067c-0.687-0.01-1.372-0.026-2.06-0.026   c-79.507,0-143.959,64.453-143.959,143.959c0,79.506,64.453,143.959,143.959,143.959c19.805,0,38.675-4.001,55.848-11.237   L258.061,256.233z"/>
	<path style="fill:#FF6B6B;" d="M258.061,256.233V112.067c-0.687-0.01-1.372-0.026-2.06-0.026   c-79.507,0-143.959,64.453-143.959,143.959c0,79.506,64.453,143.959,143.959,143.959c19.805,0,38.675-4.001,55.848-11.237   L258.061,256.233z"/>
	<path style="fill:#EE5253;" d="M142.948,256c0-69.627,49.43-127.707,115.112-141.067v-2.867c-0.687-0.01-1.372-0.026-2.06-0.026   c-79.507,0-143.959,64.453-143.959,143.959c0,79.506,64.453,143.959,143.959,143.959c5.221,0,10.374-0.286,15.45-0.828   C199.214,391.419,142.948,330.284,142.948,256z"/>
	<path style="fill:#FECA57;" d="M399.959,256c0-79.506-64.453-143.959-143.959-143.959V256H399.959z"/>
	<path style="fill:#54A0FF;" d="M399.959,256L399.959,256L256,256l101.695,101.892C383.804,331.833,399.959,295.804,399.959,256z"/>
	<path style="fill:#1DD1A1;" d="M357.695,357.892L256,256l54.162,133.412C328.089,382.126,344.219,371.341,357.695,357.892   L357.695,357.892z"/>
	<path style="fill:#CCD2DB;" d="M233.106,0c-8.132,0-14.724,6.592-14.724,14.724v40.441c0,3.504-2.445,6.516-5.865,7.281   l30.455-6.03c3.672-0.727,6.317-3.948,6.317-7.691V14.724C249.289,6.592,255.881,0,264.013,0H233.106z"/>
	<path style="fill:#CCD2DB;" d="M249.289,497.276v-30.248c0-5.924-4.187-11.022-9.999-12.172l-26.774-5.301   c3.42,0.765,5.865,3.776,5.865,7.281v40.441c0,8.132,6.592,14.725,14.725,14.725h30.907   C255.881,512,249.289,505.408,249.289,497.276z"/>
</g>















</svg>
