<?xml version="1.0" encoding="iso-8859-1"?>
<!-- Generator: Adobe Illustrator 21.0.0, SVG Export Plug-In . SVG Version: 6.00 Build 0)  -->
<svg xmlns="http://www.w3.org/2000/svg" xmlns:xlink="http://www.w3.org/1999/xlink" version="1.1" id="Capa_1" x="0px" y="0px" viewBox="0 0 511.999 511.999" style="enable-background:new 0 0 511.999 511.999;" xml:space="preserve" width="512" height="512">
<g>
	<path style="fill:#CCD2DB;" d="M425.687,330.906H263.727v-38.713c0-4.268-3.459-7.727-7.727-7.727s-7.727,3.459-7.727,7.727v38.713   H86.312c-8.943,0-16.219,7.276-16.219,16.219v44.002c0,4.268,3.459,7.727,7.727,7.727c4.267,0,7.727-3.459,7.727-7.727v-44.002   c0-0.423,0.343-0.766,0.765-0.766h161.961v44.767c0,4.268,3.459,7.727,7.727,7.727s7.727-3.459,7.727-7.727V346.36h161.961   c0.422,0,0.766,0.343,0.766,0.766v44.002c0,4.268,3.459,7.727,7.727,7.727s7.727-3.459,7.727-7.727v-44.002   C441.906,338.182,434.63,330.906,425.687,330.906z"/>
	<path style="fill:#3E4B5A;" d="M256.625,0c-33.539,0-60.726,27.187-60.726,60.726v25.133c4.059-3.762,9.832-5.807,15.469-5.054   v-3.026c0-2.406,2.054-4.306,4.435-4.125c23.478,1.687,47.372-5.774,65.439-17.576c1.687-1.102,3.92-0.828,5.291,0.645   c15.445,16.602,15.352,15.96,15.352,18.127v5.942c6.178-0.926,11.658,0.983,15.466,4.523V60.726C317.35,27.187,290.164,0,256.625,0   z"/>
	<g>
		<path style="fill:#303F49;" d="M226.764,60.726c0-28.205,19.23-51.913,45.293-58.742C267.129,0.693,261.958,0,256.625,0    c-33.539,0-60.726,27.187-60.726,60.726v25.133c4.059-3.762,9.832-5.807,15.469-5.054v-3.026c0-2.406,2.054-4.306,4.435-4.125    c3.652,0.262,7.312,0.279,10.961,0.117V60.726z"/>
	</g>
	<path style="fill:#FFBEAB;" d="M249.69,167.655c2.449-0.95,4.064-3.307,4.064-5.934v-8.593c-8.361-0.563-15.77-3.121-21.965-7.08   v18.967c0,1.697-0.681,3.274-1.817,4.439L249.69,167.655z"/>
	<path style="fill:#FFBEAB;" d="M223.561,182.087c19.356,20.566,46.718,20.566,66.074,0l6.872-7.302l-10.108-3.915   c-2.327-0.901-3.861-3.141-3.861-5.637v-19.856c-7.188,4.958-15.892,7.871-25.265,7.871c-9.811,0-18.432-2.693-25.484-7.199v18.967   c0,2.627-1.614,4.984-4.064,5.934l-10.731,4.16L223.561,182.087z"/>
	<path style="fill:#F7AF9F;" d="M253.753,153.129c-8.361-0.563-15.77-3.121-21.965-7.08v18.967c0,2.627-1.614,4.984-4.064,5.934   l-10.731,4.16l6.567,6.977c8.892,9.448,19.474,14.543,30.193,15.31V153.129z"/>
	<path style="fill:#FFBEAB;" d="M300.981,78.081v33.266c0,0.361-0.019,0.717-0.027,1.076c11.772,1.782,21.895-6.723,21.895-17.169   C322.849,84.786,312.718,76.322,300.981,78.081z"/>
	<path style="fill:#FFBEAB;" d="M212.271,111.347V78.094c-10.249-1.369-21.868,6.497-21.868,17.159   c0,10.432,10.103,18.954,21.895,17.169C212.289,112.063,212.271,111.706,212.271,111.347z"/>
	<path style="fill:#F7AF9F;" d="M315.075,81.189c-3.856-2.606-8.807-3.9-14.095-3.108v33.266c0,0.36-0.019,0.717-0.027,1.076   c5.304,0.803,10.262-0.495,14.122-3.105V81.189z"/>
	<path style="fill:#F7AF9F;" d="M212.271,109.32c-4.709-3.185-7.774-8.331-7.774-14.067c0-5.616,3.225-10.453,7.774-13.577v-3.582   c-10.249-1.369-21.868,6.497-21.868,17.159c0,10.432,10.103,18.954,21.895,17.169c-0.009-0.359-0.026-0.716-0.026-1.076V109.32z"/>
	<path style="fill:#FFCDBF;" d="M286.532,54.012c-1.371-1.473-3.604-1.747-5.291-0.645c-18.066,11.802-41.96,19.262-65.439,17.576   c-2.381-0.18-4.436,1.72-4.436,4.125v36.278c0,23.316,18.269,44.612,45.904,44.612c24.6,0,44.613-20.013,44.613-44.612V72.139   C301.885,69.972,301.978,70.614,286.532,54.012z"/>
	<path style="fill:#FFBEAB;" d="M242.232,111.347V69.198c-8.645,1.712-17.566,2.382-26.429,1.745   c-2.381-0.18-4.436,1.72-4.436,4.125v36.278c0,23.316,18.269,44.612,45.904,44.612c5.247,0,10.282-0.918,14.962-2.589   C253.716,147.024,242.232,129.826,242.232,111.347z"/>
	<path style="fill:#FECA57;" d="M349.665,195.371l-54.492-21.103l-7.022,7.462c-18.47,19.625-44.581,19.626-63.052,0l-6.732-7.152   l-53.637,20.794c0,0-24.828,10.207-24.828,38.51v62.815c0,3.19,2.586,5.776,5.775,5.776h223.089c3.162,0,5.725-2.563,5.725-5.725   v-62.865C374.493,205.578,349.665,195.371,349.665,195.371z"/>
	<g>
		<path style="fill:#F4B537;" d="M170.768,218.449c0-14.644,6.646-24.434,13.062-30.482l-19.099,7.404    c0,0-24.828,10.207-24.828,38.51v62.815c0,3.19,2.586,5.776,5.776,5.776h25.089V218.449z"/>
	</g>
	<circle style="fill:#FFCDBF;" cx="434.179" cy="408.936" r="29.487"/>
	<path style="fill:#FF6B6B;" d="M450.867,438.423h-33.376c-17.377,0-31.594,14.217-31.594,31.594v36.601   c0,2.972,2.409,5.382,5.382,5.382h85.8c2.972,0,5.382-2.409,5.382-5.382v-36.601C482.461,452.64,468.244,438.423,450.867,438.423z"/>
	<path style="fill:#EE5253;" d="M406.503,506.617v-36.601c0-17.377,14.217-31.594,31.594-31.594h-20.605   c-17.377,0-31.594,14.217-31.594,31.594v36.601c0,2.972,2.409,5.382,5.382,5.382h20.605   C408.912,511.999,406.503,509.59,406.503,506.617z"/>
	<g>
		<path style="fill:#EE5253;" d="M465.897,468.882c0-4.268-3.459-7.727-7.727-7.727s-7.727,3.459-7.727,7.727v43.117h15.454V468.882    z"/>
		<path style="fill:#EE5253;" d="M417.915,511.999v-43.117c0-4.268-3.459-7.727-7.727-7.727s-7.727,3.459-7.727,7.727v43.117    H417.915z"/>
	</g>
	<g>
		<path style="fill:#F4B537;" d="M188.687,302.472V243.61c0-4.268-3.459-7.727-7.727-7.727c-4.267,0-7.727,3.459-7.727,7.727v58.862    H188.687z"/>
		<path style="fill:#F4B537;" d="M338.765,302.472V243.61c0-4.268-3.459-7.727-7.727-7.727s-7.727,3.459-7.727,7.727v58.862H338.765    z"/>
	</g>
	<circle style="fill:#FFCDBF;" cx="256" cy="408.936" r="29.487"/>
	<path style="fill:#FF6B6B;" d="M272.688,438.423h-33.376c-17.377,0-31.594,14.217-31.594,31.594v36.601   c0,2.972,2.409,5.382,5.382,5.382h85.8c2.972,0,5.382-2.409,5.382-5.382v-36.601C304.281,452.64,290.064,438.423,272.688,438.423z"/>
	<path style="fill:#EE5253;" d="M228.323,506.617v-36.601c0-17.377,14.217-31.594,31.594-31.594h-20.605   c-17.377,0-31.594,14.217-31.594,31.594v36.601c0,2.972,2.409,5.382,5.382,5.382h20.605   C230.732,511.999,228.323,509.59,228.323,506.617z"/>
	<g>
		<path style="fill:#EE5253;" d="M287.718,468.882c0-4.268-3.459-7.727-7.727-7.727s-7.727,3.459-7.727,7.727v43.117h15.454V468.882    z"/>
		<path style="fill:#EE5253;" d="M239.735,511.999v-43.117c0-4.268-3.459-7.727-7.727-7.727s-7.727,3.459-7.727,7.727v43.117    H239.735z"/>
	</g>
	<circle style="fill:#FFCDBF;" cx="77.82" cy="408.936" r="29.487"/>
	<path style="fill:#FFBEAB;" d="M435.599,408.936c0-10.618,5.614-19.921,14.034-25.114c-4.494-2.771-9.786-4.374-15.454-4.374   c-16.285,0-29.487,13.202-29.487,29.487s13.202,29.487,29.487,29.487c5.668,0,10.959-1.602,15.454-4.374   C441.213,428.857,435.599,419.553,435.599,408.936z"/>
	<path style="fill:#FFBEAB;" d="M257.42,408.936c0-10.618,5.614-19.921,14.034-25.114c-4.494-2.771-9.786-4.374-15.454-4.374   c-16.285,0-29.487,13.202-29.487,29.487s13.202,29.487,29.487,29.487c5.668,0,10.959-1.602,15.454-4.374   C263.034,428.857,257.42,419.553,257.42,408.936z"/>
	<path style="fill:#FFBEAB;" d="M79.24,408.936c0-10.618,5.614-19.921,14.034-25.114c-4.494-2.771-9.786-4.374-15.454-4.374   c-16.285,0-29.487,13.202-29.487,29.487s13.202,29.487,29.487,29.487c5.668,0,10.959-1.602,15.454-4.374   C84.854,428.857,79.24,419.553,79.24,408.936z"/>
	<path style="fill:#FF6B6B;" d="M94.508,438.423H61.132c-17.377,0-31.594,14.217-31.594,31.594v36.601   c0,2.972,2.409,5.382,5.382,5.382h85.8c2.972,0,5.382-2.409,5.382-5.382v-36.601C126.101,452.64,111.884,438.423,94.508,438.423z"/>
	<path style="fill:#EE5253;" d="M50.143,506.617v-36.601c0-17.377,14.217-31.594,31.594-31.594H61.132   c-17.377,0-31.594,14.217-31.594,31.594v36.601c0,2.972,2.409,5.382,5.382,5.382h20.605   C52.552,511.999,50.143,509.59,50.143,506.617z"/>
	<g>
		<path style="fill:#EE5253;" d="M109.538,468.882c0-4.268-3.459-7.727-7.727-7.727s-7.727,3.459-7.727,7.727v43.117h15.454V468.882    z"/>
		<path style="fill:#EE5253;" d="M61.555,511.999v-43.117c0-4.268-3.459-7.727-7.727-7.727s-7.727,3.459-7.727,7.727v43.117H61.555z    "/>
	</g>
</g>















</svg>
