<?xml version="1.0" encoding="iso-8859-1"?>
<!-- Generator: Adobe Illustrator 21.0.0, SVG Export Plug-In . SVG Version: 6.00 Build 0)  -->
<svg xmlns="http://www.w3.org/2000/svg" xmlns:xlink="http://www.w3.org/1999/xlink" version="1.1" id="Capa_1" x="0px" y="0px" viewBox="0 0 511.999 511.999" style="enable-background:new 0 0 511.999 511.999;" xml:space="preserve" width="512" height="512">
<g>
	<path style="fill:#FFF6E9;" d="M225.441,1.028H34.095c-6.63,0-12.054,5.425-12.054,12.054v213.946   c0,6.63,5.424,12.054,12.054,12.054h191.346c6.63,0,12.054-5.424,12.054-12.054V13.082C237.495,6.453,232.07,1.028,225.441,1.028z"/>
	<path style="fill:#F9E4C7;" d="M52.494,227.028V13.082c0-6.629,5.424-12.054,12.054-12.054H34.095   c-6.63,0-12.054,5.425-12.054,12.054v213.946c0,6.63,5.424,12.054,12.054,12.054h30.453   C57.918,239.082,52.494,233.658,52.494,227.028z"/>
	<path style="fill:#54A0FF;" d="M225.441,0H34.095c-6.63,0-12.054,5.425-12.054,12.054v46.314h215.454V12.054   C237.495,5.425,232.07,0,225.441,0z"/>
	<path style="fill:#338DEF;" d="M64.559,0H34.095c-6.63,0-12.054,5.425-12.054,12.054v46.314h30.464V12.054   C52.505,5.425,57.929,0,64.559,0z"/>
	<path style="fill:#F9E4C7;" d="M199.329,106.117H60.206c-4.259,0-7.712-3.453-7.712-7.712s3.453-7.712,7.712-7.712h139.123   c4.259,0,7.712,3.453,7.712,7.712S203.589,106.117,199.329,106.117z"/>
	<path style="fill:#F9E4C7;" d="M199.329,138.986H60.206c-4.259,0-7.712-3.453-7.712-7.712c0-4.259,3.453-7.712,7.712-7.712h139.123   c4.259,0,7.712,3.453,7.712,7.712C207.042,135.533,203.589,138.986,199.329,138.986z"/>
	<path style="fill:#F9E4C7;" d="M199.329,171.855H60.206c-4.259,0-7.712-3.453-7.712-7.712s3.453-7.712,7.712-7.712h139.123   c4.259,0,7.712,3.453,7.712,7.712S203.589,171.855,199.329,171.855z"/>
	<path style="fill:#F9E4C7;" d="M199.329,204.725H60.206c-4.259,0-7.712-3.453-7.712-7.712s3.453-7.712,7.712-7.712h139.123   c4.259,0,7.712,3.453,7.712,7.712S203.589,204.725,199.329,204.725z"/>
	<path style="fill:#338DEF;" d="M132.542,37.925h-5.548c-4.259,0-7.712-3.453-7.712-7.712s3.453-7.712,7.712-7.712h5.548   c4.259,0,7.712,3.453,7.712,7.712S136.801,37.925,132.542,37.925z"/>
	<path style="fill:#FFF6E9;" d="M477.904,1.028H286.558c-6.63,0-12.054,5.425-12.054,12.054v213.946   c0,6.63,5.424,12.054,12.054,12.054h191.346c6.63,0,12.054-5.424,12.054-12.054V13.082C489.958,6.453,484.534,1.028,477.904,1.028z   "/>
	<path style="fill:#F9E4C7;" d="M304.957,227.028V13.082c0-6.629,5.424-12.054,12.054-12.054h-30.453   c-6.63,0-12.054,5.425-12.054,12.054v213.946c0,6.63,5.424,12.054,12.054,12.054h30.453   C310.381,239.082,304.957,233.658,304.957,227.028z"/>
	<path style="fill:#1DD1A1;" d="M477.904,0H286.558c-6.63,0-12.054,5.425-12.054,12.054v46.314h215.454V12.054   C489.958,5.425,484.534,0,477.904,0z"/>
	<path style="fill:#15BA8B;" d="M317.023,0h-30.464c-6.63,0-12.054,5.425-12.054,12.054v46.314h30.464V12.054   C304.969,5.425,310.393,0,317.023,0z"/>
	<path style="fill:#F9E4C7;" d="M451.793,106.117H312.67c-4.259,0-7.712-3.453-7.712-7.712s3.453-7.712,7.712-7.712h139.123   c4.259,0,7.712,3.453,7.712,7.712S456.052,106.117,451.793,106.117z"/>
	<path style="fill:#F9E4C7;" d="M451.793,138.986H312.67c-4.259,0-7.712-3.453-7.712-7.712c0-4.259,3.453-7.712,7.712-7.712h139.123   c4.259,0,7.712,3.453,7.712,7.712C459.505,135.533,456.052,138.986,451.793,138.986z"/>
	<path style="fill:#F9E4C7;" d="M451.793,171.855H312.67c-4.259,0-7.712-3.453-7.712-7.712s3.453-7.712,7.712-7.712h139.123   c4.259,0,7.712,3.453,7.712,7.712S456.052,171.855,451.793,171.855z"/>
	<path style="fill:#F9E4C7;" d="M451.793,204.725H312.67c-4.259,0-7.712-3.453-7.712-7.712s3.453-7.712,7.712-7.712h139.123   c4.259,0,7.712,3.453,7.712,7.712S456.052,204.725,451.793,204.725z"/>
	<path style="fill:#15BA8B;" d="M385.005,37.925h-5.548c-4.259,0-7.712-3.453-7.712-7.712s3.453-7.712,7.712-7.712h5.548   c4.259,0,7.712,3.453,7.712,7.712S389.265,37.925,385.005,37.925z"/>
	<path style="fill:#FFF6E9;" d="M477.904,273.945H286.558c-6.63,0-12.054,5.425-12.054,12.054v213.946   c0,6.63,5.424,12.054,12.054,12.054h191.346c6.63,0,12.054-5.424,12.054-12.054V285.999   C489.958,279.37,484.534,273.945,477.904,273.945z"/>
	<path style="fill:#F9E4C7;" d="M304.957,499.945V285.999c0-6.629,5.424-12.054,12.054-12.054h-30.453   c-6.63,0-12.054,5.425-12.054,12.054v213.946c0,6.63,5.424,12.054,12.054,12.054h30.453   C310.381,511.999,304.957,506.575,304.957,499.945z"/>
	<path style="fill:#FF6B6B;" d="M477.904,272.917H286.558c-6.63,0-12.054,5.425-12.054,12.054v46.314h215.454v-46.314   C489.958,278.341,484.534,272.917,477.904,272.917z"/>
	<path style="fill:#EE5253;" d="M317.023,272.917h-30.464c-6.63,0-12.054,5.425-12.054,12.054v46.314h30.464v-46.314   C304.969,278.341,310.393,272.917,317.023,272.917z"/>
	<path style="fill:#F9E4C7;" d="M451.793,379.033H312.67c-4.259,0-7.712-3.453-7.712-7.712c0-4.259,3.453-7.712,7.712-7.712h139.123   c4.259,0,7.712,3.453,7.712,7.712C459.505,375.58,456.052,379.033,451.793,379.033z"/>
	<path style="fill:#F9E4C7;" d="M451.793,411.903H312.67c-4.259,0-7.712-3.453-7.712-7.712c0-4.259,3.453-7.712,7.712-7.712h139.123   c4.259,0,7.712,3.453,7.712,7.712C459.505,408.45,456.052,411.903,451.793,411.903z"/>
	<path style="fill:#F9E4C7;" d="M451.793,444.772H312.67c-4.259,0-7.712-3.453-7.712-7.712c0-4.259,3.453-7.712,7.712-7.712h139.123   c4.259,0,7.712,3.453,7.712,7.712C459.505,441.319,456.052,444.772,451.793,444.772z"/>
	<path style="fill:#F9E4C7;" d="M451.793,477.642H312.67c-4.259,0-7.712-3.453-7.712-7.712s3.453-7.712,7.712-7.712h139.123   c4.259,0,7.712,3.453,7.712,7.712S456.052,477.642,451.793,477.642z"/>
	<path style="fill:#EE5253;" d="M385.005,310.842h-5.548c-4.259,0-7.712-3.453-7.712-7.712c0-4.259,3.453-7.712,7.712-7.712h5.548   c4.259,0,7.712,3.453,7.712,7.712C392.718,307.389,389.265,310.842,385.005,310.842z"/>
	<path style="fill:#FFF6E9;" d="M225.441,273.945H34.095c-6.63,0-12.054,5.425-12.054,12.054v213.946   c0,6.63,5.424,12.054,12.054,12.054h191.346c6.63,0,12.054-5.424,12.054-12.054V285.999   C237.495,279.37,232.07,273.945,225.441,273.945z"/>
	<path style="fill:#F9E4C7;" d="M52.494,499.945V285.999c0-6.629,5.424-12.054,12.054-12.054H34.095   c-6.63,0-12.054,5.425-12.054,12.054v213.946c0,6.63,5.424,12.054,12.054,12.054h30.453   C57.918,511.999,52.494,506.575,52.494,499.945z"/>
	<path style="fill:#FECA57;" d="M225.441,272.917H34.095c-6.63,0-12.054,5.425-12.054,12.054v46.314h215.454v-46.314   C237.495,278.341,232.07,272.917,225.441,272.917z"/>
	<path style="fill:#F4B537;" d="M64.559,272.917H34.095c-6.63,0-12.054,5.425-12.054,12.054v46.314h30.464v-46.314   C52.505,278.341,57.929,272.917,64.559,272.917z"/>
	<path style="fill:#F9E4C7;" d="M199.329,379.033H60.206c-4.259,0-7.712-3.453-7.712-7.712c0-4.259,3.453-7.712,7.712-7.712h139.123   c4.259,0,7.712,3.453,7.712,7.712C207.042,375.58,203.589,379.033,199.329,379.033z"/>
	<path style="fill:#F9E4C7;" d="M199.329,411.903H60.206c-4.259,0-7.712-3.453-7.712-7.712c0-4.259,3.453-7.712,7.712-7.712h139.123   c4.259,0,7.712,3.453,7.712,7.712C207.042,408.45,203.589,411.903,199.329,411.903z"/>
	<path style="fill:#F9E4C7;" d="M199.329,444.772H60.206c-4.259,0-7.712-3.453-7.712-7.712c0-4.259,3.453-7.712,7.712-7.712h139.123   c4.259,0,7.712,3.453,7.712,7.712C207.042,441.319,203.589,444.772,199.329,444.772z"/>
	<path style="fill:#F9E4C7;" d="M199.329,477.642H60.206c-4.259,0-7.712-3.453-7.712-7.712s3.453-7.712,7.712-7.712h139.123   c4.259,0,7.712,3.453,7.712,7.712S203.589,477.642,199.329,477.642z"/>
	<path style="fill:#F4B537;" d="M132.542,310.842h-5.548c-4.259,0-7.712-3.453-7.712-7.712c0-4.259,3.453-7.712,7.712-7.712h5.548   c4.259,0,7.712,3.453,7.712,7.712C140.254,307.389,136.801,310.842,132.542,310.842z"/>
</g>















</svg>
