<?xml version="1.0" encoding="iso-8859-1"?>
<!-- Generator: Adobe Illustrator 21.0.0, SVG Export Plug-In . SVG Version: 6.00 Build 0)  -->
<svg xmlns="http://www.w3.org/2000/svg" xmlns:xlink="http://www.w3.org/1999/xlink" version="1.1" id="Capa_1" x="0px" y="0px" viewBox="0 0 512 512" style="enable-background:new 0 0 512 512;" xml:space="preserve" width="512" height="512">
<g>
	<path style="fill:#576574;" d="M349.35,9.096H156.76c-28.057,0-50.882,22.825-50.882,50.882v49.596h36.058V59.978   c0-8.174,6.65-14.824,14.824-14.824h192.59c8.174,0,14.824,6.649,14.824,14.824v49.596h36.058V59.978   C400.233,31.921,377.406,9.096,349.35,9.096z"/>
	<g>
		<path style="fill:#3E4B5A;" d="M184.319,9.096H156.76c-28.056,0-50.882,22.825-50.882,50.882v49.596h27.559V59.978    C133.437,31.921,156.263,9.096,184.319,9.096z"/>
		<path style="fill:#3E4B5A;" d="M376.91,45.154H349.35c8.174,0,14.824,6.649,14.824,14.824v49.596h27.559V59.978    C391.734,51.804,385.083,45.154,376.91,45.154z"/>
	</g>
	<path style="fill:#B45F4A;" d="M478.647,126.115c-9.365,0-430.901,0-445.295,0C15.008,126.115,0,141.123,0,159.467v310.085   c0,18.344,15.008,33.352,33.352,33.352h445.295c18.344,0,33.353-15.008,33.353-33.352V159.467   C512,141.123,496.991,126.115,478.647,126.115z"/>
	<path style="fill:#A05344;" d="M30.907,469.552V159.467c0-18.344,15.008-33.352,33.352-33.352c-17.548,0-28.76,0-30.907,0   C15.008,126.115,0,141.123,0,159.467v310.085c0,18.344,15.008,33.352,33.352,33.352h30.907   C45.916,502.904,30.907,487.895,30.907,469.552z"/>
	<path style="fill:#C46F5F;" d="M478.648,126.115c-1.589,0-410.239,0-445.296,0C15.008,126.115,0,141.123,0,159.467v47.727   c0,17.266,9.91,32.998,25.481,40.456l194.99,93.38c4.421-15.461,18.648-26.783,35.529-26.783c16.881,0,31.108,11.322,35.529,26.783   l194.99-93.38C502.09,240.192,512,224.459,512,207.194v-47.727C512,141.123,496.992,126.115,478.648,126.115z"/>
	<path style="fill:#B45F4A;" d="M25.481,247.649l5.426,2.599v-90.781c0-18.344,15.008-33.352,33.352-33.352   c-17.548,0-28.76,0-30.907,0C15.008,126.115,0,141.123,0,159.467v47.727C0,224.459,9.91,240.192,25.481,247.649z"/>
	<path style="fill:#FECA57;" d="M256,313.216c-20.947,0-37.99,17.042-37.99,37.989c0,20.948,17.042,37.99,37.99,37.99   s37.99-17.042,37.99-37.99C293.99,330.258,276.947,313.216,256,313.216z"/>
	<path style="fill:#F4B537;" d="M248.918,351.205c0-15.445,9.271-28.758,22.536-34.691c-4.725-2.113-9.952-3.298-15.454-3.298   c-20.947,0-37.99,17.042-37.99,37.989c0,20.948,17.042,37.99,37.99,37.99c5.502,0,10.729-1.185,15.454-3.298   C258.189,379.964,248.918,366.651,248.918,351.205z"/>
	<g>
		<path style="fill:#F4B537;" d="M259.265,358.932h-6.531c-4.267,0-7.727-3.459-7.727-7.727c0-4.268,3.459-7.727,7.727-7.727h6.531    c4.267,0,7.727,3.459,7.727,7.727C266.992,355.473,263.533,358.932,259.265,358.932z"/>
	</g>
	<path style="fill:#3E4B5A;" d="M161.047,106.483H98.546c-7.932,0-14.423,6.49-14.423,14.423v10.417   c0,7.932,6.491,14.423,14.423,14.423h62.501c7.933,0,14.423-6.491,14.423-14.423v-10.417   C175.47,112.974,168.98,106.483,161.047,106.483z"/>
	<path style="fill:#3E4B5A;" d="M413.454,106.483h-62.501c-7.932,0-14.423,6.49-14.423,14.423v10.417   c0,7.932,6.491,14.423,14.423,14.423h62.501c7.933,0,14.423-6.491,14.423-14.423v-10.417   C427.877,112.974,421.387,106.483,413.454,106.483z"/>
	<path style="fill:#303F49;" d="M115.03,131.324v-10.417c0-7.933,6.491-14.423,14.423-14.423H98.546   c-7.932,0-14.423,6.49-14.423,14.423v10.417c0,7.932,6.491,14.423,14.423,14.423h30.907   C121.521,145.747,115.03,139.256,115.03,131.324z"/>
	<path style="fill:#303F49;" d="M367.437,131.324v-10.417c0-7.933,6.491-14.423,14.423-14.423h-30.907   c-7.932,0-14.423,6.49-14.423,14.423v10.417c0,7.932,6.491,14.423,14.423,14.423h30.907   C373.928,145.747,367.437,139.256,367.437,131.324z"/>
</g>















</svg>
