<?xml version="1.0" encoding="iso-8859-1"?>
<!-- Generator: Adobe Illustrator 21.0.0, SVG Export Plug-In . SVG Version: 6.00 Build 0)  -->
<svg xmlns="http://www.w3.org/2000/svg" xmlns:xlink="http://www.w3.org/1999/xlink" version="1.1" id="Capa_1" x="0px" y="0px" viewBox="0 0 512 512" style="enable-background:new 0 0 512 512;" xml:space="preserve" width="512" height="512">
<g>
	<path style="fill:#FF6B6B;" d="M256,0L256,0v78.592l0,0c97.979,0,177.407,79.428,177.407,177.407H512C512,114.615,397.385,0,256,0z   "/>
	<path style="fill:#1DD1A1;" d="M256,78.592V0C114.644,0,0,114.585,0,256h78.592C78.592,158.023,158.017,78.592,256,78.592z"/>
	<path style="fill:#FECA57;" d="M433.407,256c0,97.979-79.428,177.407-177.407,177.407c-73.484,0-136.534-44.678-163.466-108.352   C119.466,388.729,182.515,433.407,256,433.407v78.592h0c141.385,0,256-114.615,256-255.999H433.407z"/>
	<path style="fill:#54A0FF;" d="M78.592,256H0c0,141.389,114.617,255.999,256,255.999v-78.592   C158.024,433.407,78.592,353.982,78.592,256z"/>
	<path style="fill:#15BA8B;" d="M244.539,0.268C108.501,6.265,0,118.428,0,256h30.907C30.907,128.242,123.099,22.063,244.539,0.268z   "/>
	<path style="fill:#338DEF;" d="M30.907,256H0c0,137.545,108.474,249.733,244.535,255.731   C123.078,489.933,30.907,383.735,30.907,256z"/>
	<g>
		<path style="fill:#EE5253;" d="M428.746,67.08c-3.811-3.486-7.733-6.852-11.75-10.106l-56.015,56.015    c4.18,3.074,8.22,6.325,12.11,9.746L428.746,67.08z"/>
		<path style="fill:#EE5253;" d="M396.754,42.156c-4.414-2.911-8.914-5.702-13.513-8.342l-58.565,58.565    c5.059,2.126,9.995,4.485,14.802,7.053L396.754,42.156z"/>
		<path style="fill:#EE5253;" d="M359.98,22.014c-5.095-2.267-10.273-4.381-15.537-6.319l-64.51,64.51    c6.235,0.841,12.365,2.007,18.377,3.478L359.98,22.014z"/>
		<path style="fill:#EE5253;" d="M256,69.077l61.598-61.598c-5.947-1.469-11.975-2.733-18.078-3.778L256,47.222V69.077z"/>
		<path style="fill:#EE5253;" d="M508.684,214.806c-0.995-6.151-2.206-12.229-3.631-18.224L445.635,256h21.855L508.684,214.806z"/>
		<path style="fill:#EE5253;" d="M497.021,169.554c-1.901-5.299-3.975-10.516-6.209-15.647l-61.963,61.963    c1.407,6.085,2.492,12.293,3.255,18.6L497.021,169.554z"/>
		<path style="fill:#EE5253;" d="M456.236,96.506c-3.225-4.044-6.566-7.991-10.026-11.829l-55.678,55.679    c3.382,3.931,6.592,8.012,9.624,12.231L456.236,96.506z"/>
		<path style="fill:#EE5253;" d="M479.159,130.5c-2.609-4.63-5.354-9.172-8.238-13.618l-57.416,57.416    c2.525,4.857,4.828,9.846,6.903,14.952L479.159,130.5z"/>
	</g>
</g>















</svg>
