<?xml version="1.0" encoding="iso-8859-1"?>
<!-- Generator: Adobe Illustrator 21.0.0, SVG Export Plug-In . SVG Version: 6.00 Build 0)  -->
<svg xmlns="http://www.w3.org/2000/svg" xmlns:xlink="http://www.w3.org/1999/xlink" version="1.1" id="Capa_1" x="0px" y="0px" viewBox="0 0 511.999 511.999" style="enable-background:new 0 0 511.999 511.999;" xml:space="preserve" width="512" height="512">
<g>
	<path style="fill:#E4EAF8;" d="M84.617,480.08c1.847,11.862,12.877,19.968,24.637,18.105l11.924-1.889   c11.76-1.863,19.797-12.988,17.95-24.85L110.75,289.155H54.894L84.617,480.08z"/>
	<path style="fill:#CCD2DB;" d="M115.065,480.08L85.342,289.155H54.895L84.617,480.08c1.846,11.862,12.877,19.968,24.637,18.105   l11.924-1.889c1.377-0.218,2.702-0.568,3.967-1.027C119.928,492.059,116.087,486.647,115.065,480.08z"/>
	<path style="fill:#E4EAF8;" d="M151.308,136.275c0,6.799,0,147.89,0,154.67l244.211,107.597V213.61V28.679L151.308,136.275z"/>
	<path style="fill:#CCD2DB;" d="M151.308,290.946l244.211,107.597v-30.448L151.308,260.498   C151.308,277.069,151.308,289.083,151.308,290.946z"/>
	<path style="fill:#FF6B6B;" d="M151.308,136.275H45.532C20.386,136.275,0,156.661,0,181.808v63.605   c0,25.147,20.386,45.532,45.532,45.532h105.775V136.275z"/>
	<path style="fill:#EE5253;" d="M30.448,245.413v-63.605c0-25.147,20.386-45.532,45.532-45.532H45.532   C20.386,136.275,0,156.661,0,181.808v63.605c0,25.147,20.386,45.532,45.532,45.532H75.98   C50.833,290.946,30.448,270.56,30.448,245.413z"/>
	<polygon style="fill:#CCD2DB;" points="359.506,382.675 395.519,398.542 395.519,213.61 395.519,28.679 359.506,44.545  "/>
	<polygon style="fill:#BCC2CC;" points="359.506,382.675 395.519,398.542 395.519,368.094 359.506,352.228  "/>
	<path style="fill:#EE5253;" d="M115.442,290.946h35.866c0-6.799,0-147.89,0-154.67h-35.866V290.946z"/>
	<g>
		<path style="fill:#E4EAF8;" d="M504.387,221.222h-28.58c-4.204,0-7.612-3.408-7.612-7.612c0-4.204,3.408-7.612,7.612-7.612h28.58    c4.204,0,7.612,3.408,7.612,7.612C511.999,217.815,508.591,221.222,504.387,221.222z"/>
	</g>
	<g>
		<path style="fill:#E4EAF8;" d="M462.944,171.379c-0.752-4.137,1.991-8.1,6.127-8.852l28.119-5.115    c4.135-0.758,8.099,1.991,8.851,6.126c0.752,4.137-1.991,8.1-6.127,8.852l-28.119,5.115    C467.677,178.259,463.699,175.526,462.944,171.379z"/>
	</g>
	<g>
		<path style="fill:#E4EAF8;" d="M451.099,131.596c-1.975-3.711-0.568-8.321,3.143-10.296l25.229-13.427    c3.71-1.973,8.32-0.567,10.295,3.144c1.975,3.711,0.568,8.321-3.143,10.296l-25.229,13.427    C457.674,136.718,453.071,135.3,451.099,131.596z"/>
	</g>
	<g>
		<path style="fill:#E4EAF8;" d="M497.19,269.809l-28.119-5.115c-4.136-0.752-6.879-4.715-6.127-8.852    c0.752-4.136,4.718-6.883,8.851-6.126l28.119,5.115c4.136,0.752,6.879,4.715,6.127,8.852    C505.288,267.824,501.315,270.563,497.19,269.809z"/>
	</g>
	<g>
		<path style="fill:#E4EAF8;" d="M479.472,319.348l-25.229-13.427c-3.711-1.975-5.119-6.585-3.143-10.296    c1.975-3.712,6.584-5.116,10.295-3.144l25.229,13.427c3.711,1.975,5.119,6.585,3.143,10.296    C487.799,319.904,483.199,321.329,479.472,319.348z"/>
	</g>
	<path style="fill:#54A0FF;" d="M416.377,13.548h-7.846c-7.738,0-14.01,6.272-14.01,14.01v372.105c0,7.738,6.272,14.01,14.01,14.01   h7.846c7.738,0,14.01-6.272,14.01-14.01V27.558C430.387,19.82,424.114,13.548,416.377,13.548z"/>
	<path style="fill:#338DEF;" d="M421.248,399.663V27.558c0-4.095,1.768-7.769,4.569-10.33c-2.491-2.278-5.798-3.68-9.44-3.68h-7.846   c-7.738,0-14.01,6.272-14.01,14.01v372.105c0,7.738,6.272,14.01,14.01,14.01h7.846c3.642,0,6.949-1.402,9.44-3.68   C423.016,407.432,421.248,403.758,421.248,399.663z"/>
</g>















</svg>
