<?xml version="1.0" encoding="iso-8859-1"?>
<!-- Generator: Adobe Illustrator 21.0.0, SVG Export Plug-In . SVG Version: 6.00 Build 0)  -->
<svg xmlns="http://www.w3.org/2000/svg" xmlns:xlink="http://www.w3.org/1999/xlink" version="1.1" id="Capa_1" x="0px" y="0px" viewBox="0 0 511.999 511.999" style="enable-background:new 0 0 511.999 511.999;" xml:space="preserve" width="512" height="512">
<g>
	<path style="fill:#FF6B6B;" d="M395.639,83.413c-1.839-1.967-1.839-5.023,0-6.99l29.377-31.439   c3.057-3.272,0.737-8.615-3.741-8.615H306.697v87.099h114.578c4.478,0,6.798-5.343,3.741-8.615L395.639,83.413z"/>
	<rect x="306.698" y="36.369" style="fill:#EE5253;" width="35.028" height="87.099"/>
	<path style="fill:#CCD2DB;" d="M306.697,253.339c-4.267,0-7.727-3.459-7.727-7.727V23.115c0-4.268,3.459-7.727,7.727-7.727   s7.727,3.459,7.727,7.727v222.497C314.424,249.88,310.964,253.339,306.697,253.339z"/>
	<path style="fill:#FECA57;" d="M155.28,300.274c-3.174-4.116-9.383-4.116-12.557,0L1.769,483.043   c-4.271,5.538-0.323,13.567,6.67,13.567h84.607l107.856-139.853L155.28,300.274z"/>
	<path style="fill:#F4B537;" d="M32.676,483.043l131.991-171.147l-9.387-11.622c-3.174-4.116-9.383-4.116-12.557,0L1.769,483.043   c-4.271,5.538-0.323,13.567,6.67,13.567h30.907C32.353,496.611,28.405,488.581,32.676,483.043z"/>
	<path style="fill:#F4B537;" d="M509.881,480.366L315.286,228.042c-4.342-5.63-12.836-5.63-17.177,0L90.985,496.611h410.91   C510.268,496.611,514.995,486.996,509.881,480.366z"/>
	<path style="fill:#E59D1F;" d="M315.286,228.042c-4.342-5.63-12.836-5.63-17.177,0L90.985,496.611h30.907l200.259-259.667   L315.286,228.042z"/>
</g>















</svg>
