<?xml version="1.0" encoding="iso-8859-1"?>
<!-- Generator: Adobe Illustrator 21.0.0, SVG Export Plug-In . SVG Version: 6.00 Build 0)  -->
<svg xmlns="http://www.w3.org/2000/svg" xmlns:xlink="http://www.w3.org/1999/xlink" version="1.1" id="Capa_1" x="0px" y="0px" viewBox="0 0 512 512" style="enable-background:new 0 0 512 512;" xml:space="preserve" width="512" height="512">
<g>
	<path style="fill:#EE5253;" d="M391.192,298.345L277.648,80.946l48.658,256.322l60.709-27.038   C391.585,308.225,393.503,302.769,391.192,298.345z"/>
	<polygon style="fill:#D83941;" points="326.203,173.913 277.648,80.946 326.305,337.268 354.803,324.576  "/>
	<path style="fill:#FF6B6B;" d="M302.145,16.661l-7.032-11.813C293.324,1.842,290.085,0,286.586,0c-10.421,0-87.9,0-98.321,0   c-3.498,0-6.738,1.842-8.527,4.848l-7.032,11.813c-1.661,2.791-1.852,6.219-0.509,9.177l25.007,55.109c8.526,0,71.917,0,80.444,0   l25.007-55.109C303.997,22.88,303.807,19.453,302.145,16.661z"/>
	<path style="fill:#EE5253;" d="M200.136,16.661l7.032-11.813C208.958,1.842,212.197,0,215.696,0c-13.235,0-23.989,0-27.43,0   c-3.498,0-6.738,1.842-8.527,4.848l-7.032,11.813c-1.661,2.791-1.851,6.219-0.509,9.177l25.007,55.108c3.237,0,14.383,0,27.43,0   l-25.007-55.108C198.285,22.88,198.475,19.452,200.136,16.661z"/>
	<path style="fill:#FF6B6B;" d="M354.578,431.246l-76.93-350.299h-80.444l-76.93,350.299c-1.793,8.163,1.906,16.546,9.143,20.725   l100.462,58.007c4.67,2.697,10.425,2.697,15.095,0l100.462-58.007C352.672,447.792,356.371,439.408,354.578,431.246z"/>
	<path style="fill:#EE5253;" d="M260.786,494.524l-100.462-58.007c-7.237-4.178-10.936-12.562-9.143-20.725l73.537-334.846h-27.514   l-76.931,350.299c-1.793,8.163,1.906,16.546,9.143,20.725l100.462,58.007c4.67,2.696,10.425,2.696,15.095,0l23.267-13.434   C265.665,496.527,263.093,495.856,260.786,494.524z"/>
	<polygon style="fill:#EE5253;" points="147.705,306.337 132.972,373.424 304.262,202.134 294.835,159.208  "/>
	<polygon style="fill:#D83941;" points="147.705,306.337 146.082,313.729 132.972,373.424 168.228,338.168 182.961,271.081  "/>
	<path style="fill:#EE5253;" d="M226.467,0c-17.904,0-33.864,0-38.202,0c-3.498,0-6.738,1.842-8.527,4.848l-0.29,0.487   l75.611,75.611c10.895,0,19.76,0,22.588,0l9.291-20.475L226.467,0z"/>
	<path style="fill:#D83941;" d="M179.738,4.848l-0.29,0.487l19.978,19.978c-1.097-2.834-0.855-6.023,0.71-8.652l7.032-11.813   C208.958,1.842,212.197,0,215.696,0c-13.235,0-23.989,0-27.43,0c-2.422,0-4.707,0.899-6.486,2.439   C180.989,3.124,180.289,3.923,179.738,4.848z"/>
	<path style="fill:#EE5253;" d="M313.7,245.108L120.122,438.686c0.965,5.466,4.276,10.386,9.295,13.284l18.876,10.899   l174.835-174.835L313.7,245.108z"/>
	<path style="fill:#D83941;" d="M160.324,436.517c-7.237-4.178-10.936-12.562-9.143-20.725l2.298-10.462l-33.357,33.357   c0.115,0.65,0.268,1.291,0.448,1.923c0.026,0.093,0.057,0.184,0.085,0.276c0.161,0.535,0.346,1.062,0.553,1.58   c0.041,0.102,0.079,0.205,0.121,0.306c0.251,0.598,0.525,1.185,0.835,1.754c0.001,0.003,0.003,0.005,0.004,0.007   c0.296,0.544,0.626,1.069,0.974,1.583c0.083,0.123,0.169,0.244,0.255,0.365c0.311,0.437,0.64,0.862,0.988,1.273   c0.066,0.078,0.128,0.16,0.195,0.238c0.413,0.472,0.853,0.925,1.314,1.357c0.102,0.096,0.211,0.186,0.316,0.279   c0.375,0.336,0.765,0.658,1.169,0.967c0.14,0.107,0.279,0.214,0.423,0.318c0.519,0.374,1.053,0.732,1.615,1.057l18.876,10.899   l21.11-21.11L160.324,436.517z"/>
	<polygon style="fill:#EE5253;" points="341.992,373.935 332.565,331.009 181.519,482.054 214.709,501.219  "/>
	<polygon style="fill:#D83941;" points="202.63,460.944 181.519,482.054 214.709,501.219 235.819,480.108  "/>
	<polygon style="fill:#EE5253;" points="162.455,239.174 285.397,116.232 277.648,80.946 268.33,80.946 177.188,172.087  "/>
	<polygon style="fill:#D83941;" points="177.188,172.087 166.839,219.214 162.455,239.174 197.712,203.918 212.445,136.831  "/>
</g>















</svg>
