<?xml version="1.0" encoding="iso-8859-1"?>
<!-- Generator: Adobe Illustrator 21.0.0, SVG Export Plug-In . SVG Version: 6.00 Build 0)  -->
<svg xmlns="http://www.w3.org/2000/svg" xmlns:xlink="http://www.w3.org/1999/xlink" version="1.1" id="Capa_1" x="0px" y="0px" viewBox="0 0 512 512" style="enable-background:new 0 0 512 512;" xml:space="preserve" width="512" height="512">
<g>
	<path style="fill:#FFF6E9;" d="M354.726,0H73.143c-8.819,0-15.968,7.149-15.968,15.968v480.064c0,8.819,7.149,15.968,15.968,15.968   h365.714c8.819,0,15.968-7.149,15.968-15.968V100.099L354.726,0z"/>
	<path style="fill:#F9E4C7;" d="M88.082,496.032V15.968C88.082,7.149,95.231,0,104.05,0H73.143c-8.819,0-15.968,7.149-15.968,15.968   v480.064c0,8.819,7.149,15.968,15.968,15.968h30.907C95.231,512,88.082,504.851,88.082,496.032z"/>
	<path style="fill:#F9E4C7;" d="M370.694,100.099h84.131L354.726,0v84.131C354.726,92.95,361.875,100.099,370.694,100.099z"/>
	<path style="fill:#F2D5B1;" d="M385.633,84.131V30.907L354.726,0v84.131c0,8.819,7.149,15.968,15.968,15.968h30.907   C392.782,100.099,385.633,92.95,385.633,84.131z"/>
	<path style="fill:#54A0FF;" d="M192.747,210.422l-59.053,54.992c8.774,1.561,15.591,8.764,16.539,17.734l59.053-54.992   C200.513,226.596,193.695,219.393,192.747,210.422z"/>
	<path style="fill:#54A0FF;" d="M358.842,181.6l-63.198,83.487c9.19,0.041,16.917,6.217,19.328,14.643l63.198-83.486   C368.981,196.203,361.254,190.026,358.842,181.6z"/>
	<path style="fill:#54A0FF;" d="M291.995,265.415l-59.053-54.992c-0.948,8.971-7.765,16.174-16.539,17.735l59.053,54.992   C276.404,274.179,283.221,266.976,291.995,265.415z"/>
	<g>
		<path style="fill:#F9E4C7;" d="M283.572,88.138h-58.747c-4.267,0-7.727-3.459-7.727-7.727s3.459-7.727,7.727-7.727h58.747    c4.267,0,7.727,3.459,7.727,7.727S287.84,88.138,283.572,88.138z"/>
	</g>
	<g>
		<path style="fill:#F9E4C7;" d="M234.89,362.794H120.029c-4.267,0-7.727-3.459-7.727-7.727s3.459-7.727,7.727-7.727H234.89    c4.267,0,7.727,3.459,7.727,7.727S239.158,362.794,234.89,362.794z"/>
	</g>
	<g>
		<path style="fill:#F9E4C7;" d="M234.89,398.838H120.029c-4.267,0-7.727-3.459-7.727-7.727s3.459-7.727,7.727-7.727H234.89    c4.267,0,7.727,3.459,7.727,7.727S239.158,398.838,234.89,398.838z"/>
	</g>
	<g>
		<path style="fill:#F9E4C7;" d="M234.89,434.881H120.029c-4.267,0-7.727-3.459-7.727-7.727s3.459-7.727,7.727-7.727H234.89    c4.267,0,7.727,3.459,7.727,7.727S239.158,434.881,234.89,434.881z"/>
	</g>
	<g>
		<path style="fill:#F9E4C7;" d="M388.369,362.794H273.508c-4.267,0-7.727-3.459-7.727-7.727s3.459-7.727,7.727-7.727h114.861    c4.267,0,7.727,3.459,7.727,7.727S392.637,362.794,388.369,362.794z"/>
	</g>
	<g>
		<path style="fill:#F9E4C7;" d="M388.369,398.838H273.508c-4.267,0-7.727-3.459-7.727-7.727s3.459-7.727,7.727-7.727h114.861    c4.267,0,7.727,3.459,7.727,7.727S392.637,398.838,388.369,398.838z"/>
	</g>
	<g>
		<path style="fill:#F9E4C7;" d="M388.369,434.881H273.508c-4.267,0-7.727-3.459-7.727-7.727s3.459-7.727,7.727-7.727h114.861    c4.267,0,7.727,3.459,7.727,7.727S392.637,434.881,388.369,434.881z"/>
	</g>
	<path style="fill:#FECA57;" d="M130.136,264.053c-11.714,0-21.244,9.53-21.244,21.244c0,11.714,9.53,21.244,21.244,21.244   c11.714,0,21.244-9.53,21.244-21.244C151.381,273.583,141.85,264.053,130.136,264.053z"/>
	<path style="fill:#F4B537;" d="M139.799,285.297c0-5.623,2.211-10.728,5.791-14.532c-3.878-4.121-9.363-6.712-15.454-6.712   c-11.714,0-21.244,9.53-21.244,21.244c0,11.714,9.53,21.244,21.244,21.244c6.091,0,11.576-2.591,15.454-6.712   C142.011,296.025,139.799,290.919,139.799,285.297z"/>
	<path style="fill:#FECA57;" d="M212.845,187.031c-11.714,0-21.244,9.53-21.244,21.244s9.53,21.244,21.244,21.244   c11.714,0,21.244-9.53,21.244-21.244S224.559,187.031,212.845,187.031z"/>
	<path style="fill:#F4B537;" d="M222.508,208.275c0-5.623,2.211-10.728,5.791-14.532c-3.878-4.121-9.363-6.712-15.454-6.712   c-11.714,0-21.244,9.53-21.244,21.244s9.53,21.244,21.244,21.244c6.091,0,11.576-2.591,15.454-6.712   C224.719,219.003,222.508,213.898,222.508,208.275z"/>
	<path style="fill:#FECA57;" d="M378.262,154.791c-11.714,0-21.244,9.53-21.244,21.244c0,11.714,9.53,21.244,21.244,21.244   s21.244-9.53,21.244-21.244C399.506,164.321,389.976,154.791,378.262,154.791z"/>
	<path style="fill:#F4B537;" d="M387.925,176.035c0-5.623,2.211-10.728,5.791-14.532c-3.878-4.121-9.362-6.712-15.454-6.712   c-11.714,0-21.244,9.53-21.244,21.244c0,11.714,9.53,21.244,21.244,21.244c6.091,0,11.576-2.591,15.454-6.712   C390.136,186.763,387.925,181.658,387.925,176.035z"/>
	<path style="fill:#FECA57;" d="M295.554,264.053c-11.714,0-21.244,9.53-21.244,21.244c0,11.714,9.53,21.244,21.244,21.244   c11.714,0,21.244-9.53,21.244-21.244C316.798,273.583,307.268,264.053,295.554,264.053z"/>
	<path style="fill:#F4B537;" d="M305.217,285.297c0-5.623,2.211-10.728,5.791-14.532c-3.878-4.121-9.363-6.712-15.454-6.712   c-11.714,0-21.244,9.53-21.244,21.244c0,11.714,9.53,21.244,21.244,21.244c6.091,0,11.576-2.591,15.454-6.712   C307.428,296.025,305.217,290.919,305.217,285.297z"/>
</g>















</svg>
