<?xml version="1.0" encoding="iso-8859-1"?>
<!-- Generator: Adobe Illustrator 21.0.0, SVG Export Plug-In . SVG Version: 6.00 Build 0)  -->
<svg xmlns="http://www.w3.org/2000/svg" xmlns:xlink="http://www.w3.org/1999/xlink" version="1.1" id="Capa_1" x="0px" y="0px" viewBox="0 0 512 512" style="enable-background:new 0 0 512 512;" xml:space="preserve" width="512" height="512">
<g>
	<path style="fill:#C46F5F;" d="M408.066,57.13H323.91H188.09h-84.156c-15.86,0-28.764,12.904-28.764,28.764v397.342   c0,15.86,12.904,28.764,28.764,28.764h304.132c15.86,0,28.764-12.904,28.764-28.764V85.894   C436.83,70.033,423.926,57.13,408.066,57.13z"/>
	<path style="fill:#B45F4A;" d="M107.13,483.236V85.894c0-15.86,12.904-28.764,28.764-28.764h-31.96   c-15.86,0-28.764,12.904-28.764,28.764v397.342c0,15.86,12.904,28.764,28.764,28.764h31.96   C120.034,512,107.13,499.096,107.13,483.236z"/>
	<path style="fill:#FFF6E9;" d="M402.311,89.09h-78.396H188.086h-78.396c-1.413,0-2.559,1.146-2.559,2.559v385.832   c0,1.414,1.146,2.559,2.559,2.559h292.621c1.413,0,2.559-1.146,2.559-2.559V91.649C404.87,90.235,403.724,89.09,402.311,89.09z"/>
	<path style="fill:#F9E4C7;" d="M137.578,477.481V91.649c0-1.414,1.146-2.559,2.559-2.559h-30.448c-1.413,0-2.559,1.146-2.559,2.559   v385.832c0,1.414,1.146,2.559,2.559,2.559h30.448C138.724,480.04,137.578,478.894,137.578,477.481z"/>
	<g>
		<path style="fill:#CCD2DB;" d="M282.367,63.876c-4.204,0-7.612-3.408-7.612-7.612V33.979c0-10.342-8.413-18.755-18.755-18.755    c-10.342,0-18.755,8.413-18.755,18.755v22.285c0,4.204-3.408,7.612-7.612,7.612c-4.204,0-7.612-3.408-7.612-7.612V33.979    C222.021,15.243,237.264,0,256,0s33.979,15.243,33.979,33.979v22.285C289.979,60.468,286.571,63.876,282.367,63.876z"/>
	</g>
	<path style="fill:#E4EAF8;" d="M315.856,49.16H196.144c-4.432,0-8.058,3.626-8.058,8.058v36.617c0,4.432,3.626,8.058,8.058,8.058   h119.712c4.432,0,8.058-3.626,8.058-8.058V57.218C323.915,52.786,320.288,49.16,315.856,49.16z"/>
	<path style="fill:#CCD2DB;" d="M218.533,93.835V57.218c0-4.432,3.626-8.058,8.058-8.058h-30.448c-4.432,0-8.058,3.626-8.058,8.058   v36.617c0,4.432,3.626,8.058,8.058,8.058h30.448C222.16,101.893,218.533,98.267,218.533,93.835z"/>
	<g>
		<path style="fill:#BCC2CC;" d="M292.961,83.138H219.04c-4.204,0-7.612-3.408-7.612-7.612s3.408-7.612,7.612-7.612h73.921    c4.204,0,7.612,3.408,7.612,7.612S297.165,83.138,292.961,83.138z"/>
	</g>
	<g>
		<path style="fill:#E4EAF8;" d="M157.903,443.129c-4.204,0-7.612-3.408-7.612-7.612v-33.456c0-4.204,3.408-7.612,7.612-7.612    c4.204,0,7.612,3.408,7.612,7.612v33.456C165.515,439.72,162.107,443.129,157.903,443.129z"/>
	</g>
	<path style="fill:#8AC2FF;" d="M319.394,173.745l-10.8,18.167h59.937l-10.8-18.167c-1.288-2.167-3.622-3.494-6.143-3.494h-26.052   C323.016,170.251,320.682,171.578,319.394,173.745z"/>
	<path style="fill:#54A0FF;" d="M308.594,191.912l24.742,26.533c2.825,3.03,7.627,3.03,10.452,0l24.742-26.533H308.594z"/>
	<path style="fill:#54A0FF;" d="M353.547,170.531c-0.629-0.18-1.286-0.28-1.958-0.28h-26.052c-2.52,0-4.855,1.328-6.143,3.494   l-10.799,18.167h29.968l10.8-18.167C350.307,172.156,351.816,171.025,353.547,170.531z"/>
	<path style="fill:#338DEF;" d="M338.563,191.912h-29.968l24.742,26.533c2.825,3.03,7.627,3.03,10.452,0l9.758-10.464   L338.563,191.912z"/>
	<g>
		<path style="fill:#F9E4C7;" d="M229.752,150.164h52.496c4.204,0,7.612-3.408,7.612-7.612s-3.408-7.612-7.612-7.612h-52.496    c-4.204,0-7.612,3.408-7.612,7.612S225.548,150.164,229.752,150.164z"/>
		<path style="fill:#F9E4C7;" d="M363.154,255.438l-19.209-19.209c-2.969-2.97-7.793-2.973-10.765,0l-19.209,19.209    c-2.973,2.973-2.973,7.792,0,10.765c2.972,2.972,7.792,2.972,10.765,0l6.214-6.215v10.263c0,10.566-8.596,19.162-19.162,19.162    h-101.99c-18.961,0-34.386,15.425-34.386,34.386v15.699c0,18.961,15.425,34.386,34.386,34.386h101.99    c10.566,0,19.162,8.596,19.162,19.162v15.699c0,10.566-8.596,19.162-19.162,19.162H189.417c-4.204,0-7.612,3.408-7.612,7.612    s3.408,7.612,7.612,7.612h122.372c18.961,0,34.386-15.425,34.386-34.386v-15.699c0-18.961-15.425-34.386-34.386-34.386h-101.99    c-10.566,0-19.162-8.596-19.162-19.162v-15.699c0-10.566,8.596-19.162,19.162-19.162h101.99c18.961,0,34.386-15.425,34.386-34.386    v-10.263l6.215,6.215c2.973,2.973,7.792,2.973,10.765,0C366.127,263.23,366.127,258.41,363.154,255.438z"/>
	</g>
	<circle style="fill:#FF6B6B;" cx="157.903" cy="402.061" r="15.98"/>
	<path style="fill:#EE5253;" d="M162.222,402.061c0-4.972,2.27-9.412,5.831-12.343c-2.76-2.272-6.295-3.637-10.149-3.637   c-8.826,0-15.98,7.154-15.98,15.98c0,8.825,7.154,15.98,15.98,15.98c3.854,0,7.389-1.365,10.149-3.638   C164.492,411.472,162.222,407.032,162.222,402.061z"/>
</g>















</svg>
