<?xml version="1.0" encoding="iso-8859-1"?>
<!-- Generator: Adobe Illustrator 21.0.0, SVG Export Plug-In . SVG Version: 6.00 Build 0)  -->
<svg xmlns="http://www.w3.org/2000/svg" xmlns:xlink="http://www.w3.org/1999/xlink" version="1.1" id="Capa_1" x="0px" y="0px" viewBox="0 0 511.969 511.969" style="enable-background:new 0 0 511.969 511.969;" xml:space="preserve" width="512" height="512">
<g>
	<path style="fill:#54A0FF;" d="M358.229,97.992c-3.685-3.727-8.708-5.824-13.95-5.824h-176.59c-5.241,0-10.264,2.097-13.95,5.824   l-90.727,91.754h385.944L358.229,97.992z"/>
	<g>
		<path style="fill:#338DEF;" d="M183.739,95.629c1.342-1.392,2.873-2.54,4.518-3.461h-20.569c-5.241,0-10.264,2.097-13.95,5.824    l-90.727,91.754h30L183.739,95.629z"/>
	</g>
	<path style="fill:#54A0FF;" d="M63.012,189.746l183.246,225.428c5.016,6.17,14.436,6.17,19.451,0l0,0l183.247-225.428H63.012z"/>
	<path style="fill:#8AC2FF;" d="M261.783,95.5c-0.016-0.027-0.032-0.055-0.048-0.082c-2.541-4.333-8.96-4.333-11.502,0   c-0.016,0.027-0.032,0.055-0.048,0.082l-54.642,94.246h120.881L261.783,95.5z"/>
	<path style="fill:#338DEF;" d="M265.71,415.173l50.715-225.428H195.544l50.715,225.428   C251.275,421.344,260.694,421.344,265.71,415.173z"/>
	<path style="fill:#8AC2FF;" d="M351.473,93.551l-35.048,96.195h132.531l-90.727-91.754   C356.294,96.035,353.984,94.541,351.473,93.551z"/>
	<path style="fill:#8AC2FF;" d="M160.495,93.551l35.048,96.195H63.012l90.727-91.754C155.674,96.035,157.984,94.541,160.495,93.551z   "/>
	<path style="fill:#338DEF;" d="M93.012,189.746h-30l183.246,225.428c5.016,6.17,14.436,6.17,19.451,0l5.275-6.489L93.012,189.746z"/>
	<path style="fill:#1C78D3;" d="M265.71,415.173l2.287-10.164l-33.218-40.864l11.48,51.028l0,0c0.313,0.386,0.644,0.747,0.99,1.084   c0.454,0.443,0.942,0.829,1.443,1.189c2.17,1.559,4.728,2.354,7.293,2.354c0.024,0,0.048-0.004,0.072-0.004   c1.205-0.007,2.406-0.197,3.568-0.547c0.555-0.167,1.104-0.36,1.635-0.606c0.417-0.193,0.825-0.41,1.222-0.651   C263.674,417.27,264.769,416.33,265.71,415.173z"/>
	<path style="fill:#54A0FF;" d="M93.012,189.746l74.408-77.188l-6.925-19.007c-1.231,0.485-2.411,1.095-3.525,1.818   c-0.026,0.017-0.054,0.031-0.08,0.048c-0.497,0.326-0.975,0.684-1.443,1.056c-0.068,0.054-0.141,0.1-0.208,0.155   c-0.521,0.426-1.023,0.88-1.501,1.364l-90.727,91.754H93.012z"/>
	<g>
		<path style="fill:#8AC2FF;" d="M461.431,130.463c-2.968-2.889-3.032-7.637-0.143-10.605l24.029-24.686    c2.889-2.968,7.638-3.032,10.605-0.143c2.968,2.889,3.032,7.637,0.143,10.605l-24.029,24.686    C469.149,133.288,464.4,133.353,461.431,130.463z"/>
	</g>
	<g>
		<path style="fill:#8AC2FF;" d="M485.318,284.318l-24.029-24.686c-2.89-2.968-2.826-7.716,0.143-10.605    c2.968-2.89,7.716-2.826,10.605,0.143l24.029,24.686c2.89,2.968,2.826,7.716-0.143,10.605    C492.955,287.351,488.206,287.286,485.318,284.318z"/>
	</g>
	<g>
		<path style="fill:#8AC2FF;" d="M504.469,197.245h-24.029c-4.142,0-7.5-3.358-7.5-7.5s3.358-7.5,7.5-7.5h24.029    c4.142,0,7.5,3.358,7.5,7.5S508.611,197.245,504.469,197.245z"/>
	</g>
	<g>
		<path style="fill:#8AC2FF;" d="M39.946,130.322l-24.039-24.686c-2.89-2.967-2.827-7.716,0.141-10.605    c2.967-2.89,7.715-2.828,10.605,0.141l24.039,24.686c2.89,2.967,2.827,7.716-0.141,10.605    C47.584,133.353,42.836,133.29,39.946,130.322z"/>
	</g>
	<g>
		<path style="fill:#8AC2FF;" d="M16.048,284.461c-2.968-2.89-3.031-7.638-0.141-10.605l24.039-24.686    c2.89-2.968,7.639-3.03,10.605-0.141c2.968,2.89,3.031,7.638,0.141,10.605L26.653,284.32    C23.765,287.287,19.016,287.352,16.048,284.461z"/>
	</g>
	<g>
		<path style="fill:#8AC2FF;" d="M31.54,197.246H7.5c-4.142,0-7.5-3.358-7.5-7.5s3.358-7.5,7.5-7.5h24.04c4.142,0,7.5,3.358,7.5,7.5    S35.682,197.246,31.54,197.246z"/>
	</g>
</g>















</svg>
