<?xml version="1.0" encoding="iso-8859-1"?>
<!-- Generator: Adobe Illustrator 21.0.0, SVG Export Plug-In . SVG Version: 6.00 Build 0)  -->
<svg xmlns="http://www.w3.org/2000/svg" xmlns:xlink="http://www.w3.org/1999/xlink" version="1.1" id="Capa_1" x="0px" y="0px" viewBox="0 0 512 512" style="enable-background:new 0 0 512 512;" xml:space="preserve" width="512" height="512">
<g>
	<path style="fill:#CCD2DB;" d="M434.152,289.507H263.727v-60.048c0-4.267-3.459-7.727-7.727-7.727   c-4.267,0-7.727,3.459-7.727,7.727v60.048H77.848c-8.062,0-14.621,6.946-14.621,15.484v71.45c0,4.267,3.459,7.727,7.727,7.727   c4.267,0,7.727-3.459,7.727-7.727v-71.45c0-0.011,0-0.021,0.001-0.031h169.592v71.48c0,4.267,3.459,7.727,7.727,7.727   c4.267,0,7.727-3.459,7.727-7.727v-71.48h169.591c0.001,0.01,0.001,0.02,0.001,0.031v71.45c0,4.267,3.459,7.727,7.727,7.727   s7.727-3.459,7.727-7.727v-71.45C448.772,296.453,442.214,289.507,434.152,289.507z"/>
	<path style="fill:#54A0FF;" d="M373.558,31.95H138.442c-7.184,0-13.062,5.878-13.062,13.062v179.603   c0,7.184,5.878,13.062,13.062,13.062h235.117c7.184,0,13.062-5.878,13.062-13.062V45.012   C386.62,37.827,380.743,31.95,373.558,31.95z"/>
	<path style="fill:#FECA57;" d="M319.859,368.297H192.141c-3.903,0-7.095,3.193-7.095,7.095v97.562c0,3.903,3.193,7.095,7.095,7.095   h127.718c3.903,0,7.095-3.193,7.095-7.095v-97.562C326.954,371.49,323.761,368.297,319.859,368.297z"/>
	<path style="fill:#1DD1A1;" d="M504.905,368.297H377.187c-3.903,0-7.095,3.193-7.095,7.095v97.562c0,3.903,3.193,7.095,7.095,7.095   h127.718c3.903,0,7.095-3.193,7.095-7.095v-97.562C512,371.49,508.807,368.297,504.905,368.297z"/>
	<path style="fill:#FF6B6B;" d="M134.813,368.297H7.095c-3.903,0-7.095,3.193-7.095,7.095v97.562c0,3.903,3.193,7.095,7.095,7.095   h127.718c3.903,0,7.095-3.193,7.095-7.095v-97.562C141.909,371.49,138.716,368.297,134.813,368.297z"/>
	<path style="fill:#338DEF;" d="M156.335,224.615V45.012c0-7.184,5.878-13.062,13.062-13.062h-30.955   c-7.184,0-13.062,5.878-13.062,13.062v179.603c0,7.184,5.878,13.062,13.062,13.062h30.955   C162.213,237.677,156.335,231.799,156.335,224.615z"/>
	<path style="fill:#F4B537;" d="M216.001,472.955v-97.562c0-3.903,3.193-7.096,7.096-7.096h-30.955   c-3.903,0-7.096,3.193-7.096,7.096v97.562c0,3.902,3.193,7.095,7.096,7.095h30.955C219.193,480.05,216.001,476.857,216.001,472.955   z"/>
	<path style="fill:#15BA8B;" d="M401.046,472.955v-97.562c0-3.903,3.193-7.096,7.095-7.096h-30.955   c-3.903,0-7.096,3.193-7.096,7.096v97.562c0,3.902,3.193,7.095,7.096,7.095h30.955C404.239,480.05,401.046,476.857,401.046,472.955   z"/>
	<path style="fill:#EE5253;" d="M30.955,472.955v-97.562c0-3.903,3.193-7.096,7.096-7.096H7.095c-3.902,0-7.095,3.193-7.095,7.096   v97.562c0,3.902,3.193,7.095,7.095,7.095h30.955C34.148,480.05,30.955,476.857,30.955,472.955z"/>
	<g>
		<path style="fill:#338DEF;" d="M345.257,89.113H166.742c-4.267,0-7.727-3.459-7.727-7.727s3.459-7.727,7.727-7.727h178.515    c4.267,0,7.727,3.459,7.727,7.727S349.525,89.113,345.257,89.113z"/>
	</g>
	<g>
		<path style="fill:#338DEF;" d="M345.257,124.731H166.742c-4.267,0-7.727-3.459-7.727-7.727s3.459-7.727,7.727-7.727h178.515    c4.267,0,7.727,3.459,7.727,7.727S349.525,124.731,345.257,124.731z"/>
	</g>
	<g>
		<path style="fill:#338DEF;" d="M345.257,160.349H166.742c-4.267,0-7.727-3.459-7.727-7.727c0-4.267,3.459-7.727,7.727-7.727    h178.515c4.267,0,7.727,3.459,7.727,7.727C352.984,156.89,349.525,160.349,345.257,160.349z"/>
	</g>
	<g>
		<path style="fill:#338DEF;" d="M345.257,195.968H166.742c-4.267,0-7.727-3.459-7.727-7.727c0-4.267,3.459-7.727,7.727-7.727    h178.515c4.267,0,7.727,3.459,7.727,7.727C352.984,192.508,349.525,195.968,345.257,195.968z"/>
	</g>
	<g>
		<path style="fill:#E4EAF8;" d="M425.892,442.158l-10.333-10.885c-2.938-3.095-2.811-7.985,0.284-10.924    c3.095-2.937,7.985-2.811,10.924,0.284l4.933,5.197l23.826-23.307c3.051-2.984,7.943-2.93,10.927,0.12    c2.984,3.051,2.93,7.943-0.12,10.927l-29.433,28.792C433.808,445.385,428.852,445.277,425.892,442.158z"/>
	</g>
	<g>
		<path style="fill:#E4EAF8;" d="M240.846,442.158l-10.333-10.885c-2.938-3.095-2.811-7.985,0.284-10.924    c3.095-2.937,7.985-2.811,10.924,0.284l4.933,5.197l23.827-23.307c3.05-2.984,7.943-2.93,10.927,0.12    c2.984,3.051,2.93,7.943-0.12,10.927l-29.434,28.792C248.762,445.385,243.806,445.277,240.846,442.158z"/>
	</g>
	<g>
		<path style="fill:#E4EAF8;" d="M55.801,442.158l-10.333-10.885c-2.938-3.095-2.811-7.985,0.284-10.924    c3.096-2.937,7.986-2.811,10.924,0.284l4.933,5.197l23.826-23.307c3.05-2.984,7.943-2.93,10.927,0.12    c2.984,3.051,2.93,7.943-0.12,10.927l-29.433,28.792C63.716,445.385,58.761,445.277,55.801,442.158z"/>
	</g>
</g>















</svg>
