<?xml version="1.0" encoding="iso-8859-1"?>
<!-- Generator: Adobe Illustrator 21.0.0, SVG Export Plug-In . SVG Version: 6.00 Build 0)  -->
<svg xmlns="http://www.w3.org/2000/svg" xmlns:xlink="http://www.w3.org/1999/xlink" version="1.1" id="Capa_1" x="0px" y="0px" viewBox="0 0 512 512" style="enable-background:new 0 0 512 512;" xml:space="preserve" width="512" height="512">
<g>
	<path style="fill:#CCD2DB;" d="M473.966,334.65c-4.267,0-7.726-3.459-7.726-7.726V105.667c0-4.267,3.459-7.726,7.726-7.726   s7.726,3.459,7.726,7.726v221.257C481.692,331.191,478.233,334.65,473.966,334.65z"/>
	<path style="fill:#CCD2DB;" d="M38.035,334.65c-4.267,0-7.726-3.459-7.726-7.726V105.667c0-4.267,3.459-7.726,7.726-7.726   s7.726,3.459,7.726,7.726v221.257C45.762,331.191,42.302,334.65,38.035,334.65z"/>
	<path style="fill:#FF6B6B;" d="M245.229,6.673l-60.667,121.335H327.44L266.772,6.673C262.334-2.203,249.668-2.204,245.229,6.673z"/>
	<path style="fill:#EE5253;" d="M215.467,128.008l55.986-111.973l-4.681-9.362c-4.438-8.876-17.104-8.877-21.543,0l-60.667,121.335   H215.467L215.467,128.008z"/>
	<polygon style="fill:#FECA57;" points="120.565,256 391.436,256 327.44,128.008 184.561,128.008  "/>
	<polygon style="fill:#F4B537;" points="215.467,128.008 184.561,128.008 120.565,256 151.471,256  "/>
	<polygon style="fill:#FF6B6B;" points="56.569,383.993 455.432,383.993 391.436,256 120.565,256  "/>
	<polygon style="fill:#EE5253;" points="151.471,256 120.565,256 56.569,383.993 87.474,383.993  "/>
	<path style="fill:#FECA57;" d="M510.714,494.556l-55.282-110.564H56.569L1.287,494.556c-4.004,8.007,1.819,17.429,10.772,17.429   h487.883C508.895,511.985,514.717,502.564,510.714,494.556z"/>
	<path style="fill:#F4B537;" d="M32.193,494.556l55.282-110.564H56.569L1.287,494.556c-4.004,8.007,1.819,17.429,10.772,17.429   h30.906C34.012,511.985,28.189,502.564,32.193,494.556z"/>
	<path style="fill:#CCD2DB;" d="M499.557,109.18l-23.01-37.602c-1.063-1.737-4.098-1.737-5.161,0l-23.01,37.602   c-0.959,1.567,0.436,3.411,2.581,3.411h46.021C499.121,112.591,500.516,110.747,499.557,109.18z"/>
	<path style="fill:#BCC2CC;" d="M468.978,109.18l15.289-24.984l-7.721-12.618c-1.063-1.737-4.097-1.737-5.161,0l-23.01,37.602   c-0.959,1.567,0.436,3.411,2.581,3.411h20.604C469.414,112.591,468.019,110.747,468.978,109.18z"/>
	<path style="fill:#CCD2DB;" d="M63.626,109.18l-23.01-37.602c-1.063-1.737-4.098-1.737-5.161,0l-23.01,37.602   c-0.959,1.567,0.436,3.411,2.581,3.411h46.021C63.19,112.591,64.585,110.747,63.626,109.18z"/>
	<path style="fill:#BCC2CC;" d="M33.048,109.18l15.289-24.985l-7.721-12.618c-1.063-1.737-4.098-1.737-5.161,0l-23.01,37.602   c-0.959,1.567,0.436,3.411,2.58,3.411h20.604C33.484,112.591,32.089,110.747,33.048,109.18z"/>
</g>















</svg>
