<?xml version="1.0" encoding="iso-8859-1"?>
<!-- Generator: Adobe Illustrator 21.0.0, SVG Export Plug-In . SVG Version: 6.00 Build 0)  -->
<svg xmlns="http://www.w3.org/2000/svg" xmlns:xlink="http://www.w3.org/1999/xlink" version="1.1" id="Capa_1" x="0px" y="0px" viewBox="0 0 512 512" style="enable-background:new 0 0 512 512;" xml:space="preserve" width="512" height="512">
<g>
	<path style="fill:#FECA57;" d="M382.921,391.477l-37.464-276.75c-7.853,0-171.062,0-178.915,0l-37.464,276.75H382.921z"/>
	<path style="fill:#F4B537;" d="M166.543,114.728l-37.464,276.75h30.907l37.464-276.75   C180.535,114.728,168.535,114.728,166.543,114.728z"/>
	<path style="fill:#F4B537;" d="M350.72,153.599l-5.262-38.871c-7.853,0-171.062,0-178.915,0l-5.262,38.871H350.72z"/>
	<path style="fill:#E59D1F;" d="M192.188,153.599l5.262-38.871c-16.915,0-28.915,0-30.907,0l-5.262,38.871H192.188z"/>
	<path style="fill:#FECA57;" d="M395.482,0h-17.09c-7.05,0-12.818,5.768-12.818,12.818V57.68c0,4.129-3.347,7.477-7.477,7.477   h-29.611c-4.13,0-7.477-3.348-7.477-7.477V12.818c0-7.05-5.768-12.818-12.818-12.818h-17.09c-7.05,0-12.818,5.768-12.818,12.818   V57.68c0,4.129-3.347,7.477-7.477,7.477h-29.612c-4.13,0-7.477-3.348-7.477-7.477V12.818c0-7.05-5.768-12.818-12.818-12.818h-17.09   c-7.05,0-12.818,5.768-12.818,12.818V57.68c0,4.129-3.347,7.477-7.477,7.477h-29.611c-4.13,0-7.477-3.348-7.477-7.477V12.818   c0-7.05-5.768-12.818-12.818-12.818h-17.09c-7.05,0-12.818,5.768-12.818,12.818v90.081c0,7.05,5.768,12.818,12.818,12.818   c15.683,0,265.758,0,278.965,0c7.05,0,12.818-5.768,12.818-12.818V12.818C408.3,5.768,402.532,0,395.482,0z"/>
	<g>
		<path style="fill:#F4B537;" d="M359.393,65.157h29.611c4.13,0,7.477-3.348,7.477-7.477V12.818c0-4.508,2.365-8.484,5.909-10.77    C400.393,0.758,398.024,0,395.482,0h-17.09c-7.05,0-12.818,5.768-12.818,12.818V57.68c0,3.91-3.003,7.115-6.829,7.444    C358.959,65.143,359.175,65.157,359.393,65.157z"/>
		<path style="fill:#F4B537;" d="M272.101,65.157h29.612c4.13,0,7.477-3.348,7.477-7.477V12.818c0-4.508,2.365-8.484,5.909-10.77    C313.102,0.758,310.733,0,308.191,0h-17.09c-7.05,0-12.818,5.768-12.818,12.818V57.68c0,3.911-3.004,7.115-6.829,7.444    C271.668,65.143,271.883,65.157,272.101,65.157z"/>
		<path style="fill:#F4B537;" d="M184.811,65.157h29.611c4.13,0,7.477-3.348,7.477-7.477V12.818c0-4.508,2.365-8.484,5.909-10.77    C225.81,0.758,223.441,0,220.899,0h-17.091c-7.05,0-12.818,5.768-12.818,12.818V57.68c0,3.91-3.003,7.115-6.829,7.444    C184.376,65.143,184.592,65.157,184.811,65.157z"/>
		<path style="fill:#F4B537;" d="M134.607,102.898V12.818c0-4.508,2.365-8.484,5.909-10.77C138.518,0.758,136.15,0,133.608,0h-17.09    c-7.05,0-12.818,5.768-12.818,12.818v90.081c0,7.05,5.768,12.818,12.818,12.818c2.968,0,14.339,0,30.907,0    C140.375,115.716,134.607,109.948,134.607,102.898z"/>
	</g>
	<path style="fill:#F4B537;" d="M383.312,390.14H128.688c-6.696,0-12.125,5.429-12.125,12.125v26.419h278.875v-26.419   C395.437,395.568,390.009,390.14,383.312,390.14z"/>
	<path style="fill:#E59D1F;" d="M159.595,390.14h-30.907c-6.696,0-12.125,5.429-12.125,12.125v26.42h30.907v-26.42   C147.47,395.568,152.899,390.14,159.595,390.14z"/>
	<path style="fill:#338DEF;" d="M413.018,427.654H98.982c-8.259,0-14.954,6.695-14.954,14.954v35.675h343.944v-35.675   C427.972,434.349,421.277,427.654,413.018,427.654z"/>
	<path style="fill:#1C78D3;" d="M129.889,427.654H98.982c-8.259,0-14.954,6.695-14.954,14.954v35.675h30.907v-35.675   C114.935,434.349,121.63,427.654,129.889,427.654z"/>
	<path style="fill:#54A0FF;" d="M437.051,476.222H74.949c-7.05,0-12.818,5.768-12.818,12.818v10.142   c0,7.05,5.768,12.818,12.818,12.818h362.103c7.05,0,12.818-5.768,12.818-12.818V489.04   C449.869,481.99,444.101,476.222,437.051,476.222z"/>
	<path style="fill:#338DEF;" d="M93.038,499.182V489.04c0-7.05,5.768-12.818,12.818-12.818H74.948   c-7.05,0-12.818,5.768-12.818,12.818v10.142c0,7.05,5.768,12.818,12.818,12.818h30.907C98.806,512,93.038,506.232,93.038,499.182z"/>
</g>















</svg>
