<?xml version="1.0" encoding="iso-8859-1"?>
<!-- Generator: Adobe Illustrator 21.0.0, SVG Export Plug-In . SVG Version: 6.00 Build 0)  -->
<svg xmlns="http://www.w3.org/2000/svg" xmlns:xlink="http://www.w3.org/1999/xlink" version="1.1" id="Capa_1" x="0px" y="0px" viewBox="0 0 511.999 511.999" style="enable-background:new 0 0 511.999 511.999;" xml:space="preserve" width="512" height="512">
<g>
	<path style="fill:#CCD2DB;" d="M428.576,336.672h-164.85v-44.479c0-4.268-3.459-7.727-7.727-7.727s-7.727,3.459-7.727,7.727v44.479   H83.423c-9.023,0-16.364,7.34-16.364,16.363v47.493c0,4.268,3.459,7.727,7.727,7.727s7.727-3.459,7.727-7.727v-47.493   c0-0.501,0.408-0.91,0.91-0.91h164.85v48.402c0,4.268,3.459,7.727,7.727,7.727s7.727-3.459,7.727-7.727v-48.402h164.85   c0.502,0,0.91,0.408,0.91,0.91v47.493c0,4.268,3.459,7.727,7.727,7.727s7.727-3.459,7.727-7.727v-47.493   C444.94,344.012,437.599,336.672,428.576,336.672z"/>
	<path style="fill:#3E4B5A;" d="M256.644,0c-33.585,0-60.809,27.225-60.809,60.81v25.167c4.064-3.767,9.846-5.815,15.49-5.061v-3.03   c0-2.409,2.057-4.312,4.442-4.131c23.511,1.689,47.438-5.782,65.529-17.6c1.689-1.104,3.925-0.829,5.298,0.646   c15.467,16.625,15.373,15.982,15.373,18.152v5.95c6.186-0.927,11.674,0.985,15.487,4.529V60.81C317.453,27.225,290.229,0,256.644,0   z"/>
	<g>
		<path style="fill:#303F49;" d="M226.742,60.81c0-28.244,19.256-51.985,45.356-58.823C267.163,0.694,261.985,0,256.644,0    c-33.585,0-60.809,27.225-60.809,60.81v25.167c4.064-3.767,9.846-5.815,15.49-5.061v-3.03c0-2.409,2.057-4.312,4.441-4.131    c3.657,0.263,7.322,0.279,10.976,0.117V60.81z"/>
	</g>
	<path style="fill:#FFBEAB;" d="M249.699,167.886c2.452-0.951,4.069-3.311,4.069-5.942v-8.604   c-8.373-0.564-15.791-3.125-21.995-7.09v18.993c0,1.699-0.681,3.279-1.82,4.445L249.699,167.886z"/>
	<path style="fill:#FFBEAB;" d="M223.534,182.338c19.382,20.594,46.782,20.594,66.165,0l6.882-7.313l-10.122-3.92   c-2.33-0.903-3.867-3.145-3.867-5.644v-19.884c-7.198,4.965-15.914,7.882-25.3,7.882c-9.824,0-18.458-2.697-25.519-7.209v18.993   c0,2.631-1.617,4.991-4.069,5.942l-10.745,4.166L223.534,182.338z"/>
	<path style="fill:#F7AF9F;" d="M253.769,153.339c-8.373-0.564-15.791-3.125-21.995-7.09v18.993c0,2.631-1.617,4.991-4.069,5.942   l-10.745,4.166l6.576,6.987c8.904,9.461,19.501,14.563,30.234,15.331V153.339z"/>
	<path style="fill:#FFBEAB;" d="M301.061,78.189V111.5c0,0.361-0.019,0.718-0.028,1.077c11.788,1.785,21.926-6.732,21.926-17.193   C322.959,84.903,312.814,76.427,301.061,78.189z"/>
	<path style="fill:#FFBEAB;" d="M212.23,111.5V78.202c-10.263-1.371-21.898,6.506-21.898,17.183   c0,10.447,10.117,18.98,21.925,17.193C212.247,112.218,212.23,111.86,212.23,111.5z"/>
	<path style="fill:#F7AF9F;" d="M315.175,81.301c-3.862-2.609-8.819-3.906-14.114-3.112V111.5c0,0.361-0.019,0.718-0.027,1.077   c5.311,0.804,10.277-0.496,14.141-3.109V81.301z"/>
	<path style="fill:#F7AF9F;" d="M212.23,109.47c-4.716-3.19-7.785-8.342-7.785-14.086c0-5.624,3.23-10.468,7.785-13.596v-3.587   c-10.263-1.37-21.899,6.506-21.899,17.183c0,10.447,10.117,18.98,21.925,17.193c-0.009-0.359-0.026-0.717-0.026-1.077V109.47z"/>
	<path style="fill:#FFCDBF;" d="M286.593,54.086c-1.373-1.475-3.609-1.75-5.298-0.646c-18.091,11.818-42.018,19.289-65.529,17.6   c-2.385-0.181-4.442,1.722-4.442,4.131V111.5c0,23.348,18.295,44.674,45.967,44.674c24.634,0,44.674-20.041,44.674-44.674V72.239   C301.966,70.068,302.06,70.711,286.593,54.086z"/>
	<path style="fill:#FFBEAB;" d="M242.232,111.5V69.293c-8.657,1.714-17.591,2.385-26.466,1.747   c-2.385-0.181-4.442,1.722-4.442,4.131V111.5c0,23.348,18.295,44.674,45.967,44.674c5.254,0,10.296-0.919,14.983-2.593   C253.731,147.227,242.232,130.005,242.232,111.5z"/>
	<path style="fill:#FECA57;" d="M349.812,195.64l-54.567-21.132l-7.032,7.472c-18.496,19.652-44.643,19.653-63.138,0l-6.741-7.162   l-53.711,20.823c0,0-24.862,10.221-24.862,38.563v62.901c0,3.194,2.59,5.783,5.783,5.783h223.396c3.166,0,5.733-2.567,5.733-5.733   v-62.951C374.674,205.861,349.812,195.64,349.812,195.64z"/>
	<g>
		<path style="fill:#F4B537;" d="M170.669,218.75c0-14.665,6.655-24.468,13.08-30.524l-19.125,7.414    c0,0-24.862,10.221-24.862,38.563v62.901c0,3.194,2.59,5.783,5.784,5.783h25.124V218.75z"/>
	</g>
	<g>
		<path style="fill:#F4B537;" d="M189.906,302.888V243.61c0-4.268-3.459-7.727-7.727-7.727s-7.727,3.459-7.727,7.727v59.278H189.906    z"/>
		<path style="fill:#F4B537;" d="M339.984,302.888V243.61c0-4.268-3.459-7.727-7.727-7.727s-7.727,3.459-7.727,7.727v59.278H339.984    z"/>
	</g>
	<path style="fill:#54A0FF;" d="M121.083,511.999H28.489c-6.6,0-12-5.4-12-12v-102.09c0-6.6,5.4-12,12-12h92.594c6.6,0,12,5.4,12,12   v102.09C133.083,506.599,127.683,511.999,121.083,511.999z"/>
	<path style="fill:#1DD1A1;" d="M302.297,511.999h-92.594c-6.6,0-12-5.4-12-12v-102.09c0-6.6,5.4-12,12-12h92.594   c6.6,0,12,5.4,12,12v102.09C314.297,506.599,308.897,511.999,302.297,511.999z"/>
	<path style="fill:#FF6B6B;" d="M483.51,511.999h-92.594c-6.6,0-12-5.4-12-12v-102.09c0-6.6,5.4-12,12-12h92.594c6.6,0,12,5.4,12,12   v102.09C495.51,506.599,490.11,511.999,483.51,511.999z"/>
	<path style="fill:#338DEF;" d="M47.396,499.636V398.272c0-6.8,5.563-12.363,12.363-12.363H28.852   c-6.8,0-12.363,5.563-12.363,12.363v101.364c0,6.8,5.563,12.363,12.363,12.363h30.907C52.96,511.999,47.396,506.436,47.396,499.636   z"/>
	<path style="fill:#15BA8B;" d="M228.61,499.636V398.272c0-6.8,5.563-12.363,12.363-12.363h-30.907   c-6.8,0-12.363,5.563-12.363,12.363v101.364c0,6.8,5.563,12.363,12.363,12.363h30.907   C234.173,511.999,228.61,506.436,228.61,499.636z"/>
	<path style="fill:#EE5253;" d="M409.823,499.636V398.272c0-6.8,5.563-12.363,12.363-12.363h-30.907   c-6.8,0-12.363,5.563-12.363,12.363v101.364c0,6.8,5.563,12.363,12.363,12.363h30.907   C415.387,511.999,409.823,506.436,409.823,499.636z"/>
	<g>
		<path style="fill:#338DEF;" d="M106.44,427.117H43.132c-4.267,0-7.727-3.459-7.727-7.727c0-4.268,3.459-7.727,7.727-7.727h63.308    c4.267,0,7.727,3.459,7.727,7.727C114.167,423.658,110.708,427.117,106.44,427.117z"/>
	</g>
	<g>
		<path style="fill:#338DEF;" d="M106.44,456.68H43.132c-4.267,0-7.727-3.459-7.727-7.727c0-4.268,3.459-7.727,7.727-7.727h63.308    c4.267,0,7.727,3.459,7.727,7.727C114.167,453.221,110.708,456.68,106.44,456.68z"/>
	</g>
	<g>
		<path style="fill:#338DEF;" d="M106.44,486.245H43.132c-4.267,0-7.727-3.459-7.727-7.727c0-4.268,3.459-7.727,7.727-7.727h63.308    c4.267,0,7.727,3.459,7.727,7.727C114.167,482.786,110.708,486.245,106.44,486.245z"/>
	</g>
	<g>
		<path style="fill:#15BA8B;" d="M287.654,427.117h-63.308c-4.267,0-7.727-3.459-7.727-7.727c0-4.268,3.459-7.727,7.727-7.727    h63.308c4.267,0,7.727,3.459,7.727,7.727C295.38,423.658,291.921,427.117,287.654,427.117z"/>
	</g>
	<g>
		<path style="fill:#15BA8B;" d="M287.654,456.68h-63.308c-4.267,0-7.727-3.459-7.727-7.727c0-4.268,3.459-7.727,7.727-7.727h63.308    c4.267,0,7.727,3.459,7.727,7.727C295.38,453.221,291.921,456.68,287.654,456.68z"/>
	</g>
	<g>
		<path style="fill:#15BA8B;" d="M287.654,486.245h-63.308c-4.267,0-7.727-3.459-7.727-7.727c0-4.268,3.459-7.727,7.727-7.727    h63.308c4.267,0,7.727,3.459,7.727,7.727C295.38,482.786,291.921,486.245,287.654,486.245z"/>
	</g>
	<g>
		<path style="fill:#EE5253;" d="M468.867,427.117h-63.308c-4.267,0-7.727-3.459-7.727-7.727c0-4.268,3.459-7.727,7.727-7.727    h63.308c4.267,0,7.727,3.459,7.727,7.727C476.594,423.658,473.135,427.117,468.867,427.117z"/>
	</g>
	<g>
		<path style="fill:#EE5253;" d="M468.867,456.68h-63.308c-4.267,0-7.727-3.459-7.727-7.727c0-4.268,3.459-7.727,7.727-7.727h63.308    c4.267,0,7.727,3.459,7.727,7.727C476.594,453.221,473.135,456.68,468.867,456.68z"/>
	</g>
	<g>
		<path style="fill:#EE5253;" d="M468.867,486.245h-63.308c-4.267,0-7.727-3.459-7.727-7.727c0-4.268,3.459-7.727,7.727-7.727    h63.308c4.267,0,7.727,3.459,7.727,7.727C476.594,482.786,473.135,486.245,468.867,486.245z"/>
	</g>
</g>















</svg>
