<?xml version="1.0" encoding="iso-8859-1"?>
<!-- Generator: Adobe Illustrator 21.0.0, SVG Export Plug-In . SVG Version: 6.00 Build 0)  -->
<svg xmlns="http://www.w3.org/2000/svg" xmlns:xlink="http://www.w3.org/1999/xlink" version="1.1" id="Capa_1" x="0px" y="0px" viewBox="0 0 511.969 511.969" style="enable-background:new 0 0 511.969 511.969;" xml:space="preserve" width="512" height="512">
<g>
	<path style="fill:#FF6B6B;" d="M145.433,481.194V227.805c0-6.912,5.604-12.516,12.516-12.516h70.46   c6.912,0,12.516,5.604,12.516,12.516v253.389H145.433z"/>
	<path style="fill:#FF6B6B;" d="M19.821,481.194V148.707c0-6.912,5.604-12.516,12.516-12.516h70.46   c6.912,0,12.516,5.604,12.516,12.516v332.487H19.821z"/>
	<path style="fill:#FF6B6B;" d="M396.655,481.194v-95.192c0-6.912,5.604-12.516,12.516-12.516h70.46   c6.912,0,12.516,5.603,12.516,12.516v95.192H396.655z"/>
	<path style="fill:#FF6B6B;" d="M271.044,481.194v-174.29c0-6.912,5.604-12.516,12.516-12.516h70.46   c6.912,0,12.516,5.604,12.516,12.516v174.29H271.044z"/>
	<path style="fill:#CCD2DB;" d="M452.083,293.463l-43.092,0.924c-3.802,0.082-6.131-4.139-4.036-7.312l7.852-11.891L59.877,42.112   c-4.732-3.125-6.035-9.495-2.91-14.227s9.494-6.035,14.227-2.91l352.931,233.072l7.853-11.891c2.095-3.173,6.892-2.688,8.31,0.84   l16.07,39.994C457.586,290.049,455.379,293.392,452.083,293.463z"/>
	<path style="fill:#EE5253;" d="M187.948,215.29h-30c-6.912,0-12.516,5.604-12.516,12.516v253.389h30V227.805   C175.433,220.893,181.036,215.29,187.948,215.29z"/>
	<path style="fill:#EE5253;" d="M62.337,136.191h-30c-6.912,0-12.516,5.604-12.516,12.516v332.487h30V148.707   C49.821,141.795,55.425,136.191,62.337,136.191z"/>
	<path style="fill:#EE5253;" d="M439.171,373.487h-30c-6.912,0-12.516,5.604-12.516,12.516v95.192h30v-95.192   C426.655,379.09,432.259,373.487,439.171,373.487z"/>
	<path style="fill:#EE5253;" d="M313.56,294.388h-30c-6.912,0-12.516,5.604-12.516,12.516v174.29h30v-174.29   C301.044,299.992,306.647,294.388,313.56,294.388z"/>
	<g>
		<path style="fill:#EE5253;" d="M504.469,488.694H7.5c-4.142,0-7.5-3.357-7.5-7.5s3.358-7.5,7.5-7.5h496.969    c4.142,0,7.5,3.357,7.5,7.5S508.611,488.694,504.469,488.694z"/>
	</g>
</g>















</svg>
