<?xml version="1.0" encoding="iso-8859-1"?>
<!-- Generator: Adobe Illustrator 21.0.0, SVG Export Plug-In . SVG Version: 6.00 Build 0)  -->
<svg xmlns="http://www.w3.org/2000/svg" xmlns:xlink="http://www.w3.org/1999/xlink" version="1.1" id="Capa_1" x="0px" y="0px" viewBox="0 0 512 512" style="enable-background:new 0 0 512 512;" xml:space="preserve" width="512" height="512">
<g>
	<path style="fill:#576574;" d="M210.792,471.712v25.157c0,8.322,6.759,15.131,15.019,15.131h60.377   c8.261,0,15.019-6.809,15.019-15.131v-25.157H210.792z"/>
	<path style="fill:#3E4B5A;" d="M242.39,496.869v-25.157h-31.598v25.157c0,8.322,6.758,15.131,15.019,15.131h31.598   C249.149,512,242.39,505.191,242.39,496.869z"/>
	<path style="fill:#FECA57;" d="M258.402,0.017C161.876-1.292,83.369,75.336,82.448,171.866   c-0.466,48.832,19.241,93.059,51.291,124.868c17.535,17.403,30.508,38.863,38.453,62.256l14.42,42.458   c0.792-0.13,1.6-0.216,2.428-0.216h133.922c0.828,0,1.635,0.085,2.428,0.216l14.421-42.463   c7.979-23.493,21.099-44.965,38.677-62.475c31.546-31.424,51.073-74.903,51.073-122.949C429.56,78.508,353.149,1.302,258.402,0.017   z"/>
	<g>
		<path style="fill:#F4B537;" d="M203.099,358.991c-7.945-23.393-20.918-44.853-38.453-62.256    c-32.05-31.81-51.757-76.036-51.29-124.868C114.219,81.387,183.246,8.393,271.385,0.675c-4.285-0.376-8.614-0.6-12.982-0.659    C161.876-1.292,83.369,75.336,82.448,171.866c-0.466,48.832,19.241,93.059,51.29,124.868    c17.535,17.403,30.508,38.863,38.453,62.256l14.42,42.458c0.792-0.131,1.599-0.216,2.427-0.216h28.406L203.099,358.991z"/>
		<path style="fill:#F4B537;" d="M322.961,401.232c0.828,0,1.635,0.085,2.428,0.216l0.073-0.216H322.961z"/>
	</g>
	<g>
		<path style="fill:#FECA57;" d="M455.337,113.162c-3.058-2.976-3.124-7.868-0.147-10.926l24.955-25.637    c2.977-3.058,7.869-3.125,10.927-0.147c3.058,2.976,3.124,7.868,0.147,10.926l-24.955,25.637    C463.286,116.073,458.394,116.139,455.337,113.162z"/>
	</g>
	<g>
		<path style="fill:#FECA57;" d="M480.145,272.947L455.19,247.31c-2.977-3.058-2.911-7.95,0.147-10.926    c3.058-2.976,7.95-2.913,10.927,0.147l24.954,25.636c2.977,3.058,2.911,7.95-0.147,10.926    C488.011,276.072,483.118,276.003,480.145,272.947z"/>
	</g>
	<g>
		<path style="fill:#FECA57;" d="M494.317,182.499h-24.955c-4.267,0-7.727-3.459-7.727-7.727c0-4.268,3.459-7.727,7.727-7.727    h24.955c4.267,0,7.727,3.459,7.727,7.727C502.044,179.04,498.585,182.499,494.317,182.499z"/>
	</g>
	<g>
		<path style="fill:#FECA57;" d="M45.752,113.017L20.787,87.38c-2.978-3.058-2.913-7.949,0.145-10.926    c3.057-2.978,7.949-2.914,10.926,0.145l24.965,25.637c2.978,3.058,2.913,7.949-0.145,10.926    C53.62,116.14,48.727,116.074,45.752,113.017z"/>
	</g>
	<g>
		<path style="fill:#FECA57;" d="M20.931,273.094c-3.058-2.977-3.122-7.869-0.145-10.926l24.965-25.636    c2.978-3.058,7.869-3.122,10.926-0.145c3.058,2.977,3.122,7.869,0.145,10.926l-24.965,25.636    C28.882,276.006,23.989,276.072,20.931,273.094z"/>
	</g>
	<g>
		<path style="fill:#FECA57;" d="M42.649,182.5H17.683c-4.267,0-7.727-3.459-7.727-7.727c0-4.268,3.459-7.727,7.727-7.727h24.966    c4.267,0,7.727,3.459,7.727,7.727C50.375,179.041,46.916,182.5,42.649,182.5z"/>
	</g>
	<g>
		<path style="fill:#E59D1F;" d="M280.79,382.055c-4.267,0-7.727-3.506-7.727-7.831c0-62.87,13.458-103.34,14.031-105.033    c1.385-4.091,5.783-6.27,9.816-4.865c4.035,1.403,6.184,5.855,4.802,9.944c-0.17,0.506-13.195,39.98-13.195,99.954    C288.517,378.55,285.058,382.055,280.79,382.055z"/>
	</g>
	<g>
		<path style="fill:#E59D1F;" d="M231.21,382.055c-4.267,0-7.727-3.506-7.727-7.831c0-60.061-13.064-99.563-13.197-99.956    c-1.377-4.09,0.775-8.542,4.811-9.941c4.034-1.399,8.425,0.777,9.808,4.864c0.573,1.693,14.031,42.163,14.031,105.033    C238.937,378.55,235.477,382.055,231.21,382.055z"/>
	</g>
	<path style="fill:#F4B537;" d="M287.595,374.328h-63.19c-7.487,0-13.613,6.126-13.613,13.613v13.292h90.415v-13.292   C301.208,380.454,295.082,374.328,287.595,374.328z"/>
	<path style="fill:#E59D1F;" d="M254.972,374.328h-30.567c-7.487,0-13.613,6.126-13.613,13.613v13.292h30.567v-13.292   C241.36,380.454,247.485,374.328,254.972,374.328z"/>
	<path style="fill:#CCD2DB;" d="M322.961,400.407H189.039c-8.261,0-15.019,6.809-15.019,15.131v6.935   c0,8.322,6.759,15.131,15.019,15.131h133.922c8.261,0,15.019-6.809,15.019-15.131v-6.935   C337.98,407.216,331.222,400.407,322.961,400.407z"/>
	<path style="fill:#E4EAF8;" d="M322.961,437.389H189.039c-8.261,0-15.019,6.849-15.019,15.219v6.975   c0,8.371,6.759,15.219,15.019,15.219h133.922c8.261,0,15.019-6.849,15.019-15.219v-6.975   C337.98,444.238,331.222,437.389,322.961,437.389z"/>
	<path style="fill:#BCC2CC;" d="M322.961,417H189.039c-5.821,0-10.883-3.388-13.373-8.296c-1.044,2.058-1.646,4.377-1.646,6.835   v6.935c0,8.322,6.759,15.131,15.019,15.131h133.922c8.261,0,15.019-6.809,15.019-15.131v-6.935c0-2.458-0.602-4.777-1.646-6.835   C333.844,413.612,328.782,417,322.961,417z"/>
	<path style="fill:#CCD2DB;" d="M322.961,454.198H189.039c-5.844,0-10.922-3.435-13.402-8.404c-1.025,2.055-1.617,4.366-1.617,6.815   v6.975c0,8.371,6.759,15.219,15.019,15.219h133.922c8.261,0,15.019-6.849,15.019-15.219v-6.975c0-2.449-0.592-4.76-1.617-6.815   C333.884,450.762,328.805,454.198,322.961,454.198z"/>
	<path style="fill:#F4B537;" d="M307.647,236.278H204.353c-8.261,0-15.019,6.759-15.019,15.019v6.884   c0,8.261,6.759,15.019,15.019,15.019h103.294c8.261,0,15.019-6.759,15.019-15.019v-6.884   C322.666,243.037,315.907,236.278,307.647,236.278z"/>
	<path style="fill:#E59D1F;" d="M307.647,252.655H204.353c-5.802,0-10.852-3.341-13.351-8.188c-1.059,2.054-1.668,4.373-1.668,6.831   v6.884c0,8.261,6.758,15.019,15.019,15.019h103.294c8.261,0,15.019-6.759,15.019-15.019v-6.884c0-2.458-0.61-4.777-1.668-6.831   C318.499,249.314,313.449,252.655,307.647,252.655z"/>
</g>















</svg>
