<?xml version="1.0" encoding="iso-8859-1"?>
<!-- Generator: Adobe Illustrator 21.0.0, SVG Export Plug-In . SVG Version: 6.00 Build 0)  -->
<svg xmlns="http://www.w3.org/2000/svg" xmlns:xlink="http://www.w3.org/1999/xlink" version="1.1" id="Capa_1" x="0px" y="0px" viewBox="0 0 512 512" style="enable-background:new 0 0 512 512;" xml:space="preserve" width="512" height="512">
<g>
	<path style="fill:#FFF6E9;" d="M354.726,0H73.143c-8.819,0-15.968,7.149-15.968,15.968v480.064c0,8.819,7.149,15.968,15.968,15.968   h365.714c8.819,0,15.968-7.149,15.968-15.968V100.099L354.726,0z"/>
	<path style="fill:#F9E4C7;" d="M88.082,496.032V15.968C88.082,7.149,95.231,0,104.05,0H73.143c-8.819,0-15.968,7.149-15.968,15.968   v480.064c0,8.819,7.149,15.968,15.968,15.968h30.907C95.231,512,88.082,504.851,88.082,496.032z"/>
	<path style="fill:#F9E4C7;" d="M370.694,100.099h84.131L354.726,0v84.131C354.726,92.95,361.875,100.099,370.694,100.099z"/>
	<path style="fill:#F2D5B1;" d="M385.633,84.131V30.907L354.726,0v84.131c0,8.819,7.149,15.968,15.968,15.968h30.907   C392.782,100.099,385.633,92.95,385.633,84.131z"/>
	<g>
		<path style="fill:#FF6B6B;" d="M142.473,412.149h-7.344c-4.267,0-7.727-3.459-7.727-7.727s3.459-7.727,7.727-7.727h7.344    c4.267,0,7.727,3.459,7.727,7.727S146.741,412.149,142.473,412.149z"/>
	</g>
	<g>
		<path style="fill:#F9E4C7;" d="M230.593,412.149h-58.747c-4.267,0-7.727-3.459-7.727-7.727s3.459-7.727,7.727-7.727h58.747    c4.267,0,7.727,3.459,7.727,7.727S234.86,412.149,230.593,412.149z"/>
	</g>
	<g>
		<path style="fill:#F9E4C7;" d="M281.425,75.825h-58.747c-4.267,0-7.727-3.459-7.727-7.727s3.459-7.727,7.727-7.727h58.747    c4.267,0,7.727,3.459,7.727,7.727S285.693,75.825,281.425,75.825z"/>
	</g>
	<g>
		<path style="fill:#FECA57;" d="M142.473,445.927h-7.344c-4.267,0-7.727-3.459-7.727-7.727s3.459-7.727,7.727-7.727h7.344    c4.267,0,7.727,3.459,7.727,7.727S146.741,445.927,142.473,445.927z"/>
	</g>
	<g>
		<path style="fill:#F9E4C7;" d="M230.593,445.927h-58.747c-4.267,0-7.727-3.459-7.727-7.727s3.459-7.727,7.727-7.727h58.747    c4.267,0,7.727,3.459,7.727,7.727S234.86,445.927,230.593,445.927z"/>
	</g>
	<g>
		<path style="fill:#54A0FF;" d="M280.854,412.149h-7.344c-4.267,0-7.727-3.459-7.727-7.727s3.459-7.727,7.727-7.727h7.344    c4.267,0,7.727,3.459,7.727,7.727S285.122,412.149,280.854,412.149z"/>
	</g>
	<g>
		<path style="fill:#F9E4C7;" d="M368.974,412.149h-58.747c-4.267,0-7.727-3.459-7.727-7.727s3.459-7.727,7.727-7.727h58.747    c4.267,0,7.727,3.459,7.727,7.727S373.241,412.149,368.974,412.149z"/>
	</g>
	<g>
		<path style="fill:#1DD1A1;" d="M280.854,445.927h-7.344c-4.267,0-7.727-3.459-7.727-7.727s3.459-7.727,7.727-7.727h7.344    c4.267,0,7.727,3.459,7.727,7.727S285.122,445.927,280.854,445.927z"/>
	</g>
	<g>
		<path style="fill:#F9E4C7;" d="M368.974,445.927h-58.747c-4.267,0-7.727-3.459-7.727-7.727s3.459-7.727,7.727-7.727h58.747    c4.267,0,7.727,3.459,7.727,7.727S373.241,445.927,368.974,445.927z"/>
	</g>
	<path style="fill:#FF6B6B;" d="M253.613,243.447V134.254c-0.52-0.007-1.039-0.02-1.561-0.02   c-60.219,0-109.037,48.817-109.037,109.037c0,60.219,48.817,109.037,109.037,109.037c15.001,0,29.293-3.031,42.3-8.511   L253.613,243.447z"/>
	<path style="fill:#EE5253;" d="M173.923,243.271c0-50.351,32.198-93.175,77.125-109.024   c-59.756,0.54-108.033,49.14-108.033,109.024c0,59.884,48.276,108.484,108.033,109.024   C206.121,336.445,173.923,293.622,173.923,243.271z"/>
	<path style="fill:#FECA57;" d="M361.089,243.271c0-60.219-48.817-109.037-109.037-109.037v109.037H361.089z"/>
	<path style="fill:#54A0FF;" d="M361.089,243.271L361.089,243.271l-109.037,0l77.025,77.175   C348.853,300.708,361.089,273.419,361.089,243.271z"/>
	<path style="fill:#1DD1A1;" d="M329.077,320.445l-77.025-77.175l41.023,101.048C306.653,338.801,318.871,330.632,329.077,320.445   L329.077,320.445z"/>
</g>















</svg>
