<?xml version="1.0" encoding="iso-8859-1"?>
<!-- Generator: Adobe Illustrator 21.0.0, SVG Export Plug-In . SVG Version: 6.00 Build 0)  -->
<svg xmlns="http://www.w3.org/2000/svg" xmlns:xlink="http://www.w3.org/1999/xlink" version="1.1" id="Capa_1" x="0px" y="0px" viewBox="0 0 512 512" style="enable-background:new 0 0 512 512;" xml:space="preserve" width="512" height="512">
<g>
	<path style="fill:#FECA57;" d="M201.411,199.063c2.417-2.865,7.059-1.988,8.255,1.564c5.954,17.695,13.959,57.348-17.378,91.243   c-28.658,30.998-42.067,65.66-47.662,95.188h220.418l-12.49-240.109c0,0-9.861-101.896-127.206-111.251   c-4.064-0.324-7.898-2.074-10.717-5.02c-9.278-9.694-33.748-31.297-67.074-30.666c-2.768,0.052-4.685,2.788-3.76,5.397   l13.517,38.093c2.104,5.93,0.682,12.54-3.676,17.079l-46.125,48.046c-5.226,5.444-8.144,12.698-8.144,20.245   c0,7.753-3.08,15.188-8.562,20.671l-32.532,32.532c-9.096,9.096-7.943,24.16,2.432,31.766l23.273,17.062   c7.384,5.413,17.79,1.905,20.611-6.806c3.037-9.377,24.498-17.084,36.017-18.648C157.61,203.142,184.47,219.14,201.411,199.063z"/>
	<path style="fill:#F4B537;" d="M89.685,213.842c-10.375-7.606-11.528-22.67-2.432-31.766l32.532-32.532   c5.482-5.482,8.562-12.918,8.562-20.671c0-7.546,2.918-14.801,8.144-20.245l46.125-48.046c4.358-4.539,5.78-11.149,3.676-17.079   L172.776,5.41c-0.2-0.565-0.261-1.135-0.214-1.684c-7.603-2.414-15.975-3.884-25.005-3.713c-2.768,0.052-4.685,2.788-3.76,5.397   l13.517,38.093c2.104,5.93,0.682,12.54-3.676,17.079l-46.125,48.046c-5.226,5.444-8.144,12.698-8.144,20.245   c0,7.753-3.08,15.189-8.562,20.671l-32.532,32.532c-9.096,9.096-7.943,24.16,2.432,31.766l23.273,17.062   c7.231,5.301,17.341,2.033,20.406-6.284L89.685,213.842z"/>
	<circle style="fill:#3E4B5A;" cx="175.772" cy="117.752" r="12.467"/>
	<path style="fill:#F4B537;" d="M382.021,384.998H129.979c-6.628,0-12.002,5.373-12.002,12.002v26.151h276.046V397   C394.023,390.372,388.649,384.998,382.021,384.998z"/>
	<path style="fill:#E59D1F;" d="M161.058,384.998h-31.079c-6.628,0-12.002,5.373-12.002,12.002v26.152h31.079V397   C149.056,390.372,154.43,384.998,161.058,384.998z"/>
	<path style="fill:#338DEF;" d="M423.445,422.122H88.555c-8.807,0-15.947,7.14-15.947,15.947v38.869h366.784v-38.869   C439.392,429.261,432.252,422.122,423.445,422.122z"/>
	<path style="fill:#1C78D3;" d="M119.634,422.122H88.555c-8.807,0-15.947,7.14-15.947,15.947v38.868h31.079v-38.868   C103.687,429.261,110.827,422.122,119.634,422.122z"/>
	<path style="fill:#54A0FF;" d="M449.074,473.847H62.926c-7.518,0-13.669,6.151-13.669,13.669v10.816   c0,7.518,6.151,13.669,13.669,13.669h386.148c7.518,0,13.669-6.151,13.669-13.669v-10.816   C462.743,479.998,456.592,473.847,449.074,473.847z"/>
	<path style="fill:#338DEF;" d="M80.336,498.331v-10.816c0-7.518,6.151-13.669,13.669-13.669H62.926   c-7.518,0-13.669,6.151-13.669,13.669v10.816c0,7.518,6.151,13.669,13.669,13.669h31.079C86.487,512,80.336,505.849,80.336,498.331   z"/>
	<g>
		<path style="fill:#F4B537;" d="M239.388,202.937c-0.17-0.759-0.411-1.528-0.743-2.309c-0.092-0.274-0.211-0.526-0.342-0.768    c-10.291-22.709-31.486-5.628-36.024-1.594c2.526-1.835,6.322-0.802,7.387,2.362c0.809,2.404,1.654,5.214,2.433,8.36    c-0.001,0-0.001,0-0.002,0c0.146,0.59,0.29,1.193,0.431,1.807c0.037,0.159,0.072,0.323,0.108,0.484    c0.094,0.415,0.186,0.835,0.276,1.26c0.064,0.3,0.126,0.604,0.188,0.909c0.058,0.284,0.115,0.57,0.171,0.858    c0.075,0.386,0.15,0.774,0.222,1.167c0.034,0.184,0.066,0.372,0.099,0.557c0.506,2.843,0.926,5.864,1.207,9.034    c0.002,0.022,0.004,0.044,0.006,0.066c0.057,0.654,0.109,1.314,0.154,1.979h0c1.3,19.122-2.657,43.11-22.674,64.761    c-28.658,30.998-42.067,65.661-47.662,95.188h28.979c5.595-29.528,19.004-64.19,47.662-95.188    C251.313,259.371,245.192,221.593,239.388,202.937z"/>
		<path style="fill:#F4B537;" d="M199.668,200.961c0.591-0.595,1.174-1.222,1.743-1.898L199.668,200.961z"/>
	</g>
</g>















</svg>
