<?xml version="1.0" encoding="iso-8859-1"?>
<!-- Generator: Adobe Illustrator 21.0.0, SVG Export Plug-In . SVG Version: 6.00 Build 0)  -->
<svg xmlns="http://www.w3.org/2000/svg" xmlns:xlink="http://www.w3.org/1999/xlink" version="1.1" id="Capa_1" x="0px" y="0px" viewBox="0 0 512 512" style="enable-background:new 0 0 512 512;" xml:space="preserve" width="512" height="512">
<g>
	<path style="fill:#C46F5F;" d="M408.066,57.13H323.91H188.09h-84.156c-15.86,0-28.764,12.904-28.764,28.764v397.342   c0,15.86,12.904,28.764,28.764,28.764h304.132c15.86,0,28.764-12.904,28.764-28.764V85.894   C436.83,70.033,423.926,57.13,408.066,57.13z"/>
	<path style="fill:#B45F4A;" d="M107.13,483.236V85.894c0-15.86,12.904-28.764,28.764-28.764h-31.96   c-15.86,0-28.764,12.904-28.764,28.764v397.342c0,15.86,12.904,28.764,28.764,28.764h31.96   C120.034,512,107.13,499.096,107.13,483.236z"/>
	<path style="fill:#FFF6E9;" d="M402.311,89.09h-78.396H188.086h-78.396c-1.413,0-2.559,1.146-2.559,2.559v385.832   c0,1.414,1.146,2.559,2.559,2.559h292.621c1.413,0,2.559-1.146,2.559-2.559V91.649C404.87,90.235,403.724,89.09,402.311,89.09z"/>
	<path style="fill:#F9E4C7;" d="M137.578,477.481V91.649c0-1.414,1.146-2.559,2.559-2.559h-30.448c-1.413,0-2.559,1.146-2.559,2.559   v385.832c0,1.414,1.146,2.559,2.559,2.559h30.448C138.724,480.04,137.578,478.894,137.578,477.481z"/>
	<g>
		<path style="fill:#CCD2DB;" d="M282.367,63.876c-4.204,0-7.612-3.408-7.612-7.612V33.979c0-10.342-8.413-18.755-18.755-18.755    c-10.342,0-18.755,8.413-18.755,18.755v22.285c0,4.204-3.408,7.612-7.612,7.612c-4.204,0-7.612-3.408-7.612-7.612V33.979    C222.021,15.243,237.264,0,256,0s33.979,15.243,33.979,33.979v22.285C289.979,60.468,286.571,63.876,282.367,63.876z"/>
	</g>
	<path style="fill:#E4EAF8;" d="M315.856,49.16H196.144c-4.432,0-8.058,3.626-8.058,8.058v36.617c0,4.432,3.626,8.058,8.058,8.058   h119.712c4.432,0,8.058-3.626,8.058-8.058V57.218C323.915,52.786,320.288,49.16,315.856,49.16z"/>
	<path style="fill:#CCD2DB;" d="M218.533,93.835V57.218c0-4.432,3.626-8.058,8.058-8.058h-30.448c-4.432,0-8.058,3.626-8.058,8.058   v36.617c0,4.432,3.626,8.058,8.058,8.058h30.448C222.16,101.893,218.533,98.267,218.533,93.835z"/>
	<g>
		<path style="fill:#BCC2CC;" d="M292.961,83.138H219.04c-4.204,0-7.612-3.408-7.612-7.612s3.408-7.612,7.612-7.612h73.921    c4.204,0,7.612,3.408,7.612,7.612S297.165,83.138,292.961,83.138z"/>
	</g>
	<g>
		<path style="fill:#F9E4C7;" d="M292.452,145.099h-73.921c-4.204,0-7.612-3.408-7.612-7.612c0-4.204,3.408-7.612,7.612-7.612    h73.921c4.204,0,7.612,3.408,7.612,7.612C300.064,141.691,296.656,145.099,292.452,145.099z"/>
	</g>
	<g>
		<path style="fill:#F9E4C7;" d="M292.452,191.165h-63.327c-4.204,0-7.612-3.408-7.612-7.612c0-4.204,3.408-7.612,7.612-7.612    h63.327c4.204,0,7.612,3.408,7.612,7.612C300.064,187.757,296.656,191.165,292.452,191.165z"/>
	</g>
	<g>
		<path style="fill:#F9E4C7;" d="M349.139,218.509H229.125c-4.204,0-7.612-3.408-7.612-7.612c0-4.204,3.408-7.612,7.612-7.612    h120.014c4.204,0,7.612,3.408,7.612,7.612C356.751,215.101,353.343,218.509,349.139,218.509z"/>
	</g>
	<g>
		<path style="fill:#F9E4C7;" d="M292.452,264.752h-63.327c-4.204,0-7.612-3.408-7.612-7.612c0-4.204,3.408-7.612,7.612-7.612    h63.327c4.204,0,7.612,3.408,7.612,7.612C300.064,261.344,296.656,264.752,292.452,264.752z"/>
	</g>
	<g>
		<path style="fill:#F9E4C7;" d="M349.139,292.095H229.125c-4.204,0-7.612-3.408-7.612-7.612s3.408-7.612,7.612-7.612h120.014    c4.204,0,7.612,3.408,7.612,7.612S353.343,292.095,349.139,292.095z"/>
	</g>
	<g>
		<path style="fill:#F9E4C7;" d="M292.452,338.339h-63.327c-4.204,0-7.612-3.408-7.612-7.612c0-4.204,3.408-7.612,7.612-7.612    h63.327c4.204,0,7.612,3.408,7.612,7.612C300.064,334.931,296.656,338.339,292.452,338.339z"/>
	</g>
	<g>
		<path style="fill:#F9E4C7;" d="M349.139,365.682H229.125c-4.204,0-7.612-3.408-7.612-7.612c0-4.204,3.408-7.612,7.612-7.612    h120.014c4.204,0,7.612,3.408,7.612,7.612C356.751,362.274,353.343,365.682,349.139,365.682z"/>
	</g>
	<g>
		<path style="fill:#F9E4C7;" d="M292.452,411.925h-63.327c-4.204,0-7.612-3.408-7.612-7.612s3.408-7.612,7.612-7.612h63.327    c4.204,0,7.612,3.408,7.612,7.612S296.656,411.925,292.452,411.925z"/>
	</g>
	<g>
		<path style="fill:#F9E4C7;" d="M349.139,439.268H229.125c-4.204,0-7.612-3.408-7.612-7.612c0-4.204,3.408-7.612,7.612-7.612    h120.014c4.204,0,7.612,3.408,7.612,7.612C356.751,435.86,353.343,439.268,349.139,439.268z"/>
	</g>
	<path style="fill:#54A0FF;" d="M189.107,393.521h-25.443c-6.459,0-11.743,5.284-11.743,11.743v25.443   c0,6.459,5.284,11.743,11.743,11.743h25.443c6.459,0,11.743-5.284,11.743-11.743v-25.443   C200.85,398.805,195.566,393.521,189.107,393.521z"/>
	<path style="fill:#54A0FF;" d="M189.107,319.934h-25.443c-6.459,0-11.743,5.284-11.743,11.743v25.443   c0,6.459,5.284,11.743,11.743,11.743h25.443c6.459,0,11.743-5.284,11.743-11.743v-25.443   C200.85,325.218,195.566,319.934,189.107,319.934z"/>
	<path style="fill:#54A0FF;" d="M189.107,246.348h-25.443c-6.459,0-11.743,5.284-11.743,11.743v25.443   c0,6.459,5.284,11.743,11.743,11.743h25.443c6.459,0,11.743-5.284,11.743-11.743V258.09   C200.85,251.632,195.566,246.348,189.107,246.348z"/>
	<path style="fill:#54A0FF;" d="M189.107,172.761h-25.443c-6.459,0-11.743,5.284-11.743,11.743v25.443   c0,6.459,5.284,11.743,11.743,11.743h25.443c6.459,0,11.743-5.284,11.743-11.743v-25.443   C200.85,178.045,195.566,172.761,189.107,172.761z"/>
	<path style="fill:#338DEF;" d="M182.37,430.706v-25.443c0-5.6,3.974-10.31,9.24-11.466c-0.808-0.177-1.644-0.277-2.503-0.277   h-25.443c-6.459,0-11.743,5.284-11.743,11.743v25.443c0,6.459,5.284,11.743,11.743,11.743h25.443c0.859,0,1.695-0.1,2.503-0.277   C186.344,441.016,182.37,436.306,182.37,430.706z"/>
	<path style="fill:#338DEF;" d="M182.37,357.12v-25.443c0-5.6,3.974-10.31,9.24-11.466c-0.808-0.177-1.644-0.277-2.503-0.277   h-25.443c-6.459,0-11.743,5.284-11.743,11.743v25.443c0,6.459,5.284,11.743,11.743,11.743h25.443c0.859,0,1.695-0.1,2.503-0.277   C186.344,367.43,182.37,362.719,182.37,357.12z"/>
	<path style="fill:#338DEF;" d="M182.37,283.533V258.09c0-5.6,3.974-10.31,9.24-11.466c-0.808-0.177-1.644-0.277-2.503-0.277   h-25.443c-6.459,0-11.743,5.284-11.743,11.743v25.443c0,6.459,5.284,11.743,11.743,11.743h25.443c0.859,0,1.695-0.099,2.503-0.277   C186.344,293.844,182.37,289.133,182.37,283.533z"/>
	<path style="fill:#338DEF;" d="M182.37,209.947v-25.443c0-5.6,3.974-10.31,9.24-11.466c-0.808-0.177-1.644-0.277-2.503-0.277   h-25.443c-6.459,0-11.743,5.284-11.743,11.743v25.443c0,6.459,5.284,11.743,11.743,11.743h25.443c0.859,0,1.695-0.1,2.503-0.277   C186.344,220.257,182.37,215.546,182.37,209.947z"/>
	<g>
		<path style="fill:#1DD1A1;" d="M173.5,208.937l-10.114-10.653c-2.894-3.049-2.769-7.867,0.28-10.761    c3.048-2.894,7.866-2.77,10.761,0.28l4.794,5.049l23.283-22.775c3.005-2.94,7.825-2.887,10.764,0.118s2.887,7.825-0.118,10.764    l-28.807,28.179C181.298,212.116,176.417,212.01,173.5,208.937z"/>
	</g>
</g>















</svg>
