<?xml version="1.0" encoding="iso-8859-1"?>
<!-- Generator: Adobe Illustrator 21.0.0, SVG Export Plug-In . SVG Version: 6.00 Build 0)  -->
<svg xmlns="http://www.w3.org/2000/svg" xmlns:xlink="http://www.w3.org/1999/xlink" version="1.1" id="Capa_1" x="0px" y="0px" viewBox="0 0 512 512" style="enable-background:new 0 0 512 512;" xml:space="preserve" width="512" height="512">
<g>
	<path style="fill:#C46F5F;" d="M408.066,57.13H323.91H188.09h-84.156c-15.86,0-28.764,12.904-28.764,28.764v397.342   c0,15.86,12.904,28.764,28.764,28.764h304.132c15.86,0,28.764-12.904,28.764-28.764V85.894   C436.83,70.033,423.926,57.13,408.066,57.13z"/>
	<path style="fill:#B45F4A;" d="M107.13,483.236V85.894c0-15.86,12.904-28.764,28.764-28.764h-31.96   c-15.86,0-28.764,12.904-28.764,28.764v397.342c0,15.86,12.904,28.764,28.764,28.764h31.96   C120.034,512,107.13,499.096,107.13,483.236z"/>
	<path style="fill:#FFF6E9;" d="M402.311,89.09h-78.396H188.086h-78.396c-1.413,0-2.559,1.146-2.559,2.559v385.832   c0,1.414,1.146,2.559,2.559,2.559h292.621c1.413,0,2.559-1.146,2.559-2.559V91.649C404.87,90.235,403.724,89.09,402.311,89.09z"/>
	<path style="fill:#F9E4C7;" d="M137.578,477.481V91.649c0-1.414,1.146-2.559,2.559-2.559h-30.448c-1.413,0-2.559,1.146-2.559,2.559   v385.832c0,1.414,1.146,2.559,2.559,2.559h30.448C138.724,480.04,137.578,478.894,137.578,477.481z"/>
	<g>
		<path style="fill:#CCD2DB;" d="M282.367,63.876c-4.204,0-7.612-3.408-7.612-7.612V33.979c0-10.342-8.413-18.755-18.755-18.755    c-10.342,0-18.755,8.413-18.755,18.755v22.285c0,4.204-3.408,7.612-7.612,7.612c-4.204,0-7.612-3.408-7.612-7.612V33.979    C222.021,15.243,237.264,0,256,0s33.979,15.243,33.979,33.979v22.285C289.979,60.468,286.571,63.876,282.367,63.876z"/>
	</g>
	<path style="fill:#E4EAF8;" d="M315.856,49.16H196.144c-4.432,0-8.058,3.626-8.058,8.058v36.617c0,4.432,3.626,8.058,8.058,8.058   h119.712c4.432,0,8.058-3.626,8.058-8.058V57.218C323.915,52.786,320.288,49.16,315.856,49.16z"/>
	<path style="fill:#CCD2DB;" d="M218.533,93.835V57.218c0-4.432,3.626-8.058,8.058-8.058h-30.448c-4.432,0-8.058,3.626-8.058,8.058   v36.617c0,4.432,3.626,8.058,8.058,8.058h30.448C222.16,101.893,218.533,98.267,218.533,93.835z"/>
	<g>
		<path style="fill:#BCC2CC;" d="M292.961,83.138H219.04c-4.204,0-7.612-3.408-7.612-7.612s3.408-7.612,7.612-7.612h73.921    c4.204,0,7.612,3.408,7.612,7.612S297.165,83.138,292.961,83.138z"/>
	</g>
	<path style="fill:#F9E4C7;" d="M336.822,241.859h-72.701v-40.702c0-4.204-3.408-7.612-7.612-7.612   c-4.204,0-7.612,3.408-7.612,7.612v40.702h-72.701c-8.707,0-15.79,7.718-15.79,17.203v44.264c0,4.204,3.408,7.612,7.612,7.612   c4.204,0,7.612-3.408,7.612-7.612v-44.264c0-1.111,0.477-1.792,0.709-1.979h72.558v46.244c0,4.204,3.408,7.612,7.612,7.612   c4.204,0,7.612-3.408,7.612-7.612v-46.244h72.558c0.232,0.188,0.709,0.868,0.709,1.979v44.264c0,4.204,3.408,7.612,7.612,7.612   c4.204,0,7.612-3.408,7.612-7.612v-44.264C352.612,249.576,345.528,241.859,336.822,241.859z"/>
	<path style="fill:#F9E4C7;" d="M230.142,143.814h52.734c4.204,0,7.612-3.408,7.612-7.612c0-4.204-3.408-7.612-7.612-7.612h-52.734   c-4.204,0-7.612,3.408-7.612,7.612C222.53,140.406,225.938,143.814,230.142,143.814z"/>
	<path style="fill:#F9E4C7;" d="M345,363.495H168.018c-4.204,0-7.612,3.408-7.612,7.612c0,4.204,3.408,7.612,7.612,7.612H345   c4.204,0,7.612-3.408,7.612-7.612C352.612,366.903,349.203,363.495,345,363.495z"/>
	<path style="fill:#F9E4C7;" d="M345,395.168H168.018c-4.204,0-7.612,3.408-7.612,7.612s3.408,7.612,7.612,7.612H345   c4.204,0,7.612-3.408,7.612-7.612S349.203,395.168,345,395.168z"/>
	<path style="fill:#F9E4C7;" d="M345,426.841H168.018c-4.204,0-7.612,3.408-7.612,7.612s3.408,7.612,7.612,7.612H345   c4.204,0,7.612-3.408,7.612-7.612S349.203,426.841,345,426.841z"/>
	<path style="fill:#FECA57;" d="M266.561,167.097h-20.104c-5.921,0-10.722,4.8-10.722,10.722v20.104   c0,5.921,4.8,10.722,10.722,10.722h20.104c5.921,0,10.722-4.8,10.722-10.722v-20.104   C277.283,171.897,272.482,167.097,266.561,167.097z"/>
	<path style="fill:#54A0FF;" d="M178.071,295.755h-20.104c-5.921,0-10.722,4.8-10.722,10.722v20.104   c0,5.921,4.8,10.722,10.722,10.722h20.104c5.921,0,10.722-4.8,10.722-10.722v-20.104   C188.792,300.555,183.992,295.755,178.071,295.755z"/>
	<path style="fill:#54A0FF;" d="M266.561,295.755h-20.104c-5.921,0-10.722,4.8-10.722,10.722v20.104   c0,5.921,4.8,10.722,10.722,10.722h20.104c5.921,0,10.722-4.8,10.722-10.722v-20.104   C277.283,300.555,272.482,295.755,266.561,295.755z"/>
	<path style="fill:#54A0FF;" d="M355.052,295.755h-20.104c-5.921,0-10.722,4.8-10.722,10.722v20.104   c0,5.921,4.8,10.722,10.722,10.722h20.104c5.921,0,10.722-4.8,10.722-10.722v-20.104   C365.773,300.555,360.973,295.755,355.052,295.755z"/>
	<path style="fill:#F4B537;" d="M266.183,197.923v-20.104c0-4.045,2.242-7.565,5.55-9.39c-1.534-0.847-3.296-1.331-5.172-1.331   h-20.104c-5.922,0-10.722,4.8-10.722,10.722v20.104c0,5.921,4.8,10.722,10.722,10.722h20.104c1.876,0,3.638-0.485,5.172-1.331   C268.425,205.487,266.183,201.968,266.183,197.923z"/>
	<path style="fill:#338DEF;" d="M177.692,326.581v-20.104c0-4.045,2.242-7.565,5.55-9.39c-1.534-0.847-3.296-1.331-5.172-1.331   h-20.104c-5.921,0-10.722,4.8-10.722,10.722v20.104c0,5.921,4.8,10.722,10.722,10.722h20.104c1.876,0,3.638-0.484,5.172-1.331   C179.935,334.146,177.692,330.627,177.692,326.581z"/>
	<path style="fill:#338DEF;" d="M266.183,326.581v-20.104c0-4.045,2.242-7.565,5.55-9.39c-1.534-0.847-3.296-1.331-5.172-1.331   h-20.104c-5.922,0-10.722,4.8-10.722,10.722v20.104c0,5.921,4.8,10.722,10.722,10.722h20.104c1.876,0,3.638-0.484,5.172-1.331   C268.425,334.146,266.183,330.627,266.183,326.581z"/>
	<path style="fill:#338DEF;" d="M354.673,326.581v-20.104c0-4.045,2.242-7.565,5.55-9.39c-1.534-0.847-3.296-1.331-5.172-1.331   h-20.104c-5.921,0-10.722,4.8-10.722,10.722v20.104c0,5.921,4.8,10.722,10.722,10.722h20.104c1.876,0,3.638-0.484,5.172-1.331   C356.916,334.146,354.673,330.627,354.673,326.581z"/>
</g>















</svg>
