<?xml version="1.0" encoding="iso-8859-1"?>
<!-- Generator: Adobe Illustrator 21.0.0, SVG Export Plug-In . SVG Version: 6.00 Build 0)  -->
<svg xmlns="http://www.w3.org/2000/svg" xmlns:xlink="http://www.w3.org/1999/xlink" version="1.1" id="Capa_1" x="0px" y="0px" viewBox="0 0 513.482 513.482" style="enable-background:new 0 0 513.482 513.482;" xml:space="preserve" width="512" height="512">
<g>
	<path style="fill:#E4EAF8;" d="M0.741,123.96v295.08c0,7.18,5.875,13.055,13.055,13.055H435.13c10.85,0,19.646-8.796,19.646-19.646   v-83.576V123.96H0.741z"/>
	<path style="fill:#CCD2DB;" d="M31.648,419.04V123.96H0.741v295.08c0,7.18,5.875,13.055,13.055,13.055h30.907   C37.523,432.095,31.648,426.22,31.648,419.04z"/>
	<path style="fill:#FF6B6B;" d="M441.721,45.512c-6.377,0-424.05,0-427.925,0c-7.18,0-13.055,5.875-13.055,13.055v67.453h454.035   V58.567C454.776,51.387,448.901,45.512,441.721,45.512z"/>
	<path style="fill:#EE5253;" d="M44.703,45.512c-18.805,0-30.28,0-30.907,0c-7.18,0-13.055,5.875-13.055,13.055v67.453h30.907   V58.567C31.648,51.387,37.523,45.512,44.703,45.512z"/>
	<path style="fill:#EE5253;" d="M65.292,112.013c14.496,0,26.247-11.751,26.247-26.247c0-9.517-5.065-17.851-12.647-22.453v12.662   c0,7.511-6.089,13.599-13.599,13.599c-7.51,0-13.599-6.088-13.599-13.599V63.313c-7.582,4.602-12.647,12.936-12.647,22.453   C39.046,100.262,50.797,112.013,65.292,112.013z"/>
	<circle style="fill:#FECA57;" cx="416.472" cy="417.213" r="96.269"/>
	<path style="fill:#F4B537;" d="M351.11,417.213c0-47.907,34.995-87.634,80.816-95.029c-5.032-0.812-10.193-1.241-15.454-1.241   c-53.168,0-96.269,43.101-96.269,96.269c0,53.168,43.101,96.269,96.269,96.269c5.261,0,10.422-0.428,15.454-1.241   C386.105,504.847,351.11,465.12,351.11,417.213z"/>
	<g>
		<path style="fill:#E4EAF8;" d="M358.934,445.417c-3.018-3.017-3.018-7.91,0-10.927l31.848-31.848c3.017-3.017,7.91-3.017,10.927,0    l21.081,21.081l25.354-25.354c3.017-3.017,7.91-3.017,10.927,0c3.018,3.017,3.018,7.91,0,10.927l-30.817,30.817    c-3.017,3.017-7.91,3.017-10.927,0l-21.081-21.081l-26.384,26.384C366.843,448.435,361.951,448.435,358.934,445.417z"/>
	</g>
	<g>
		<path style="fill:#3E4B5A;" d="M65.292,89.574c-7.51,0-13.599-6.088-13.599-13.599V13.599C51.693,6.089,57.782,0,65.292,0    c7.51,0,13.599,6.089,13.599,13.599v62.376C78.891,83.486,72.803,89.574,65.292,89.574z"/>
	</g>
	<path style="fill:#303F49;" d="M69.551,75.975V13.599c0-4.089,1.813-7.748,4.67-10.241C71.831,1.273,68.713,0,65.292,0   c-7.511,0-13.599,6.089-13.599,13.599v62.376c0,7.511,6.089,13.599,13.599,13.599c3.421,0,6.539-1.273,8.929-3.358   C71.364,83.723,69.551,80.065,69.551,75.975z"/>
	<path style="fill:#E4EAF8;" d="M465.96,420.425l8.435-35.036c0.39-1.619-1.364-3.373-2.983-2.983l-35.036,8.435   c-1.46,0.352-1.72,2.224-0.48,3.464l26.602,26.602C463.736,422.145,465.608,421.885,465.96,420.425z"/>
	<path style="fill:#EE5253;" d="M227.759,112.013c14.496,0,26.247-11.751,26.247-26.247c0-9.517-5.065-17.851-12.647-22.453v12.662   c0,7.511-6.089,13.599-13.599,13.599c-7.51,0-13.599-6.088-13.599-13.599V63.313c-7.582,4.602-12.647,12.936-12.647,22.453   C201.512,100.262,213.263,112.013,227.759,112.013z"/>
	<g>
		<path style="fill:#3E4B5A;" d="M227.759,89.574c-7.51,0-13.599-6.088-13.599-13.599V13.599c0-7.51,6.089-13.599,13.599-13.599    c7.51,0,13.599,6.089,13.599,13.599v62.376C241.358,83.486,235.269,89.574,227.759,89.574z"/>
	</g>
	<path style="fill:#303F49;" d="M232.017,75.975V13.599c0-4.089,1.813-7.748,4.67-10.241C234.297,1.273,231.18,0,227.759,0   c-7.511,0-13.599,6.089-13.599,13.599v62.376c0,7.511,6.089,13.599,13.599,13.599c3.421,0,6.539-1.273,8.929-3.358   C233.83,83.723,232.017,80.065,232.017,75.975z"/>
	<path style="fill:#EE5253;" d="M390.225,112.013c14.496,0,26.247-11.751,26.247-26.247c0-9.517-5.065-17.851-12.647-22.453v12.662   c0,7.511-6.089,13.599-13.599,13.599c-7.51,0-13.599-6.088-13.599-13.599V63.313c-7.582,4.602-12.647,12.936-12.647,22.453   C363.978,100.262,375.729,112.013,390.225,112.013z"/>
	<g>
		<path style="fill:#D83941;" d="M70.117,88.677c-1.501,0.571-3.123,0.897-4.825,0.897c-7.511,0-13.599-6.088-13.599-13.599V63.313    c-7.582,4.602-12.647,12.936-12.647,22.453c0,14.496,11.751,26.247,26.247,26.247c5.779,0,11.118-1.872,15.454-5.036    C74.944,102.742,70.947,96.189,70.117,88.677z"/>
	</g>
	<g>
		<path style="fill:#D83941;" d="M232.584,88.677c-1.501,0.571-3.123,0.897-4.825,0.897c-7.51,0-13.599-6.088-13.599-13.599V63.313    c-7.582,4.602-12.647,12.936-12.647,22.453c0,14.496,11.751,26.247,26.247,26.247c5.779,0,11.118-1.872,15.454-5.036    C237.411,102.742,233.413,96.188,232.584,88.677z"/>
	</g>
	<g>
		<path style="fill:#D83941;" d="M395.05,88.677c-1.502,0.571-3.123,0.897-4.825,0.897c-7.51,0-13.599-6.088-13.599-13.599V63.313    c-7.582,4.602-12.647,12.936-12.647,22.453c0,14.496,11.751,26.247,26.247,26.247c5.779,0,11.118-1.872,15.454-5.036    C399.877,102.742,395.879,96.189,395.05,88.677z"/>
	</g>
	<g>
		<path style="fill:#3E4B5A;" d="M390.225,89.574c-7.51,0-13.599-6.088-13.599-13.599V13.599c0-7.51,6.089-13.599,13.599-13.599    c7.51,0,13.599,6.089,13.599,13.599v62.376C403.824,83.486,397.736,89.574,390.225,89.574z"/>
	</g>
	<path style="fill:#303F49;" d="M394.484,75.975V13.599c0-4.089,1.814-7.748,4.67-10.241C396.764,1.273,393.646,0,390.225,0   c-7.511,0-13.599,6.089-13.599,13.599v62.376c0,7.511,6.089,13.599,13.599,13.599c3.421,0,6.539-1.273,8.929-3.358   C396.297,83.723,394.484,80.065,394.484,75.975z"/>
	<path style="fill:#54A0FF;" d="M84.467,329.692H67.604c-7.18,0-13.055,5.875-13.055,13.055v16.863   c0,7.181,5.875,13.055,13.055,13.055h16.863c7.18,0,13.055-5.875,13.055-13.055v-16.863   C97.522,335.567,91.647,329.692,84.467,329.692z"/>
	<path style="fill:#338DEF;" d="M85.456,359.611v-16.863c0-4.598,2.415-8.651,6.033-10.979c-2.032-1.307-4.44-2.077-7.022-2.077   H67.604c-7.18,0-13.055,5.875-13.055,13.055v16.863c0,7.181,5.875,13.055,13.055,13.055h16.863c2.583,0,4.99-0.769,7.022-2.077   C87.871,368.262,85.456,364.209,85.456,359.611z"/>
	<path style="fill:#54A0FF;" d="M84.467,254.466H67.604c-7.18,0-13.055,5.875-13.055,13.055v16.863   c0,7.181,5.875,13.055,13.055,13.055h16.863c7.18,0,13.055-5.875,13.055-13.055v-16.863   C97.522,260.34,91.647,254.466,84.467,254.466z"/>
	<path style="fill:#338DEF;" d="M85.456,284.384v-16.863c0-4.598,2.415-8.651,6.033-10.979c-2.032-1.307-4.44-2.077-7.022-2.077   H67.604c-7.18,0-13.055,5.875-13.055,13.055v16.863c0,7.181,5.875,13.055,13.055,13.055h16.863c2.583,0,4.99-0.769,7.022-2.077   C87.871,293.035,85.456,288.982,85.456,284.384z"/>
	<path style="fill:#54A0FF;" d="M84.467,178.763H67.604c-7.18,0-13.055,5.875-13.055,13.055v16.863   c0,7.181,5.875,13.055,13.055,13.055h16.863c7.18,0,13.055-5.875,13.055-13.055v-16.863   C97.522,184.638,91.647,178.763,84.467,178.763z"/>
	<path style="fill:#338DEF;" d="M85.456,208.681v-16.863c0-4.598,2.415-8.651,6.033-10.979c-2.032-1.307-4.44-2.077-7.022-2.077   H67.604c-7.18,0-13.055,5.875-13.055,13.055v16.863c0,7.181,5.875,13.055,13.055,13.055h16.863c2.583,0,4.99-0.769,7.022-2.077   C87.871,217.332,85.456,213.279,85.456,208.681z"/>
	<path style="fill:#54A0FF;" d="M160.328,329.692h-16.863c-7.18,0-13.055,5.875-13.055,13.055v16.863   c0,7.181,5.875,13.055,13.055,13.055h16.863c7.18,0,13.055-5.875,13.055-13.055v-16.863   C173.383,335.567,167.509,329.692,160.328,329.692z"/>
	<path style="fill:#338DEF;" d="M161.317,359.611v-16.863c0-4.598,2.415-8.651,6.033-10.979c-2.032-1.307-4.44-2.077-7.022-2.077   h-16.863c-7.18,0-13.055,5.875-13.055,13.055v16.863c0,7.181,5.875,13.055,13.055,13.055h16.863c2.583,0,4.99-0.769,7.022-2.077   C163.732,368.262,161.317,364.209,161.317,359.611z"/>
	<path style="fill:#54A0FF;" d="M160.328,254.466h-16.863c-7.18,0-13.055,5.875-13.055,13.055v16.863   c0,7.181,5.875,13.055,13.055,13.055h16.863c7.18,0,13.055-5.875,13.055-13.055v-16.863   C173.383,260.34,167.509,254.466,160.328,254.466z"/>
	<path style="fill:#338DEF;" d="M161.317,284.384v-16.863c0-4.598,2.415-8.651,6.033-10.979c-2.032-1.307-4.44-2.077-7.022-2.077   h-16.863c-7.18,0-13.055,5.875-13.055,13.055v16.863c0,7.181,5.875,13.055,13.055,13.055h16.863c2.583,0,4.99-0.769,7.022-2.077   C163.732,293.035,161.317,288.982,161.317,284.384z"/>
	<path style="fill:#54A0FF;" d="M160.328,178.763h-16.863c-7.18,0-13.055,5.875-13.055,13.055v16.863   c0,7.181,5.875,13.055,13.055,13.055h16.863c7.18,0,13.055-5.875,13.055-13.055v-16.863   C173.383,184.638,167.509,178.763,160.328,178.763z"/>
	<path style="fill:#338DEF;" d="M161.317,208.681v-16.863c0-4.598,2.415-8.651,6.033-10.979c-2.032-1.307-4.44-2.077-7.022-2.077   h-16.863c-7.18,0-13.055,5.875-13.055,13.055v16.863c0,7.181,5.875,13.055,13.055,13.055h16.863c2.583,0,4.99-0.769,7.022-2.077   C163.732,217.332,161.317,213.279,161.317,208.681z"/>
	<path style="fill:#54A0FF;" d="M236.19,329.692h-16.863c-7.18,0-13.055,5.875-13.055,13.055v16.863   c0,7.181,5.875,13.055,13.055,13.055h16.863c7.18,0,13.055-5.875,13.055-13.055v-16.863   C249.245,335.567,243.37,329.692,236.19,329.692z"/>
	<path style="fill:#338DEF;" d="M237.179,359.611v-16.863c0-4.598,2.415-8.651,6.033-10.979c-2.032-1.307-4.44-2.077-7.022-2.077   h-16.863c-7.18,0-13.055,5.875-13.055,13.055v16.863c0,7.181,5.875,13.055,13.055,13.055h16.863c2.583,0,4.99-0.769,7.022-2.077   C239.594,368.262,237.179,364.209,237.179,359.611z"/>
	<path style="fill:#54A0FF;" d="M236.19,254.466h-16.863c-7.18,0-13.055,5.875-13.055,13.055v16.863   c0,7.181,5.875,13.055,13.055,13.055h16.863c7.18,0,13.055-5.875,13.055-13.055v-16.863   C249.245,260.34,243.37,254.466,236.19,254.466z"/>
	<path style="fill:#338DEF;" d="M237.179,284.384v-16.863c0-4.598,2.415-8.651,6.033-10.979c-2.032-1.307-4.44-2.077-7.022-2.077   h-16.863c-7.18,0-13.055,5.875-13.055,13.055v16.863c0,7.181,5.875,13.055,13.055,13.055h16.863c2.583,0,4.99-0.769,7.022-2.077   C239.594,293.035,237.179,288.982,237.179,284.384z"/>
	<path style="fill:#54A0FF;" d="M236.19,178.763h-16.863c-7.18,0-13.055,5.875-13.055,13.055v16.863   c0,7.181,5.875,13.055,13.055,13.055h16.863c7.18,0,13.055-5.875,13.055-13.055v-16.863   C249.245,184.638,243.37,178.763,236.19,178.763z"/>
	<path style="fill:#338DEF;" d="M237.179,208.681v-16.863c0-4.598,2.415-8.651,6.033-10.979c-2.032-1.307-4.44-2.077-7.022-2.077   h-16.863c-7.18,0-13.055,5.875-13.055,13.055v16.863c0,7.181,5.875,13.055,13.055,13.055h16.863c2.583,0,4.99-0.769,7.022-2.077   C239.594,217.332,237.179,213.279,237.179,208.681z"/>
	<path style="fill:#54A0FF;" d="M312.051,329.692h-16.863c-7.18,0-13.055,5.875-13.055,13.055v16.863   c0,7.181,5.875,13.055,13.055,13.055h16.863c7.18,0,13.055-5.875,13.055-13.055v-16.863   C325.107,335.567,319.232,329.692,312.051,329.692z"/>
	<path style="fill:#338DEF;" d="M313.04,359.611v-16.863c0-4.598,2.415-8.651,6.033-10.979c-2.032-1.307-4.44-2.077-7.022-2.077   h-16.863c-7.18,0-13.055,5.875-13.055,13.055v16.863c0,7.181,5.875,13.055,13.055,13.055h16.863c2.583,0,4.99-0.769,7.022-2.077   C315.455,368.262,313.04,364.209,313.04,359.611z"/>
	<path style="fill:#54A0FF;" d="M312.051,254.466h-16.863c-7.18,0-13.055,5.875-13.055,13.055v16.863   c0,7.181,5.875,13.055,13.055,13.055h16.863c7.18,0,13.055-5.875,13.055-13.055v-16.863   C325.107,260.34,319.232,254.466,312.051,254.466z"/>
	<path style="fill:#338DEF;" d="M313.04,284.384v-16.863c0-4.598,2.415-8.651,6.033-10.979c-2.032-1.307-4.44-2.077-7.022-2.077   h-16.863c-7.18,0-13.055,5.875-13.055,13.055v16.863c0,7.181,5.875,13.055,13.055,13.055h16.863c2.583,0,4.99-0.769,7.022-2.077   C315.455,293.035,313.04,288.982,313.04,284.384z"/>
	<path style="fill:#54A0FF;" d="M312.051,178.763h-16.863c-7.18,0-13.055,5.875-13.055,13.055v16.863   c0,7.181,5.875,13.055,13.055,13.055h16.863c7.18,0,13.055-5.875,13.055-13.055v-16.863   C325.107,184.638,319.232,178.763,312.051,178.763z"/>
	<path style="fill:#338DEF;" d="M313.04,208.681v-16.863c0-4.598,2.415-8.651,6.033-10.979c-2.032-1.307-4.44-2.077-7.022-2.077   h-16.863c-7.18,0-13.055,5.875-13.055,13.055v16.863c0,7.181,5.875,13.055,13.055,13.055h16.863c2.583,0,4.99-0.769,7.022-2.077   C315.455,217.332,313.04,213.279,313.04,208.681z"/>
	<path style="fill:#54A0FF;" d="M387.913,254.466H371.05c-7.18,0-13.055,5.875-13.055,13.055v16.863   c0,7.181,5.875,13.055,13.055,13.055h16.863c7.18,0,13.055-5.875,13.055-13.055v-16.863   C400.968,260.34,395.093,254.466,387.913,254.466z"/>
	<path style="fill:#338DEF;" d="M388.902,284.384v-16.863c0-4.598,2.415-8.651,6.033-10.979c-2.032-1.307-4.44-2.077-7.022-2.077   H371.05c-7.18,0-13.055,5.875-13.055,13.055v16.863c0,7.181,5.875,13.055,13.055,13.055h16.863c2.583,0,4.99-0.769,7.022-2.077   C391.317,293.035,388.902,288.982,388.902,284.384z"/>
	<path style="fill:#54A0FF;" d="M387.913,178.763H371.05c-7.18,0-13.055,5.875-13.055,13.055v16.863   c0,7.181,5.875,13.055,13.055,13.055h16.863c7.18,0,13.055-5.875,13.055-13.055v-16.863   C400.968,184.638,395.093,178.763,387.913,178.763z"/>
	<path style="fill:#338DEF;" d="M388.902,208.681v-16.863c0-4.598,2.415-8.651,6.033-10.979c-2.032-1.307-4.44-2.077-7.022-2.077   H371.05c-7.18,0-13.055,5.875-13.055,13.055v16.863c0,7.181,5.875,13.055,13.055,13.055h16.863c2.583,0,4.99-0.769,7.022-2.077   C391.317,217.332,388.902,213.279,388.902,208.681z"/>
</g>















</svg>
