<?xml version="1.0" encoding="iso-8859-1"?>
<!-- Generator: Adobe Illustrator 21.0.0, SVG Export Plug-In . SVG Version: 6.00 Build 0)  -->
<svg xmlns="http://www.w3.org/2000/svg" xmlns:xlink="http://www.w3.org/1999/xlink" version="1.1" id="Capa_1" x="0px" y="0px" viewBox="0 0 512 512" style="enable-background:new 0 0 512 512;" xml:space="preserve" width="512" height="512">
<g>
	<g>
		<path style="fill:#FF6B6B;" d="M96.935,469.603c-23.063,0-42.668-16.148-47.389-38.263H17.595C7.893,431.34,0,423.447,0,413.745    v-87.443c0-7.583,5.708-13.941,13.276-14.787c14.312-1.599,25.103-13.686,25.103-28.115c0-14.429-10.791-26.516-25.102-28.115    C5.708,254.439,0,248.082,0,240.498v-87.444c0-9.702,7.893-17.595,17.595-17.595h36.438c7.583,0,13.941,5.708,14.787,13.276    c1.599,14.312,13.686,25.103,28.115,25.103s26.515-10.791,28.115-25.102c0.845-7.569,7.203-13.277,14.787-13.277h36.438    c9.702,0,17.595,7.893,17.595,17.595v82.929c22.182,4.674,38.379,24.29,38.379,47.417c0,23.127-16.197,42.743-38.379,47.417    v82.928c0,9.702-7.893,17.595-17.595,17.595h-31.951C139.601,453.454,119.997,469.603,96.935,469.603z"/>
	</g>
	<g>
		<path style="fill:#FECA57;" d="M357.017,382.695c-6.086,0-12.012-3.155-15.267-8.794l-43.722-75.728    c-3.791-6.568-2.027-14.926,4.103-19.444c11.596-8.542,14.898-24.404,7.684-36.9c-7.214-12.496-22.603-17.568-35.796-11.797    c-6.978,3.052-15.101,0.399-18.892-6.168l-43.722-75.729c-4.85-8.402-1.961-19.184,6.44-24.035l31.557-18.219    c6.57-3.792,14.928-2.026,19.445,4.104c8.541,11.595,24.405,14.897,36.899,7.683c12.496-7.214,17.567-22.604,11.797-35.797    c-3.053-6.977-0.401-15.099,6.168-18.892l31.556-18.219c4.07-2.35,8.81-2.974,13.351-1.758c4.54,1.216,8.334,4.128,10.684,8.198    l41.464,71.818c21.549-7.043,45.382,1.846,56.946,21.875c11.564,20.029,7.344,45.115-9.529,60.254l41.464,71.818    c4.85,8.402,1.962,19.184-6.44,24.034l-27.671,15.976c6.969,21.512-1.935,45.3-21.908,56.831    c-19.972,11.531-45.025,7.35-60.172-9.442l-27.671,15.975C363.021,381.937,360,382.695,357.017,382.695z"/>
	</g>
	<g>
		<path style="fill:#EE5253;" d="M127.842,173.839c14.429,0,26.515-10.791,28.115-25.102c0.845-7.569,7.202-13.277,14.787-13.277    h-30.907c-7.585,0-13.942,5.708-14.787,13.277c-0.97,8.675-5.797,16.052-12.661,20.521    C116.846,172.16,122.161,173.839,127.842,173.839z"/>
		<path style="fill:#EE5253;" d="M30.907,413.745v-87.443c0-7.583,5.707-13.941,13.276-14.787    c14.312-1.599,25.103-13.686,25.103-28.115c0-14.429-10.791-26.516-25.102-28.115c-7.57-0.847-13.277-7.204-13.277-14.787v-87.444    c0-9.702,7.893-17.595,17.595-17.595H17.595C7.893,135.46,0,143.353,0,153.054v87.444c0,7.583,5.707,13.941,13.277,14.787    c14.31,1.599,25.102,13.686,25.102,28.115c0,14.429-10.791,26.515-25.103,28.115C5.708,312.361,0,318.719,0,326.302v87.443    c0,9.702,7.893,17.595,17.595,17.595h30.907C38.801,431.34,30.907,423.447,30.907,413.745z"/>
		<path style="fill:#EE5253;" d="M84.15,442.164c-3.198-6.649-9.983-10.823-17.361-10.823H49.546    c4.721,22.115,24.326,38.263,47.389,38.263c5.39,0,10.587-0.892,15.453-2.526C100.012,462.921,89.798,453.907,84.15,442.164z"/>
	</g>
	<g>
		<path style="fill:#F4B537;" d="M286.034,223.865l-43.722-75.729c-4.85-8.402-1.962-19.184,6.44-24.035l21.473-12.397    c-0.477-0.552-0.94-1.121-1.379-1.718c-4.517-6.131-12.875-7.896-19.445-4.104l-31.557,18.219    c-8.401,4.851-11.29,15.633-6.44,24.035l43.722,75.729c3.792,6.567,11.914,9.219,18.893,6.168    c5.051-2.21,10.424-2.824,15.537-2.047C288.174,226.869,286.971,225.488,286.034,223.865z"/>
		<path style="fill:#F4B537;" d="M307.036,116.874c8.693,5.682,20.125,6.275,29.616,0.795c12.496-7.214,17.567-22.604,11.797-35.797    c-3.052-6.977-0.401-15.099,6.168-18.892l23.489-13.562c-2.35-3.132-5.647-5.386-9.489-6.415    c-4.541-1.217-9.281-0.593-13.351,1.758L323.71,62.981c-6.569,3.793-9.22,11.915-6.168,18.892    C323.109,94.601,318.582,109.37,307.036,116.874z"/>
		<path style="fill:#F4B537;" d="M372.658,373.901l-43.722-75.728c-3.791-6.568-2.027-14.926,4.103-19.444    c11.596-8.542,14.898-24.404,7.684-36.9c-7.214-12.496-22.603-17.568-35.796-11.797c-1.882,0.823-3.847,1.218-5.788,1.246    c4.312,2.417,8.041,5.986,10.677,10.55c7.214,12.496,3.912,28.358-7.684,36.9c-6.13,4.518-7.894,12.876-4.103,19.444    l43.722,75.728c3.255,5.639,9.181,8.795,15.267,8.794c2.983,0,6.004-0.758,8.768-2.354l8.062-4.654    C373.421,375.122,373.021,374.53,372.658,373.901z"/>
	</g>
</g>















</svg>
