<?xml version="1.0" encoding="iso-8859-1"?>
<!-- Generator: Adobe Illustrator 21.0.0, SVG Export Plug-In . SVG Version: 6.00 Build 0)  -->
<svg xmlns="http://www.w3.org/2000/svg" xmlns:xlink="http://www.w3.org/1999/xlink" version="1.1" id="Capa_1" x="0px" y="0px" viewBox="0 0 512 512" style="enable-background:new 0 0 512 512;" xml:space="preserve" width="512" height="512">
<g>
	<g>
		<path style="fill:#C46F5F;" d="M343.128,394.532c-36.931-40.64-8.448-106.982,47.359-106.982c11.958,0,23.143,3.29,32.718,9    V29.072C423.205,13.042,410.163,0,394.132,0H85.584C69.553,0,56.512,13.042,56.512,29.072v408.281    c0,16.031,13.042,29.073,29.072,29.073h257.544V394.532z"/>
	</g>
	<g>
		<path style="fill:#B45F4A;" d="M118.752,466.212c-16.031,0-29.072-13.042-29.072-29.073V28.858    c0-14.856,11.203-27.137,25.603-28.858H85.584C69.553,0,56.512,13.042,56.512,29.072v408.281    c0,16.031,13.042,29.073,29.072,29.073h257.544v-0.214H118.752z"/>
		<path style="fill:#B45F4A;" d="M406.462,289.574c5.96,1.535,11.586,3.901,16.742,6.976v-9.206    C417.301,287.382,411.704,288.158,406.462,289.574z"/>
	</g>
	<path style="fill:#E4EAF8;" d="M386.706,79.706c-0.011,0-0.022,0-0.034,0c-22.01,0-39.853-17.843-39.853-39.853   c0-1.078,0.045-2.145,0.131-3.2c0.152-1.862-1.357-3.442-3.225-3.442H135.989c-1.868,0-3.377,1.58-3.224,3.442   c0.086,1.055,0.131,2.122,0.131,3.2c0,22.01-17.843,39.853-39.853,39.853c-0.011,0-0.022,0-0.034,0   c-1.807-0.002-3.288,1.426-3.288,3.234v300.548c0,1.807,1.481,3.235,3.288,3.234c0.011,0,0.022,0,0.034,0   c22.01,0,39.853,17.843,39.853,39.853c0,1.078-0.045,2.144-0.131,3.2c-0.152,1.862,1.356,3.442,3.224,3.442h207.139v-38.684   c-36.883-40.587-8.58-106.549,46.866-106.97V82.939C389.994,81.132,388.513,79.704,386.706,79.706z"/>
	<path style="fill:#CCD2DB;" d="M163.61,429.774c0.087-1.056,0.131-2.122,0.131-3.2c0-22.01-17.843-39.853-39.853-39.853   c-0.011,0-0.023,0-0.033,0c-1.807,0.002-3.288-1.426-3.288-3.233V82.939c0-1.807,1.481-3.236,3.288-3.234c0.011,0,0.022,0,0.033,0   c22.01,0,39.853-17.843,39.853-39.853c0-1.078-0.045-2.145-0.131-3.2c-0.152-1.862,1.356-3.442,3.224-3.442h-30.845   c-1.868,0-3.377,1.58-3.224,3.442c0.087,1.055,0.131,2.122,0.131,3.2c0,22.01-17.843,39.853-39.853,39.853   c-0.011,0-0.022,0-0.033,0c-1.807-0.002-3.288,1.427-3.288,3.234v300.548c0,1.807,1.48,3.235,3.288,3.233c0.011,0,0.022,0,0.033,0   c22.01,0,39.853,17.843,39.853,39.853c0,1.078-0.045,2.144-0.131,3.2c-0.152,1.862,1.356,3.442,3.224,3.442h30.845   C164.966,433.216,163.457,431.636,163.61,429.774z"/>
	<g>
		<path style="fill:#CCD2DB;" d="M325.45,186.588H143.898c-4.259,0-7.711-3.452-7.711-7.711s3.452-7.711,7.711-7.711H325.45    c4.259,0,7.711,3.452,7.711,7.711S329.709,186.588,325.45,186.588z"/>
	</g>
	<g>
		<path style="fill:#CCD2DB;" d="M325.45,222.812H143.898c-4.259,0-7.711-3.452-7.711-7.711s3.452-7.711,7.711-7.711H325.45    c4.259,0,7.711,3.452,7.711,7.711S329.709,222.812,325.45,222.812z"/>
	</g>
	<g>
		<path style="fill:#CCD2DB;" d="M287.838,150.364h-95.96c-4.259,0-7.711-3.452-7.711-7.711s3.452-7.711,7.711-7.711h95.96    c4.259,0,7.711,3.452,7.711,7.711S292.097,150.364,287.838,150.364z"/>
	</g>
	<g>
		<path style="fill:#CCD2DB;" d="M287.838,331.485h-95.96c-4.259,0-7.711-3.453-7.711-7.711s3.452-7.711,7.711-7.711h95.96    c4.259,0,7.711,3.452,7.711,7.711S292.097,331.485,287.838,331.485z"/>
	</g>
	<g>
		<path style="fill:#CCD2DB;" d="M325.45,259.037H143.898c-4.259,0-7.711-3.452-7.711-7.711s3.452-7.711,7.711-7.711H325.45    c4.259,0,7.711,3.452,7.711,7.711S329.709,259.037,325.45,259.037z"/>
	</g>
	<g>
		<path style="fill:#CCD2DB;" d="M325.45,295.261H143.898c-4.259,0-7.711-3.452-7.711-7.711s3.452-7.711,7.711-7.711H325.45    c4.259,0,7.711,3.453,7.711,7.711S329.709,295.261,325.45,295.261z"/>
	</g>
	<path style="fill:#54A0FF;" d="M437.084,390.756c-11.912,13.109-28.897,20.628-46.598,20.628c-17.701,0-34.686-7.518-46.597-20.628   l-1.789-1.969v116.885c0,5.037,5.598,8.056,9.808,5.259l36.223-24.072c1.431-0.953,3.281-0.952,4.712,0l36.223,24.072   c4.206,2.792,9.808-0.215,9.808-5.259V388.787L437.084,390.756z"/>
	<path style="fill:#FF6B6B;" d="M369.974,407.914v91.011l18.157-12.066c1.431-0.953,3.281-0.952,4.712,0l18.157,12.066v-91.011   c-6.543,2.26-13.468,3.47-20.513,3.47C383.442,411.384,376.517,410.174,369.974,407.914z"/>
	<path style="fill:#EE5253;" d="M390.487,411.384L390.487,411.384c-7.045,0-13.969-1.209-20.513-3.469v91.011l18.157-12.066   c0.715-0.476,1.536-0.714,2.356-0.714V411.384z"/>
	<path style="fill:#FECA57;" d="M390.487,286.522c-35.842,0-65.001,29.16-65.001,65.001s29.16,65.001,65.001,65.001   c35.842,0,65.002-29.16,65.002-65.001S426.329,286.522,390.487,286.522z"/>
	<path style="fill:#F4B537;" d="M356.418,351.523c0-30.512,21.138-56.168,49.535-63.127c-4.96-1.216-10.137-1.874-15.466-1.874   c-35.842,0-65.001,29.16-65.001,65.001s29.16,65.001,65.001,65.001c5.33,0,10.506-0.659,15.466-1.874   C377.556,407.691,356.418,382.035,356.418,351.523z"/>
	<circle style="fill:#F4B537;" cx="390.487" cy="351.523" r="35.263"/>
	<path style="fill:#E59D1F;" d="M386.156,351.523c0-13.926,8.075-25.963,19.797-31.694c-4.67-2.283-9.918-3.569-15.466-3.569   c-19.475,0-35.263,15.788-35.263,35.263c0,19.475,15.787,35.263,35.263,35.263c5.549,0,10.796-1.285,15.466-3.569   C394.232,377.486,386.156,365.449,386.156,351.523z"/>
</g>















</svg>
