<?xml version="1.0" encoding="iso-8859-1"?>
<!-- Generator: Adobe Illustrator 21.0.0, SVG Export Plug-In . SVG Version: 6.00 Build 0)  -->
<svg xmlns="http://www.w3.org/2000/svg" xmlns:xlink="http://www.w3.org/1999/xlink" version="1.1" id="Capa_1" x="0px" y="0px" viewBox="0 0 512 512" style="enable-background:new 0 0 512 512;" xml:space="preserve" width="512" height="512">
<g>
	<path style="fill:#54A0FF;" d="M205.908,391.616c-1.419-8.708,1.292-17.578,7.531-23.817l154.36-154.36   c6.24-6.24,15.108-8.95,23.817-7.531c31.787,5.181,65.522-4.482,90.035-28.995c25.496-25.496,34.926-60.97,28.298-93.851   c-0.864-4.287-6.173-5.874-9.264-2.782l-70.34,70.34c-1.385,1.385-3.406,1.927-5.299,1.42l-48.271-12.934   c-1.894-0.507-3.373-1.986-3.879-3.879L359.96,86.955c-0.507-1.894,0.034-3.914,1.42-5.3l70.339-70.339   c3.09-3.09,1.509-8.399-2.775-9.263c-32.345-6.522-67.201,2.495-92.599,27.058c-25.247,24.418-35.355,58.862-30.124,91.282   c1.399,8.668-1.34,17.488-7.548,23.696L144.089,298.674c-6.209,6.209-15.029,8.947-23.697,7.548   c-32.419-5.231-66.865,4.878-91.281,30.124C4.548,361.745-4.469,396.6,2.053,428.945c0.863,4.284,6.173,5.865,9.263,2.775   l70.339-70.339c1.386-1.386,3.406-1.927,5.3-1.42l48.271,12.934c1.893,0.507,3.372,1.986,3.879,3.879l12.934,48.271   c0.507,1.893-0.034,3.913-1.42,5.299l-70.34,70.34c-3.092,3.092-1.505,8.4,2.782,9.264c32.881,6.628,68.355-2.802,93.851-28.297   C201.425,457.139,211.088,423.403,205.908,391.616z"/>
	<path style="fill:#338DEF;" d="M319.842,194.305l-2.146-2.146c-5.311-5.311-14.003-5.311-19.313,0L192.159,298.382   c-5.311,5.311-5.311,14.002,0,19.313l2.146,2.146c5.311,5.311,14.002,5.311,19.313,0l106.224-106.224   C325.152,208.307,325.153,199.616,319.842,194.305z"/>
	<path style="fill:#1C78D3;" d="M215.228,317.695c-5.311-5.311-5.311-14.002,0-19.313l104.346-104.346l-1.878-1.878   c-5.311-5.311-14.003-5.311-19.313,0L192.159,298.382c-5.311,5.311-5.311,14.002,0,19.313l2.146,2.146   c5.311,5.311,14.002,5.311,19.313,0l1.878-1.878L215.228,317.695z"/>
	<path style="fill:#338DEF;" d="M60.018,336.347c16.397-16.954,37.317-27.07,59.107-30.31c-32.048-4.769-65.915,5.391-90.015,30.31   C4.548,361.745-4.469,396.6,2.053,428.945c0.863,4.284,6.173,5.865,9.263,2.775l19.668-19.668   C30.021,384.861,39.69,357.366,60.018,336.347z"/>
	<path style="fill:#338DEF;" d="M450.801,157.191c1.893,0.507,3.913-0.035,5.299-1.42l55.823-55.823   c-0.2-5.662-0.851-11.312-1.975-16.886c-0.864-4.287-6.173-5.874-9.264-2.782l-71.2,71.2L450.801,157.191z"/>
	<path style="fill:#338DEF;" d="M151.3,306.222c8.668,1.399,17.488-1.339,23.697-7.548l154.585-154.585   c6.208-6.208,8.947-15.028,7.548-23.696c-5.23-32.42,4.877-66.864,30.125-91.282c16.075-15.547,35.94-24.857,56.557-27.95   c-30.86-4.627-63.405,4.681-87.465,27.95c-25.247,24.418-35.355,58.862-30.124,91.282c1.399,8.668-1.34,17.488-7.548,23.696   L144.089,298.674c-2.805,2.805-6.146,4.894-9.762,6.221C140.004,304.881,145.682,305.316,151.3,306.222z"/>
	<path style="fill:#338DEF;" d="M88.074,510.82c1.212,0.183,2.426,0.348,3.642,0.488c0.13,0.015,0.259,0.034,0.388,0.048   c1.385,0.154,2.773,0.276,4.162,0.374c0.219,0.016,0.439,0.027,0.658,0.042c1.309,0.084,2.618,0.147,3.929,0.181   c0.091,0.002,0.181,0.007,0.272,0.009c1.479,0.035,2.958,0.04,4.437,0.012c0.004,0,0.009,0,0.013,0   c1.491-0.028,2.981-0.089,4.47-0.182c0.022-0.001,0.044-0.002,0.066-0.004c3.002-0.188,5.997-0.505,8.977-0.952   c0,0,0.001,0,0.001,0c-1.712-0.257-3.42-0.546-5.121-0.889c-4.287-0.863-5.874-6.172-2.782-9.264l70.34-70.34   c1.386-1.386,1.927-3.406,1.42-5.299l-10.874-38.999c-0.507-1.894-1.986-3.373-3.88-3.879l-31.036-8.316   c0.937,0.723,1.632,1.742,1.948,2.923l12.934,48.271c0.063,0.237,0.11,0.475,0.141,0.714c0.124,0.956-0.008,1.921-0.369,2.798   c-0.181,0.439-0.42,0.855-0.712,1.239c-0.146,0.192-0.306,0.375-0.48,0.548l-70.34,70.34c-3.092,3.092-1.505,8.4,2.782,9.264   c1.327,0.267,2.659,0.499,3.993,0.714C87.394,510.717,87.734,510.769,88.074,510.82z"/>
</g>















</svg>
