<?xml version="1.0" encoding="iso-8859-1"?>
<!-- Generator: Adobe Illustrator 21.0.0, SVG Export Plug-In . SVG Version: 6.00 Build 0)  -->
<svg xmlns="http://www.w3.org/2000/svg" xmlns:xlink="http://www.w3.org/1999/xlink" version="1.1" id="Capa_1" x="0px" y="0px" viewBox="0 0 512 512" style="enable-background:new 0 0 512 512;" xml:space="preserve" width="512" height="512">
<g>
	<path style="fill:#54A0FF;" d="M38.677,287.824c-5.019,0-9.087,4.069-9.087,9.087v143.652h153.001v-152.74H38.677z"/>
	<path style="fill:#338DEF;" d="M69.341,287.824H38.678c-5.019,0-9.088,4.069-9.088,9.087v143.652h30.664V296.912   C60.254,291.893,64.323,287.824,69.341,287.824z"/>
	<path style="fill:#FF6B6B;" d="M473.322,345.97H329.41v94.595h153v-85.507C482.41,350.038,478.341,345.97,473.322,345.97z"/>
	<rect x="329.41" y="345.97" style="fill:#EE5253;" width="30.664" height="94.595"/>
	<circle style="fill:#FFCDBF;" cx="406.94" cy="212.392" r="31.597"/>
	<path style="fill:#FF6B6B;" d="M424.821,243.988h-35.763c-18.62,0-33.854,15.234-33.854,33.854v39.219   c0,3.185,2.581,5.767,5.766,5.767h91.937c3.185,0,5.766-2.582,5.766-5.767v-39.219   C458.675,259.222,443.441,243.988,424.821,243.988z"/>
	<path style="fill:#EE5253;" d="M375.81,317.061v-39.219c0-18.62,15.234-33.854,33.854-33.854h-20.605   c-18.62,0-33.854,15.234-33.854,33.854v39.219c0,3.185,2.581,5.767,5.766,5.767h20.605   C378.391,322.827,375.81,320.245,375.81,317.061z"/>
	<path style="fill:#FECA57;" d="M322.383,202.776H189.617c-5.019,0-9.087,4.069-9.087,9.087v228.701h150.94V211.863   C331.47,206.844,327.402,202.776,322.383,202.776z"/>
	<path style="fill:#F4B537;" d="M220.281,202.776h-30.664c-5.019,0-9.087,4.069-9.087,9.087v228.701h30.664V211.863   C211.194,206.844,215.262,202.776,220.281,202.776z"/>
	<path style="fill:#E4EAF8;" d="M254.011,241.484l-9.055,5.489c-1.583,0.949-2.491,2.597-2.491,4.52   c0,2.542,1.679,5.286,4.393,5.286c0.549,0,1.391-0.126,2.26-0.704l0.417-0.259V288.9c0,2.546,2.625,4.324,6.384,4.324   s6.384-1.778,6.384-4.324v-43.653C262.301,241.497,256.641,239.843,254.011,241.484z"/>
	<path style="fill:#E4EAF8;" d="M103.72,374.606c6.078-4.161,14.403-9.86,14.403-19.443c0-9.897-8.77-15.237-17.022-15.237   c-8.019,0-16.541,4.979-16.541,14.208c0,5.447,3.173,6.59,5.834,6.59c4.325,0,6.658-2.546,6.658-4.943   c0-3.403,2.239-4.117,4.117-4.117c3.985,0,4.186,3.2,4.186,3.842c0,3.606-4.63,7.004-9.532,10.602   c-5.943,4.361-12.088,8.873-12.088,15.067v6.658c0,2.679,3.319,4.324,5.698,4.324h24.434c2.307,0,4.256-2.64,4.256-5.766   c0-3.051-1.949-5.629-4.256-5.629H96.963C97.386,378.942,100.469,376.831,103.72,374.606z"/>
	<path style="fill:#E4EAF8;" d="M420.002,392.673c2.583-2.2,4.172-6.308,4.172-11.089c0-8.801-5.649-13.454-16.335-13.454   c-11.522,0-16.679,6.688-16.679,13.316c0,4.203,1.417,5.354,6.59,5.354c4.064,0,6.04-1.617,6.04-4.942   c0-1.4,0.298-2.471,4.05-2.471c2.914,0,4.049,1.097,4.049,3.912c0,4.873-2.1,4.873-4.323,4.873c-2.541,0-4.119,1.973-4.119,5.148   c0,3.175,1.578,5.148,4.119,5.148c4.104,0,5.559,1.167,5.559,4.461v1.304c0,3.945-1.234,5.147-5.284,5.147   c-5.079,0-5.079-2.144-5.079-2.951c0-3.829-2.495-4.599-6.521-4.599c-3.772,0-6.11,0.827-6.11,4.942   c0,6.744,5.434,14.002,17.366,14.002c11.69,0,18.395-6.03,18.395-16.541v-1.304C425.891,398.243,423.864,394.732,420.002,392.673z"/>
	<g>
		<path style="fill:#EE5253;" d="M388.959,322.827v-46.201c0-4.268-3.459-7.727-7.727-7.727s-7.727,3.459-7.727,7.727v46.201    H388.959z"/>
		<path style="fill:#EE5253;" d="M440.374,322.827v-46.201c0-4.268-3.459-7.727-7.727-7.727c-4.267,0-7.727,3.459-7.727,7.727    v46.201H440.374z"/>
	</g>
	<path style="fill:#3E4B5A;" d="M501.501,474.398H10.499C4.725,474.398,0,469.674,0,463.899l0-13.866   c0-5.775,4.725-10.499,10.499-10.499h491.001c5.775,0,10.499,4.725,10.499,10.499v13.866   C512,469.674,507.275,474.398,501.501,474.398z"/>
	<path style="fill:#303F49;" d="M31.694,463.581v-13.231c0-5.949,4.868-10.817,10.817-10.817H10.817   C4.868,439.534,0,444.402,0,450.351v13.231c0,5.949,4.868,10.817,10.817,10.817h31.694   C36.562,474.398,31.694,469.531,31.694,463.581z"/>
	<circle style="fill:#FFCDBF;" cx="256.098" cy="69.198" r="31.597"/>
	<path style="fill:#FECA57;" d="M273.979,100.794h-35.763c-18.62,0-33.854,15.234-33.854,33.854v39.219   c0,3.185,2.581,5.767,5.766,5.767h91.937c3.185,0,5.766-2.582,5.766-5.767v-39.219   C307.833,116.029,292.599,100.794,273.979,100.794z"/>
	<path style="fill:#F4B537;" d="M224.968,173.867v-39.219c0-18.62,15.234-33.854,33.854-33.854h-20.605   c-18.62,0-33.854,15.234-33.854,33.854v39.219c0,3.185,2.581,5.767,5.766,5.767h20.605   C227.549,179.634,224.968,177.052,224.968,173.867z"/>
	<g>
		<path style="fill:#F4B537;" d="M238.117,179.634v-46.201c0-4.268-3.459-7.727-7.727-7.727c-4.267,0-7.727,3.459-7.727,7.727    v46.201H238.117z"/>
		<path style="fill:#F4B537;" d="M289.532,179.634v-46.201c0-4.268-3.459-7.727-7.727-7.727s-7.727,3.459-7.727,7.727v46.201    H289.532z"/>
	</g>
	<circle style="fill:#FFCDBF;" cx="105.06" cy="154.293" r="31.597"/>
	<path style="fill:#FFBEAB;" d="M406.656,212.392c0-11.752,6.42-21.997,15.94-27.44c-4.616-2.64-9.958-4.156-15.656-4.156   c-17.45,0-31.596,14.146-31.596,31.596s14.146,31.596,31.596,31.596c5.699,0,11.04-1.516,15.656-4.156   C413.077,234.389,406.656,224.143,406.656,212.392z"/>
	<path style="fill:#FFBEAB;" d="M255.814,69.198c0-11.752,6.42-21.997,15.94-27.44c-4.616-2.64-9.958-4.156-15.656-4.156   c-17.45,0-31.597,14.146-31.597,31.596c0,17.45,14.146,31.596,31.597,31.596c5.699,0,11.04-1.516,15.656-4.156   C262.235,91.195,255.814,80.95,255.814,69.198z"/>
	<path style="fill:#FFBEAB;" d="M104.776,154.293c0-11.752,6.421-21.997,15.94-27.44c-4.616-2.64-9.958-4.156-15.656-4.156   c-17.45,0-31.597,14.146-31.597,31.597c0,17.45,14.146,31.596,31.597,31.596c5.699,0,11.04-1.516,15.656-4.156   C111.197,176.29,104.776,166.044,104.776,154.293z"/>
	<path style="fill:#54A0FF;" d="M122.941,185.889H87.179c-18.62,0-33.854,15.234-33.854,33.854v39.219   c0,3.185,2.581,5.767,5.766,5.767h91.937c3.185,0,5.766-2.582,5.766-5.767v-39.219   C156.795,201.123,141.561,185.889,122.941,185.889z"/>
	<path style="fill:#338DEF;" d="M73.93,258.962v-39.219c0-18.62,15.234-33.854,33.854-33.854H87.179   c-18.62,0-33.854,15.234-33.854,33.854v39.219c0,3.185,2.581,5.767,5.766,5.767h20.605C76.511,264.728,73.93,262.147,73.93,258.962   z"/>
	<g>
		<path style="fill:#338DEF;" d="M87.079,264.728v-46.201c0-4.268-3.459-7.727-7.727-7.727s-7.727,3.459-7.727,7.727v46.201H87.079z    "/>
		<path style="fill:#338DEF;" d="M138.494,264.728v-46.201c0-4.268-3.459-7.727-7.727-7.727c-4.267,0-7.727,3.459-7.727,7.727    v46.201H138.494z"/>
	</g>
</g>















</svg>
