<?xml version="1.0" encoding="iso-8859-1"?>
<!-- Generator: Adobe Illustrator 21.0.0, SVG Export Plug-In . SVG Version: 6.00 Build 0)  -->
<svg xmlns="http://www.w3.org/2000/svg" xmlns:xlink="http://www.w3.org/1999/xlink" version="1.1" id="Capa_1" x="0px" y="0px" viewBox="0 0 511.969 511.969" style="enable-background:new 0 0 511.969 511.969;" xml:space="preserve" width="512" height="512">
<g>
	<path style="fill:#54A0FF;" d="M366.536,481.194V227.805c0-6.912-5.603-12.516-12.516-12.516h-70.46   c-6.912,0-12.516,5.604-12.516,12.516v253.389H366.536z"/>
	<path style="fill:#54A0FF;" d="M492.147,481.194V148.707c0-6.912-5.604-12.516-12.516-12.516h-70.46   c-6.912,0-12.516,5.604-12.516,12.516v332.487H492.147z"/>
	<path style="fill:#54A0FF;" d="M115.313,481.194v-95.192c0-6.912-5.604-12.516-12.516-12.516h-70.46   c-6.912,0-12.516,5.603-12.516,12.516v95.192H115.313z"/>
	<path style="fill:#54A0FF;" d="M240.925,481.194v-174.29c0-6.912-5.604-12.516-12.516-12.516h-70.46   c-6.912,0-12.516,5.604-12.516,12.516v174.29H240.925z"/>
	<path style="fill:#338DEF;" d="M313.56,215.29h-30c-6.912,0-12.516,5.604-12.516,12.516v253.389h30V227.805   C301.044,220.893,306.647,215.29,313.56,215.29z"/>
	<path style="fill:#338DEF;" d="M439.171,136.191h-30c-6.912,0-12.516,5.604-12.516,12.516v332.487h30V148.707   C426.655,141.795,432.259,136.191,439.171,136.191z"/>
	<path style="fill:#338DEF;" d="M62.337,373.487h-30c-6.913,0-12.516,5.604-12.516,12.516v95.192h30v-95.192   C49.821,379.09,55.425,373.487,62.337,373.487z"/>
	<path style="fill:#338DEF;" d="M187.948,294.388h-30c-6.912,0-12.516,5.604-12.516,12.516v174.29h30v-174.29   C175.433,299.992,181.036,294.388,187.948,294.388z"/>
	<g>
		<path style="fill:#338DEF;" d="M504.469,488.694H7.5c-4.142,0-7.5-3.357-7.5-7.5s3.358-7.5,7.5-7.5h496.969    c4.142,0,7.5,3.357,7.5,7.5S508.611,488.694,504.469,488.694z"/>
	</g>
	<path style="fill:#CCD2DB;" d="M452.083,24.199l-43.092-0.924c-3.802-0.082-6.131,4.139-4.036,7.312l7.852,11.891L59.877,275.551   c-4.732,3.125-6.035,9.495-2.91,14.227s9.494,6.035,14.227,2.91L424.125,59.615l7.853,11.891c2.095,3.173,6.892,2.688,8.31-0.84   l16.07-39.994C457.586,27.613,455.379,24.27,452.083,24.199z"/>
</g>















</svg>
