<?xml version="1.0" encoding="iso-8859-1"?>
<!-- Generator: Adobe Illustrator 21.0.0, SVG Export Plug-In . SVG Version: 6.00 Build 0)  -->
<svg xmlns="http://www.w3.org/2000/svg" xmlns:xlink="http://www.w3.org/1999/xlink" version="1.1" id="Capa_1" x="0px" y="0px" viewBox="0 0 512 512" style="enable-background:new 0 0 512 512;" xml:space="preserve" width="512" height="512">
<g>
	<path style="fill:#F4B537;" d="M153.967,253.328l-0.264-6.528c-46.049-39.734-79.611-99.437-86.899-167.041   c0.001-0.002,0.069-0.176,0.275-0.176c2.214,0,36.391,0,79.862,0l-1.269-31.39c-39.135,0-71.361,0-78.593,0   c-18.83,0-33.486,16.354-31.48,34.958c10.094,93.654,63.47,170.644,130.673,211.486   C159.005,282.49,154.577,268.426,153.967,253.328z"/>
	<path style="fill:#F4B537;" d="M444.92,48.194c-4.359,0-35.097,0-74.898,0l-1.269,31.39c42.342,0,74.369,0,76.167,0   c0.207,0,0.276,0.174,0.272,0.204c-7.138,66.223-38.596,124.881-83.102,164.598l-0.362,8.943   c-0.568,14.045-4.445,27.193-10.832,38.74C416.121,250.552,466.53,174.724,476.4,83.151   C478.415,64.469,463.671,48.194,444.92,48.194z"/>
	<g>
		<path style="fill:#E59D1F;" d="M56.204,83.151c-2.006-18.603,12.65-34.958,31.48-34.958c-10.302,0-17.607,0-20.605,0    c-18.83,0-33.486,16.354-31.48,34.958c10.094,93.654,63.47,170.644,130.673,211.486c-3.917-6.548-7.001-13.657-9.115-21.18    C104.381,229.883,64.757,162.5,56.204,83.151z"/>
		<g>
			<path style="fill:#E59D1F;" d="M390.627,48.194c-6.505,0-13.404,0-20.605,0l-1.269,31.39c7.203,0,14.097,0,20.605,0     L390.627,48.194z"/>
			<path style="fill:#E59D1F;" d="M465.525,79.583c-0.847,0-8.414,0-20.605,0c0.207,0,0.276,0.174,0.272,0.204     c-7.138,66.223-38.596,124.881-83.102,164.598l-0.362,8.943c-0.568,14.045-4.445,27.193-10.832,38.74     c10.06-6.403,19.766-13.625,29.027-21.593c1.344-5.524,2.172-11.255,2.41-17.147l0.192-4.741c0.107-2.638,1.237-5.14,3.176-6.932     c42.914-39.65,73.12-97.146,80.096-161.868C465.801,79.757,465.732,79.583,465.525,79.583z"/>
		</g>
	</g>
	<g>
		<path style="fill:#E59D1F;" d="M276.166,369.697c-3.227,1.672-6.835,2.611-10.637,2.611h-16.393c-3.802,0-7.41-0.939-10.637-2.611    v68.511h37.668V369.697z"/>
	</g>
	<path style="fill:#F4B537;" d="M259.103,438.208h17.063v-68.511c-3.227,1.672-6.835,2.611-10.637,2.611h-6.425V438.208z"/>
	<path style="fill:#F4B537;" d="M276.39,335.204h-38.116c-4.73,0-9.37-0.394-13.901-1.118v16.083   c0,13.62,11.143,24.763,24.763,24.763h16.393c13.62,0,24.763-11.144,24.763-24.763v-16.083   C285.76,334.81,281.12,335.204,276.39,335.204z"/>
	<g>
		<path style="fill:#E59D1F;" d="M244.978,350.169v-14.965h-6.704c-4.73,0-9.37-0.394-13.901-1.118v16.083    c0,13.62,11.143,24.763,24.763,24.763h16.393c0.71,0,1.411-0.037,2.106-0.096C254.991,373.757,244.978,363.078,244.978,350.169z"/>
	</g>
	<path style="fill:#F4B537;" d="M376.961,0H137.702c-6.905,0-12.556,5.65-12.556,12.556v12.556c0,6.906,5.651,12.556,12.556,12.556   h239.259c6.906,0,12.556-5.65,12.556-12.556V12.556C389.517,5.65,383.867,0,376.961,0z"/>
	<path style="fill:#E59D1F;" d="M376.961,17.063H137.702c-5.498,0-10.189-3.586-11.878-8.531c-0.432,1.266-0.678,2.617-0.678,4.025   v12.556c0,6.906,5.651,12.556,12.556,12.556h239.259c6.906,0,12.556-5.65,12.556-12.556V12.556c0-1.408-0.246-2.758-0.678-4.025   C387.151,13.476,382.46,17.063,376.961,17.063z"/>
	<path style="fill:#338DEF;" d="M335.893,435.967H178.77c-13.188,0-23.978,10.79-23.978,23.978v17.478h205.079v-17.478   C359.871,446.758,349.081,435.967,335.893,435.967z"/>
	<path style="fill:#1C78D3;" d="M155.62,453.727c-0.537,1.985-0.828,4.069-0.828,6.218v17.478h205.079v-17.478   c0-2.149-0.291-4.233-0.828-6.218H155.62z"/>
	<path style="fill:#FECA57;" d="M142.156,37.668l8.72,215.661c1.896,46.895,40.464,83.936,87.398,83.936h38.116   c46.934,0,85.502-37.041,87.398-83.936l8.72-215.661H142.156z"/>
	<path style="fill:#F4B537;" d="M181.783,253.328l-8.72-215.661h-30.907l8.72,215.661c1.896,46.895,40.464,83.936,87.398,83.936   h30.907C222.247,337.264,183.679,300.224,181.783,253.328z"/>
	<path style="fill:#54A0FF;" d="M376.961,474.332H137.702c-6.905,0-12.556,5.65-12.556,12.556v12.556   c0,6.906,5.651,12.556,12.556,12.556h239.259c6.906,0,12.556-5.65,12.556-12.556v-12.556   C389.517,479.982,383.867,474.332,376.961,474.332z"/>
	<path style="fill:#338DEF;" d="M376.961,491.395H137.702c-5.498,0-10.189-3.586-11.878-8.531c-0.432,1.266-0.678,2.617-0.678,4.025   v12.556c0,6.906,5.651,12.556,12.556,12.556h239.259c6.906,0,12.556-5.65,12.556-12.556v-12.556c0-1.408-0.246-2.758-0.678-4.025   C387.151,487.809,382.46,491.395,376.961,491.395z"/>
</g>















</svg>
