<?xml version="1.0" encoding="iso-8859-1"?>
<!-- Generator: Adobe Illustrator 21.0.0, SVG Export Plug-In . SVG Version: 6.00 Build 0)  -->
<svg xmlns="http://www.w3.org/2000/svg" xmlns:xlink="http://www.w3.org/1999/xlink" version="1.1" id="Capa_1" x="0px" y="0px" viewBox="0 0 512 512" style="enable-background:new 0 0 512 512;" xml:space="preserve" width="512" height="512">
<g>
	<path style="fill:#CCD2DB;" d="M126.93,145.049c6.907-5.609,14.129-10.83,21.633-15.638l-23.336-33.599l-21.519,15.802   L126.93,145.049z"/>
	<path style="fill:#CCD2DB;" d="M386.658,95.812l-23.46,33.599c7.544,4.808,14.804,10.029,21.748,15.638l23.346-33.435   L386.658,95.812z"/>
	<path style="fill:#F4B537;" d="M233.102,56.522v46.684c7.521-1.05,15.158-1.606,22.898-1.606c7.74,0,15.377,0.556,22.898,1.606   V56.522H233.102z"/>
	<path style="fill:#E59D1F;" d="M264.009,56.522h-30.907v46.684c7.521-1.05,15.158-1.606,22.898-1.606   c2.684,0,5.35,0.091,8.009,0.222V56.522z"/>
	<circle style="fill:#8AC2FF;" cx="256" cy="303.906" r="208.094"/>
	<path style="fill:#54A0FF;" d="M77.706,304.421c0-111.125,87.107-201.899,196.764-207.784c-6.087-0.535-12.244-0.825-18.47-0.825   c-114.927,0-208.094,93.167-208.094,208.094S141.073,512,256,512c3.802,0,7.578-0.109,11.329-0.31   C161.057,502.34,77.706,413.122,77.706,304.421z"/>
	<g>
		<path style="fill:#338DEF;" d="M256,478.286c-96.153,0-174.38-78.227-174.38-174.38s78.227-174.38,174.38-174.38    s174.38,78.227,174.38,174.38S352.153,478.286,256,478.286z"/>
	</g>
	<path style="fill:#1C78D3;" d="M102.318,303.906c0-92.678,72.678-168.69,164.031-174.065c-3.426-0.202-6.874-0.316-10.349-0.316   c-96.153,0-174.38,78.227-174.38,174.38s78.227,174.38,174.38,174.38c3.475,0,6.924-0.114,10.349-0.316   C174.997,472.596,102.318,396.585,102.318,303.906z"/>
	<g>
		<path style="fill:#E4EAF8;" d="M254.806,455.004c-83.316,0-151.098-67.782-151.098-151.098s67.783-151.098,151.098-151.098    s151.098,67.782,151.098,151.098S338.122,455.004,254.806,455.004z"/>
	</g>
	<path style="fill:#CCD2DB;" d="M141.877,303.906c0-76.853,57.675-140.487,132.014-149.897c-6.252-0.791-12.621-1.201-19.084-1.201   c-83.316,0-151.099,67.782-151.099,151.098s67.783,151.098,151.099,151.098c6.463,0,12.833-0.409,19.084-1.201   C199.551,444.393,141.877,380.759,141.877,303.906z"/>
	<g>
		<path style="fill:#3E4B5A;" d="M256,308.61c-4.267,0-7.727-3.459-7.727-7.727v-91.336c0-4.268,3.459-7.727,7.727-7.727    s7.727,3.459,7.727,7.727v91.336C263.727,305.151,260.268,308.61,256,308.61z"/>
	</g>
	<path style="fill:#E4EAF8;" d="M381.099,61.059l-9.432,13.094c-3.519,4.885-2.401,11.759,2.483,15.277l46.059,33.18   c4.885,3.519,11.759,2.401,15.277-2.483l9.432-13.094c3.519-4.885,2.401-11.759-2.483-15.277l-46.059-33.18   C391.492,55.057,384.618,56.174,381.099,61.059z"/>
	<path style="fill:#E4EAF8;" d="M130.901,61.059l9.432,13.094c3.519,4.885,2.401,11.759-2.483,15.277l-46.059,33.18   c-4.885,3.519-11.759,2.401-15.277-2.483l-9.432-13.094c-3.519-4.885-2.401-11.759,2.483-15.277l46.059-33.18   C120.508,55.057,127.383,56.174,130.901,61.059z"/>
	<path style="fill:#FECA57;" d="M293.367,0h-74.735c-7,0-12.727,5.728-12.727,12.727v34.999c0,6.999,5.728,12.727,12.727,12.727   h74.735c7,0,12.727-5.728,12.727-12.727V12.727C306.095,5.728,300.367,0,293.367,0z"/>
	<path style="fill:#CCD2DB;" d="M405.057,89.43c-4.884-3.519-6.002-10.393-2.483-15.277l5.27-7.316l-11.468-8.261   c-4.884-3.519-11.759-2.401-15.277,2.483l-9.432,13.094c-3.519,4.884-2.401,11.759,2.483,15.277l46.059,33.18   c4.884,3.519,11.759,2.401,15.277-2.483l4.162-5.778L405.057,89.43z"/>
	<path style="fill:#CCD2DB;" d="M97.99,107.033c-3.519-4.885-2.402-11.759,2.483-15.277l34.591-24.919l-4.162-5.778   c-3.519-4.884-10.393-6.002-15.277-2.483l-46.058,33.18c-4.885,3.519-6.002,10.393-2.483,15.277l9.432,13.094   c3.519,4.884,10.393,6.002,15.278,2.483l11.468-8.261L97.99,107.033z"/>
	<path style="fill:#F4B537;" d="M236.813,47.725V12.727C236.813,5.727,242.54,0,249.54,0h-30.907c-7,0-12.727,5.727-12.727,12.727   v34.999c0,6.999,5.727,12.727,12.727,12.727h30.907C242.54,60.452,236.813,54.724,236.813,47.725z"/>
	<path style="fill:#3E4B5A;" d="M256,145.049c-87.594,0-158.857,71.263-158.857,158.857c0,87.593,71.263,158.856,158.857,158.856   s158.857-71.263,158.857-158.856C414.857,216.312,343.594,145.049,256,145.049z M334.264,424.009l-6.082-10.535   c-2.134-3.696-6.86-4.961-10.555-2.828c-3.695,2.134-4.962,6.86-2.828,10.555l6.098,10.562   c-17.332,8.833-36.686,14.243-57.169,15.336v-12.214c0-4.268-3.459-7.727-7.727-7.727s-7.727,3.459-7.727,7.727v12.214   c-20.483-1.093-39.837-6.503-57.169-15.336l6.098-10.562c2.134-3.695,0.867-8.421-2.828-10.555   c-3.696-2.134-8.422-0.868-10.555,2.828l-6.082,10.535c-16.67-10.899-30.94-25.17-41.84-41.84l10.535-6.083   c3.696-2.134,4.962-6.86,2.828-10.555c-2.134-3.696-6.86-4.961-10.555-2.828l-10.562,6.098   c-8.833-17.332-14.243-36.686-15.336-57.169h12.214c4.267,0,7.727-3.459,7.727-7.727s-3.459-7.727-7.727-7.727h-12.214   c1.093-20.483,6.503-39.837,15.336-57.17l10.562,6.098c3.697,2.133,8.422,0.867,10.555-2.828c2.134-3.695,0.868-8.421-2.828-10.555   l-10.535-6.083c10.899-16.669,25.17-30.94,41.839-41.839l6.083,10.535c2.133,3.695,6.858,4.961,10.555,2.828   c3.696-2.134,4.962-6.86,2.828-10.555l-6.098-10.562c17.332-8.833,36.687-14.243,57.169-15.336v12.215   c0,4.268,3.459,7.727,7.727,7.727s7.727-3.459,7.727-7.727v-12.215c20.483,1.093,39.837,6.503,57.169,15.336l-6.098,10.562   c-2.134,3.695-0.868,8.421,2.828,10.555c3.697,2.133,8.422,0.867,10.555-2.828l6.083-10.535   c16.669,10.899,30.94,25.17,41.839,41.839l-10.535,6.083c-3.696,2.134-4.962,6.86-2.828,10.555   c2.133,3.695,6.858,4.961,10.555,2.828l10.562-6.098c8.833,17.332,14.244,36.687,15.336,57.17h-12.214   c-4.267,0-7.727,3.459-7.727,7.727s3.459,7.727,7.727,7.727h12.214c-1.093,20.482-6.503,39.837-15.336,57.169l-10.562-6.098   c-3.696-2.134-8.422-0.868-10.555,2.828c-2.134,3.695-0.868,8.421,2.828,10.555l10.535,6.083   C365.204,398.839,350.933,413.11,334.264,424.009z"/>
	<circle style="fill:#FF6B6B;" cx="256" cy="303.906" r="20.699"/>
	<path style="fill:#EE5253;" d="M262.088,303.906c0-6.32,2.841-11.969,7.306-15.766c-3.611-3.071-8.282-4.933-13.393-4.933   c-11.432,0-20.699,9.267-20.699,20.699s9.267,20.699,20.699,20.699c5.111,0,9.782-1.862,13.393-4.933   C264.929,315.875,262.088,310.226,262.088,303.906z"/>
</g>















</svg>
