<?xml version="1.0" encoding="iso-8859-1"?>
<!-- Generator: Adobe Illustrator 21.0.0, SVG Export Plug-In . SVG Version: 6.00 Build 0)  -->
<svg xmlns="http://www.w3.org/2000/svg" xmlns:xlink="http://www.w3.org/1999/xlink" version="1.1" id="Capa_1" x="0px" y="0px" viewBox="0 0 512 512" style="enable-background:new 0 0 512 512;" xml:space="preserve" width="512" height="512">
<g>
	<path style="fill:#C46F5F;" d="M131.42,502.036c-1.742,4.843,1.803,9.964,6.897,9.964h33.297c3.085,0,5.841-1.952,6.897-4.885   L219.47,393.28h-48.918L131.42,502.036z"/>
	<path style="fill:#C46F5F;" d="M380.58,502.036L341.448,393.28H292.53l40.959,113.835c1.055,2.933,3.811,4.885,6.897,4.885h33.297   C378.777,512,382.322,506.879,380.58,502.036z"/>
	<path style="fill:#B45F4A;" d="M162.327,502.036l39.132-108.756h-30.907L131.42,502.036c-1.742,4.843,1.803,9.964,6.897,9.964   h30.907C164.13,512,160.585,506.879,162.327,502.036z"/>
	<path style="fill:#B45F4A;" d="M364.397,507.115L323.437,393.28H292.53l40.959,113.835c1.055,2.933,3.811,4.885,6.897,4.885h30.907   C368.208,512,365.452,510.048,364.397,507.115z"/>
	<path style="fill:#576574;" d="M134.245,364.656v16.368c0,7.487,6.126,13.612,13.612,13.612h216.286   c7.487,0,13.612-6.125,13.612-13.612v-16.368H134.245z"/>
	<path style="fill:#3E4B5A;" d="M165.152,381.024v-16.368h-30.907v16.368c0,7.487,6.126,13.612,13.613,13.612h30.907   C171.277,394.636,165.152,388.511,165.152,381.024z"/>
	<rect x="46.49" y="41.709" style="fill:#E4EAF8;" width="419.02" height="284.863"/>
	<rect x="46.49" y="41.709" style="fill:#CCD2DB;" width="30.907" height="284.863"/>
	<path style="fill:#3E4B5A;" d="M470.271,0H41.729c-6.525,0-11.863,5.338-11.863,11.863v22.241c0,6.525,5.338,11.863,11.863,11.863   h428.542c6.525,0,11.863-5.338,11.863-11.863V11.863C482.134,5.338,476.796,0,470.271,0z"/>
	<path style="fill:#303F49;" d="M470.271,15.576H41.729c-5.093,0-9.45-3.258-11.123-7.788c-0.471,1.274-0.741,2.643-0.741,4.075   v22.241c0,6.525,5.338,11.863,11.863,11.863h428.542c6.525,0,11.863-5.338,11.863-11.863V11.863c0-1.432-0.27-2.801-0.741-4.075   C479.72,12.318,475.363,15.576,470.271,15.576z"/>
	<path style="fill:#3E4B5A;" d="M470.271,321.778H41.729c-6.525,0-11.863,5.338-11.863,11.863v22.241   c0,6.525,5.338,11.863,11.863,11.863h428.542c6.525,0,11.863-5.338,11.863-11.863v-22.241   C482.134,327.117,476.796,321.778,470.271,321.778z"/>
	<path style="fill:#303F49;" d="M470.271,337.354H41.729c-5.093,0-9.45-3.258-11.123-7.788c-0.471,1.274-0.741,2.643-0.741,4.076   v22.241c0,6.525,5.338,11.863,11.863,11.863h428.542c6.525,0,11.863-5.339,11.863-11.863v-22.241c0-1.432-0.27-2.801-0.741-4.076   C479.72,334.096,475.363,337.354,470.271,337.354z"/>
	<circle style="fill:#54A0FF;" cx="164.631" cy="121.726" r="25.718"/>
	<circle style="fill:#54A0FF;" cx="320.6" cy="246.021" r="25.718"/>
	<path style="fill:#338DEF;" d="M169.886,121.726c0-8.388,4.018-15.837,10.232-20.531c-4.308-3.255-9.671-5.187-15.487-5.187   c-14.204,0-25.718,11.514-25.718,25.718c0,14.204,11.515,25.718,25.718,25.718c5.816,0,11.179-1.932,15.487-5.187   C173.904,137.562,169.886,130.114,169.886,121.726z"/>
	<path style="fill:#338DEF;" d="M325.855,246.02c0-8.388,4.018-15.837,10.232-20.531c-4.308-3.255-9.671-5.187-15.487-5.187   c-14.204,0-25.718,11.514-25.718,25.718c0,14.204,11.515,25.718,25.718,25.718c5.815,0,11.179-1.932,15.487-5.187   C329.873,261.857,325.855,254.409,325.855,246.02z"/>
	<path style="fill:#FF6B6B;" d="M191.314,219.338c-3.017-3.017-7.91-3.017-10.927,0l-15.756,15.756l-15.756-15.756   c-3.017-3.017-7.91-3.017-10.927,0c-3.018,3.017-3.018,7.91,0,10.927l15.756,15.756l-15.756,15.756   c-3.018,3.017-3.018,7.91,0,10.927c3.018,3.018,7.91,3.017,10.927,0l15.756-15.756l15.756,15.756c3.018,3.018,7.91,3.017,10.927,0   c3.018-3.017,3.018-7.91,0-10.927l-15.756-15.756l15.756-15.756C194.331,227.248,194.331,222.355,191.314,219.338z"/>
	<path style="fill:#FECA57;" d="M340.95,113.703c-0.228-4.261-3.85-7.535-8.129-7.302c-51.792,2.774-86.423,28.808-106.354,50.159   c-21.499,23.031-30.771,45.292-31.155,46.228c-1.619,3.948,0.268,8.462,4.216,10.082c3.952,1.62,8.462-0.271,10.082-4.216   c0.336-0.82,34.666-82.033,124.038-86.821C337.909,121.604,341.179,117.965,340.95,113.703z"/>
	<path style="fill:#FECA57;" d="M333.258,140.528l38.808-23.748c1.793-1.098,1.793-4.229,0-5.326l-38.808-23.748   c-1.618-0.99-3.521,0.45-3.521,2.663v47.496C329.737,140.078,331.64,141.518,333.258,140.528z"/>
	<path style="fill:#F4B537;" d="M360.644,104.465l-27.387-16.759c-1.618-0.99-3.521,0.45-3.521,2.663v47.496   c0,2.213,1.903,3.653,3.521,2.663l27.387-16.759V104.465z"/>
</g>















</svg>
