<?xml version="1.0" encoding="iso-8859-1"?>
<!-- Generator: Adobe Illustrator 21.0.0, SVG Export Plug-In . SVG Version: 6.00 Build 0)  -->
<svg xmlns="http://www.w3.org/2000/svg" xmlns:xlink="http://www.w3.org/1999/xlink" version="1.1" id="Capa_1" x="0px" y="0px" viewBox="0 0 511.984 511.984" style="enable-background:new 0 0 511.984 511.984;" xml:space="preserve" width="512" height="512">
<g>
	<circle style="fill:#54A0FF;" cx="214.233" cy="255.992" r="206.619"/>
	<path style="fill:#338DEF;" d="M46.003,255.992c0-107.639,82.313-196.038,187.424-205.723c-6.321-0.582-12.721-0.895-19.195-0.895   C100.12,49.373,7.614,141.88,7.614,255.992s92.506,206.619,206.619,206.619c6.474,0,12.873-0.313,19.195-0.895   C128.316,452.031,46.003,363.631,46.003,255.992z"/>
	<path style="fill:#8AC2FF;" d="M214.233,41.761c-185.251,0-281.865,220.072-160.037,356.636c0.001,0.001,0.002,0.002,0.003,0.003   c40.668,45.588,97.913,71.823,160.035,71.823c115.596,0,208.387-90.958,213.951-203.233   C434.375,143.889,336.363,41.761,214.233,41.761z M377.958,368.94c-15.678-11.01-32.237-20.324-49.488-27.878   c6.004-24.148,9.406-50.236,9.963-77.182h74.636C411.583,301.663,399.503,337.814,377.958,368.94z M271.476,446.595   c25.706-22.819,42.927-57.839,52.908-90.699c15.464,6.924,30.332,15.348,44.445,25.222   C344.131,411.57,310.483,434.845,271.476,446.595z M59.636,381.118c14.114-9.874,28.981-18.298,44.445-25.222   c9.963,32.804,27.175,67.856,52.908,90.699C118.238,434.928,84.494,411.766,59.636,381.118z M15.396,263.879h74.636   c0.557,26.946,3.96,53.034,9.964,77.182c-17.251,7.555-33.811,16.868-49.489,27.878C29.015,337.889,16.899,301.807,15.396,263.879z    M50.488,143.031c15.684,11.016,32.25,20.334,49.508,27.891c-6.045,24.313-9.453,50.592-9.975,77.733H15.375   C16.801,209.534,29.569,173.262,50.488,143.031z M156.99,65.389c-25.736,22.846-42.947,57.901-52.908,90.699   c-15.471-6.927-30.345-15.355-44.464-25.235C84.485,100.187,118.269,77.04,156.99,65.389z M368.848,130.854   c-14.119,9.88-28.993,18.308-44.464,25.235c-9.964-32.806-27.175-67.856-52.908-90.699   C310.196,77.04,343.98,100.188,368.848,130.854z M206.621,179.325c-30.615-0.839-60.377-6.726-88.41-17.391   c13.11-43.995,42.703-98.596,88.41-104.462V179.325z M206.621,194.554v54.102H105.247c0.501-25.131,3.574-49.431,8.995-71.943   C143.564,187.686,174.655,193.725,206.621,194.554z M206.621,263.879v53.551c-31.966,0.829-63.057,6.868-92.38,17.841   c-5.381-22.348-8.448-46.457-8.983-71.392H206.621z M206.621,332.66v121.853c-45.711-5.866-75.302-60.471-88.41-104.462   C146.244,339.385,176.006,333.498,206.621,332.66z M221.844,332.66c30.615,0.839,60.377,6.726,88.41,17.391   c-13.108,43.987-42.698,98.596-88.41,104.462V332.66z M221.844,317.431v-53.551h101.363c-0.535,24.935-3.602,49.044-8.983,71.392   C284.901,324.299,253.811,318.26,221.844,317.431z M221.844,248.656v-54.102c31.966-0.829,63.057-6.868,92.38-17.841   c5.421,22.513,8.493,46.812,8.995,71.943H221.844z M221.844,179.325V57.472c45.711,5.866,75.301,60.471,88.41,104.462   C282.222,172.599,252.46,178.486,221.844,179.325z M338.444,248.656c-0.522-27.141-3.93-53.42-9.975-77.733   c17.258-7.558,33.824-16.876,49.508-27.891c20.919,30.23,33.687,66.502,35.113,105.625H338.444z"/>
	<path style="fill:#CCD2DB;" d="M385.447,333.986l25.997,25.997c0.409-2.036,1.363-3.943,2.899-5.479l9.098-9.098   c1.536-1.536,3.444-2.49,5.479-2.899l-25.997-25.997C397.909,323.1,392.049,328.963,385.447,333.986z"/>
	<path style="fill:#BCC2CC;" d="M410.865,339.782c-3.033-3.033-2.894-7.973,0.28-10.859c0.729-0.663,1.45-1.34,2.163-2.029   l-10.384-10.384c-5.015,6.591-10.875,12.453-17.477,17.477l25.997,25.997c0.409-2.036,1.363-3.943,2.899-5.479l5.622-5.622   L410.865,339.782z"/>
	<g>
		<path style="fill:#E4EAF8;" d="M395.589,326.652c-38.81,38.81-101.959,38.81-140.769,0s-38.81-101.959,0-140.769    c38.81-38.81,101.959-38.81,140.769,0S434.399,287.842,395.589,326.652z"/>
	</g>
	<path style="fill:#CCD2DB;" d="M285.701,326.652c-38.81-38.81-38.81-101.959,0-140.769c15.473-15.473,34.818-24.757,54.944-27.892   c-30.354-4.728-62.488,4.555-85.825,27.892c-38.81,38.81-38.81,101.959,0,140.769c23.337,23.337,55.471,32.62,85.825,27.892   C320.519,351.409,301.174,342.125,285.701,326.652z"/>
	<path style="fill:#FF6B6B;" d="M422.227,344.192l-9.098,9.098c-4.459,4.459-4.459,11.688,0,16.146l70.267,70.267   c4.458,4.458,11.687,4.458,16.146,0l9.098-9.098c4.458-4.458,4.458-11.687,0-16.146l-70.267-70.267   C433.914,339.733,426.686,339.733,422.227,344.192z"/>
	<path style="fill:#EE5253;" d="M443.576,369.436c-4.459-4.459-4.459-11.688,0-16.146l1.948-1.948l-7.15-7.15   c-4.459-4.459-11.688-4.459-16.146,0l-9.098,9.098c-4.459,4.459-4.459,11.688,0,16.146l70.267,70.267   c4.458,4.458,11.687,4.458,16.146,0l7.15-7.15L443.576,369.436z"/>
	<path style="fill:#54A0FF;" d="M276.666,207.729c-26.764,26.764-26.764,70.312,0,97.076c26.764,26.764,70.312,26.764,97.076,0   c26.764-26.764,26.764-70.312,0-97.077S303.431,180.965,276.666,207.729z"/>
	<path style="fill:#338DEF;" d="M307.113,304.806c-26.764-26.764-26.764-70.312,0-97.076c9.492-9.492,21.098-15.6,33.315-18.359   c-22.23-5.021-46.489,1.087-63.762,18.359c-26.764,26.764-26.764,70.312,0,97.076c17.272,17.272,41.531,23.38,63.762,18.359   C328.211,320.406,316.605,314.298,307.113,304.806z"/>
</g>















</svg>
