<?xml version="1.0" encoding="iso-8859-1"?>
<!-- Generator: Adobe Illustrator 21.0.0, SVG Export Plug-In . SVG Version: 6.00 Build 0)  -->
<svg xmlns="http://www.w3.org/2000/svg" xmlns:xlink="http://www.w3.org/1999/xlink" version="1.1" id="Capa_1" x="0px" y="0px" viewBox="0 0 512 512" style="enable-background:new 0 0 512 512;" xml:space="preserve" width="512" height="512">
<g>
	<rect x="153.714" y="184.99" style="fill:#338DEF;" width="203.989" height="141.795"/>
	<rect x="153.714" y="291.393" style="fill:#54A0FF;" width="203.989" height="35.393"/>
	<rect x="153.714" y="184.99" style="fill:#1C78D3;" width="38.12" height="141.795"/>
	<rect x="153.714" y="291.393" style="fill:#338DEF;" width="38.12" height="35.393"/>
	<path style="fill:#8AC2FF;" d="M204.097,184.99v24.719c0,5.957,4.829,10.786,10.786,10.786h82.233   c5.957,0,10.786-4.83,10.786-10.786V184.99H204.097z"/>
	<path style="fill:#54A0FF;" d="M235.004,209.709V184.99h-30.907v24.719c0,5.957,4.829,10.786,10.786,10.786h30.907   C239.834,220.496,235.004,215.666,235.004,209.709z"/>
	<path style="fill:#E4EAF8;" d="M472.673,386.583l14.107-133.301c2.526-23.862,3.791-47.845,3.791-71.844V70.471H351.073v316.112   H472.673z"/>
	<rect x="351.073" y="70.471" style="fill:#CCD2DB;" width="30.907" height="316.112"/>
	<polygon style="fill:#3E4B5A;" points="351.073,384.522 351.073,439.943 467.026,439.943 472.891,384.522  "/>
	<rect x="351.073" y="384.522" style="fill:#303F49;" width="30.907" height="55.421"/>
	<path style="fill:#576574;" d="M485.749,473.074v-15.505c0-10.753-8.797-19.55-19.55-19.55h-115.8   c-10.753,0-19.55,8.797-19.55,19.55v15.505c0,10.753,8.797,19.55,19.55,19.55h115.8   C476.952,492.624,485.749,483.827,485.749,473.074z"/>
	<path style="fill:#E4EAF8;" d="M39.327,386.583L25.22,253.282c-2.526-23.862-3.791-47.845-3.791-71.844V70.471h139.497v316.112   H39.327z"/>
	<path style="fill:#CCD2DB;" d="M52.337,181.437V70.471H21.429v110.966c0,23.999,1.265,47.982,3.791,71.844l14.107,133.301h30.907   L56.127,253.282C53.602,229.419,52.337,205.437,52.337,181.437z"/>
	<path style="fill:#3E4B5A;" d="M466.199,461.717h-115.8c-8.021,0-14.949-4.898-17.954-11.849c-1.023,2.367-1.596,4.97-1.596,7.701   v15.505c0,10.753,8.797,19.55,19.55,19.55h115.8c10.753,0,19.55-8.797,19.55-19.55v-15.505c0-2.732-0.572-5.334-1.596-7.701   C481.148,456.819,474.22,461.717,466.199,461.717z"/>
	<polygon style="fill:#3E4B5A;" points="160.927,384.522 160.927,439.943 44.974,439.943 39.109,384.522  "/>
	<polygon style="fill:#303F49;" points="39.109,384.522 44.974,439.943 75.881,439.943 70.016,384.522  "/>
	<path style="fill:#576574;" d="M26.251,473.074v-15.505c0-10.753,8.797-19.55,19.55-19.55h115.8c10.753,0,19.55,8.797,19.55,19.55   v15.505c0,10.753-8.797,19.55-19.55,19.55h-115.8C35.048,492.624,26.251,483.827,26.251,473.074z"/>
	<path style="fill:#3E4B5A;" d="M161.601,461.717H45.801c-8.021,0-14.95-4.898-17.955-11.849c-1.023,2.367-1.596,4.97-1.596,7.701   v15.505c0,10.753,8.797,19.55,19.55,19.55h115.799c10.753,0,19.55-8.797,19.55-19.55v-15.505c0-2.732-0.572-5.334-1.596-7.701   C176.55,456.819,169.622,461.717,161.601,461.717z"/>
	<path style="fill:#54A0FF;" d="M492.45,19.376H349.194c-10.753,0-19.55,8.797-19.55,19.55v15.505c0,10.753,8.797,19.55,19.55,19.55   H492.45c10.753,0,19.55-8.797,19.55-19.55V38.926C512,28.173,503.202,19.376,492.45,19.376z"/>
	<path style="fill:#54A0FF;" d="M19.55,19.376h143.256c10.753,0,19.55,8.797,19.55,19.55v15.505c0,10.753-8.797,19.55-19.55,19.55   H19.55C8.797,73.981,0,65.184,0,54.431l0-15.505C0,28.173,8.797,19.376,19.55,19.376z"/>
	<path style="fill:#338DEF;" d="M492.45,43.074H349.194c-8.021,0-14.95-4.898-17.954-11.849c-1.023,2.367-1.596,4.97-1.596,7.701   v15.505c0,10.753,8.798,19.55,19.55,19.55H492.45c10.753,0,19.55-8.797,19.55-19.55V38.926c0-2.732-0.573-5.334-1.596-7.701   C507.399,38.176,500.471,43.074,492.45,43.074z"/>
	<path style="fill:#338DEF;" d="M162.806,43.074H19.55c-8.021,0-14.95-4.898-17.954-11.849C0.573,33.592,0,36.194,0,38.926v15.505   c0,10.753,8.797,19.55,19.55,19.55h143.255c10.753,0,19.55-8.797,19.55-19.55V38.926c0-2.732-0.573-5.334-1.596-7.701   C177.755,38.176,170.827,43.074,162.806,43.074z"/>
</g>















</svg>
