<?xml version="1.0" encoding="iso-8859-1"?>
<!-- Generator: Adobe Illustrator 21.0.0, SVG Export Plug-In . SVG Version: 6.00 Build 0)  -->
<svg xmlns="http://www.w3.org/2000/svg" xmlns:xlink="http://www.w3.org/1999/xlink" version="1.1" id="Capa_1" x="0px" y="0px" viewBox="0 0 512 512" style="enable-background:new 0 0 512 512;" xml:space="preserve" width="512" height="512">
<g>
	<path style="fill:#FECA57;" d="M441.32,308.161l-74.472-87.557v168.105h63.598c7.805,0,14.132-6.175,14.132-13.792V316.97   C444.578,313.753,443.425,310.637,441.32,308.161z"/>
	<polygon style="fill:#F4B537;" points="399.166,258.6 366.848,220.604 366.848,388.708 399.166,388.708  "/>
	<path style="fill:#FECA57;" d="M70.742,308.161l75.867-87.557v168.105H81.819c-7.951,0-14.396-6.175-14.396-13.792V316.97   C67.422,313.753,68.596,310.637,70.742,308.161z"/>
	<path style="fill:#F4B537;" d="M97.87,374.917V316.97c0-3.217,1.174-6.333,3.319-8.809l45.419-52.418v-35.14l-75.867,87.557   c-2.145,2.476-3.319,5.592-3.319,8.809v57.947c0,7.617,6.446,13.792,14.397,13.792h30.448   C104.316,388.708,97.87,382.534,97.87,374.917z"/>
	<path style="fill:#F4B537;" d="M67.422,359.16v15.757c0,7.617,6.446,13.792,14.396,13.792h64.789V359.16H67.422z"/>
	<path style="fill:#E59D1F;" d="M112.267,388.708c-7.951,0-14.397-6.175-14.397-13.792V359.16H67.423v15.757   c0,3.808,1.611,7.256,4.216,9.752c0.418,0.4,0.87,0.767,1.337,1.115c0.394,0.295,0.805,0.568,1.231,0.823   c2.21,1.324,4.814,2.101,7.612,2.101H112.267z"/>
	<path style="fill:#F4B537;" d="M366.848,359.16v29.549h63.598c7.805,0,14.132-6.175,14.132-13.792V359.16H366.848z"/>
	<rect x="366.848" y="359.16" style="fill:#E59D1F;" width="32.318" height="29.549"/>
	<rect x="198.35" y="400.29" style="fill:#CCD2DB;" width="115.3" height="40.343"/>
	<rect x="198.35" y="400.29" style="fill:#BCC2CC;" width="30.448" height="40.343"/>
	<path style="fill:#E4EAF8;" d="M185.004,67.726c-26.355,40.131-41.722,88.044-41.722,139.374v173.79c71.425,0,153.841,0,225.436,0   V207.1c0-51.33-15.367-99.243-41.722-139.374H185.004z"/>
	<path style="fill:#CCD2DB;" d="M215.452,67.726h-30.448c-26.355,40.131-41.722,88.044-41.722,139.374v173.79   c9.954,0,20.126,0,30.448,0V207.1C173.73,155.77,189.097,107.857,215.452,67.726z"/>
	<path style="fill:#E4EAF8;" d="M314.632,435.851H197.368c-6.486,0-11.792,5.307-11.792,11.792v7.861   c0,6.486,5.306,11.792,11.792,11.792h117.265c6.486,0,11.792-5.306,11.792-11.792v-7.861   C326.424,441.157,321.118,435.851,314.632,435.851z"/>
	<path style="fill:#CCD2DB;" d="M216.023,455.504v-7.861c0-6.485,5.307-11.792,11.792-11.792h-30.448   c-6.486,0-11.792,5.307-11.792,11.792v7.861c0,6.486,5.307,11.792,11.792,11.792h30.448   C221.33,467.296,216.023,461.99,216.023,455.504z"/>
	<path style="fill:#FF6B6B;" d="M244.749,3.782c-24.004,18.212-44.699,40.576-61.039,65.974h144.582   c-16.341-25.398-37.035-47.761-61.04-65.974C260.605-1.261,251.395-1.261,244.749,3.782z"/>
	<path style="fill:#EE5253;" d="M267.251,3.782c-6.646-5.043-15.857-5.043-22.503,0c-24.004,18.212-44.699,40.576-61.039,65.973   h30.448c15.431-23.985,34.749-45.258,57.067-62.89C269.909,5.826,268.587,4.795,267.251,3.782z"/>
	<circle style="fill:#54A0FF;" cx="254.447" cy="152.945" r="54.947"/>
	<path style="fill:#338DEF;" d="M229.947,152.945c0-25.062,16.785-46.19,39.723-52.793c-4.836-1.392-9.94-2.154-15.224-2.154   c-30.346,0-54.947,24.601-54.947,54.947c0,30.346,24.601,54.947,54.947,54.947c5.284,0,10.388-0.761,15.224-2.154   C246.733,199.135,229.947,178.007,229.947,152.945z"/>
	<g>
		<path style="fill:#F4B537;" d="M209.358,512c-4.204,0-7.612-3.408-7.612-7.612v-14.75c0-4.204,3.408-7.612,7.612-7.612    c4.204,0,7.612,3.408,7.612,7.612v14.75C216.97,508.592,213.562,512,209.358,512z"/>
	</g>
	<g>
		<path style="fill:#F4B537;" d="M239.417,512c-4.204,0-7.612-3.408-7.612-7.612v-14.75c0-4.204,3.408-7.612,7.612-7.612    c4.204,0,7.612,3.408,7.612,7.612v14.75C247.029,508.592,243.621,512,239.417,512z"/>
	</g>
	<g>
		<path style="fill:#F4B537;" d="M269.476,512c-4.204,0-7.612-3.408-7.612-7.612v-14.75c0-4.204,3.408-7.612,7.612-7.612    c4.204,0,7.612,3.408,7.612,7.612v14.75C277.088,508.592,273.68,512,269.476,512z"/>
	</g>
	<g>
		<path style="fill:#F4B537;" d="M299.535,512c-4.204,0-7.612-3.408-7.612-7.612v-14.75c0-4.204,3.408-7.612,7.612-7.612    s7.612,3.408,7.612,7.612v14.75C307.147,508.592,303.739,512,299.535,512z"/>
	</g>
	<path style="fill:#FF6B6B;" d="M143.282,378.86v9.849c0,10.298,8.348,18.647,18.647,18.647h188.142   c10.298,0,18.647-8.348,18.647-18.647v-9.849C353.463,378.86,151.391,378.86,143.282,378.86z"/>
	<path style="fill:#EE5253;" d="M173.73,388.708v-9.849c-17.044,0-28.629,0-30.448,0v9.849c0,10.298,8.348,18.647,18.647,18.647   h30.448C182.079,407.355,173.73,399.007,173.73,388.708z"/>
	<path style="fill:#FECA57;" d="M259.161,239.295h-6.321c-6.954,0-12.643,5.689-12.643,12.643c0,10.404,0,112.322,0,124.128   c0,6.953,5.689,12.643,12.643,12.643h6.321c6.953,0,12.643-5.689,12.643-12.643c0-10.404,0-112.322,0-124.128   C271.803,244.985,266.114,239.295,259.161,239.295z"/>
	<path style="fill:#F4B537;" d="M260.495,376.066c0-11.806,0-113.724,0-124.128c0-4.374,2.253-8.245,5.654-10.517   c-2.006-1.34-4.409-2.126-6.989-2.126h-6.322c-6.954,0-12.643,5.689-12.643,12.643c0,10.404,0,112.322,0,124.128   c0,6.953,5.689,12.643,12.643,12.643h6.322c2.579,0,4.983-0.786,6.989-2.126C262.748,384.311,260.495,380.44,260.495,376.066z"/>
	<path style="fill:#F4B537;" d="M240.197,359.16c0,8.352,0,14.501,0,16.906c0,6.953,5.689,12.643,12.643,12.643h6.321   c6.953,0,12.643-5.689,12.643-12.643c0-2.178,0-8.374,0-16.906H240.197z"/>
	<path style="fill:#E59D1F;" d="M266.149,386.583c-3.401-2.272-5.654-6.143-5.654-10.517c0-2.406,0-8.554,0-16.906h-20.299   c0,8.352,0,14.5,0,16.906c0,0.435,0.022,0.864,0.066,1.288c0.651,6.365,6.067,11.355,12.577,11.355h6.322   C261.517,388.708,264.032,387.997,266.149,386.583z"/>
	<circle style="fill:#338DEF;" cx="254.447" cy="152.945" r="28.825"/>
	<path style="fill:#1C78D3;" d="M256.07,152.945c0-10.329,5.437-19.385,13.601-24.474c-4.418-2.754-9.634-4.351-15.224-4.351   c-15.919,0-28.825,12.905-28.825,28.825c0,15.919,12.905,28.825,28.825,28.825c5.59,0,10.805-1.596,15.224-4.351   C261.506,172.33,256.07,163.274,256.07,152.945z"/>
</g>















</svg>
