<?xml version="1.0" encoding="iso-8859-1"?>
<!-- Generator: Adobe Illustrator 21.0.0, SVG Export Plug-In . SVG Version: 6.00 Build 0)  -->
<svg xmlns="http://www.w3.org/2000/svg" xmlns:xlink="http://www.w3.org/1999/xlink" version="1.1" id="Capa_1" x="0px" y="0px" viewBox="0 0 512 512" style="enable-background:new 0 0 512 512;" xml:space="preserve" width="512" height="512">
<g>
	<path style="fill:#FFF6E9;" d="M354.726,0H73.143c-8.819,0-15.968,7.149-15.968,15.968v480.064c0,8.819,7.149,15.968,15.968,15.968   h365.714c8.819,0,15.968-7.149,15.968-15.968V100.099L354.726,0z"/>
	<path style="fill:#F9E4C7;" d="M88.082,496.032V15.968C88.082,7.149,95.231,0,104.05,0H73.143c-8.819,0-15.968,7.149-15.968,15.968   v480.064c0,8.819,7.149,15.968,15.968,15.968h30.907C95.231,512,88.082,504.851,88.082,496.032z"/>
	<path style="fill:#F9E4C7;" d="M370.694,100.099h84.131L354.726,0v84.131C354.726,92.95,361.875,100.099,370.694,100.099z"/>
	<path style="fill:#F2D5B1;" d="M385.633,84.131V30.907L354.726,0v84.131c0,8.819,7.149,15.968,15.968,15.968h30.907   C392.782,100.099,385.633,92.95,385.633,84.131z"/>
	<g>
		<path style="fill:#F9E4C7;" d="M252.343,358.793c-4.267,0-7.727-3.459-7.727-7.727v-88.601c0-4.268,3.459-7.727,7.727-7.727    c4.267,0,7.727,3.459,7.727,7.727v88.601C260.07,355.334,256.611,358.793,252.343,358.793z"/>
	</g>
	<g>
		<path style="fill:#F9E4C7;" d="M358.088,358.488c-4.267,0-7.727-3.459-7.727-7.727v-35.437c0-0.564-0.298-0.815-0.357-0.84    l-195.364,0.008c-0.018,0.017-0.316,0.268-0.316,0.832v35.437c0,4.268-3.459,7.727-7.727,7.727c-4.267,0-7.727-3.459-7.727-7.727    v-35.437c0-8.98,7.074-16.286,15.77-16.286h195.405c8.695,0,15.77,7.305,15.77,16.286v35.437    C365.815,355.029,362.356,358.488,358.088,358.488z"/>
	</g>
	<path style="fill:#FECA57;" d="M294.44,265.263h-84.193c-6.6,0-12-5.4-12-12v-93.005c0-6.6,5.4-12,12-12h84.193c6.6,0,12,5.4,12,12   v93.005C306.44,259.863,301.04,265.263,294.44,265.263z"/>
	<path style="fill:#F4B537;" d="M229.154,252.9v-92.279c0-6.8,5.563-12.363,12.363-12.363H210.61c-6.8,0-12.363,5.563-12.363,12.363   V252.9c0,6.8,5.563,12.363,12.363,12.363h30.907C234.717,265.263,229.154,259.7,229.154,252.9z"/>
	<g>
		<path style="fill:#F9E4C7;" d="M281.716,75.825H222.97c-4.267,0-7.727-3.459-7.727-7.727s3.459-7.727,7.727-7.727h58.747    c4.267,0,7.727,3.459,7.727,7.727S285.984,75.825,281.716,75.825z"/>
	</g>
	<circle style="fill:#54A0FF;" cx="146.598" cy="375.78" r="27.537"/>
	<circle style="fill:#54A0FF;" cx="252.343" cy="375.78" r="27.537"/>
	<circle style="fill:#54A0FF;" cx="358.089" cy="375.78" r="27.537"/>
	<path style="fill:#338DEF;" d="M149.968,375.78c0-9.48,4.792-17.84,12.084-22.794c-4.406-2.993-9.725-4.743-15.454-4.743   c-15.208,0-27.537,12.329-27.537,27.537c0,15.208,12.329,27.537,27.537,27.537c5.728,0,11.047-1.75,15.454-4.744   C154.759,393.62,149.968,385.26,149.968,375.78z"/>
	<path style="fill:#338DEF;" d="M255.713,375.78c0-9.48,4.791-17.84,12.084-22.794c-4.406-2.993-9.725-4.743-15.454-4.743   c-15.209,0-27.537,12.329-27.537,27.537c0,15.208,12.329,27.537,27.537,27.537c5.728,0,11.047-1.75,15.454-4.744   C260.505,393.62,255.713,385.26,255.713,375.78z"/>
	<path style="fill:#338DEF;" d="M361.459,375.78c0-9.48,4.791-17.84,12.084-22.794c-4.406-2.993-9.725-4.743-15.454-4.743   c-15.208,0-27.537,12.329-27.537,27.537c0,15.208,12.329,27.537,27.537,27.537c5.728,0,11.047-1.75,15.454-4.744   C366.25,393.62,361.459,385.26,361.459,375.78z"/>
	<g>
		<path style="fill:#F4B537;" d="M281.716,187.054H222.97c-4.267,0-7.727-3.459-7.727-7.727s3.459-7.727,7.727-7.727h58.747    c4.267,0,7.727,3.459,7.727,7.727S285.984,187.054,281.716,187.054z"/>
	</g>
	<g>
		<path style="fill:#F4B537;" d="M281.716,214.487H222.97c-4.267,0-7.727-3.459-7.727-7.727c0-4.268,3.459-7.727,7.727-7.727h58.747    c4.267,0,7.727,3.459,7.727,7.727C289.443,211.028,285.984,214.487,281.716,214.487z"/>
	</g>
	<g>
		<path style="fill:#F4B537;" d="M281.716,241.921H222.97c-4.267,0-7.727-3.459-7.727-7.727c0-4.268,3.459-7.727,7.727-7.727h58.747    c4.267,0,7.727,3.459,7.727,7.727C289.443,238.462,285.984,241.921,281.716,241.921z"/>
	</g>
</g>















</svg>
