<?xml version="1.0" encoding="iso-8859-1"?>
<!-- Generator: Adobe Illustrator 21.0.0, SVG Export Plug-In . SVG Version: 6.00 Build 0)  -->
<svg xmlns="http://www.w3.org/2000/svg" xmlns:xlink="http://www.w3.org/1999/xlink" version="1.1" id="Capa_1" x="0px" y="0px" viewBox="0 0 512 512" style="enable-background:new 0 0 512 512;" xml:space="preserve" width="512" height="512">
<g>
	<path style="fill:#3E4B5A;" d="M505.394,242.326h-28.225c-3.769,0-6.897-2.877-7.248-6.629   c-9.605-102.468-91.15-184.013-193.618-193.618c-3.752-0.351-6.629-3.48-6.629-7.248V6.606c0-3.648-2.957-6.606-6.606-6.606   h-14.137c-3.648,0-6.606,2.957-6.606,6.606v28.225c0,3.768-2.877,6.897-6.629,7.248c-102.468,9.605-184.013,91.15-193.618,193.618   c-0.352,3.752-3.48,6.629-7.248,6.629H6.606c-3.648,0-6.606,2.957-6.606,6.606v14.137c0,3.648,2.957,6.606,6.606,6.606h28.225   c3.769,0,6.897,2.877,7.248,6.629c9.605,102.468,91.15,184.012,193.618,193.618c3.752,0.351,6.629,3.48,6.629,7.248v28.225   c0,3.648,2.957,6.606,6.606,6.606h14.137c3.648,0,6.606-2.957,6.606-6.606v-28.225c0-3.768,2.877-6.897,6.629-7.248   c102.468-9.605,184.013-91.15,193.618-193.618c0.352-3.752,3.48-6.629,7.248-6.629h28.225c3.648,0,6.606-2.957,6.606-6.606v-14.137   C512,245.283,509.043,242.326,505.394,242.326z"/>
	<path style="fill:#303F49;" d="M266.604,469.921c-102.468-9.605-184.013-91.15-193.618-193.618v-40.607   c9.605-102.468,91.15-184.013,193.618-193.618c1.947-0.182,3.653-1.116,4.849-2.495c-1.109-1.279-1.78-2.94-1.78-4.752V6.606   c0-3.648-2.957-6.606-6.606-6.606h-14.137c-3.648,0-6.606,2.957-6.606,6.606v28.226c0,3.768-2.877,6.897-6.629,7.248   c-102.468,9.605-184.013,91.15-193.618,193.618c-0.352,3.752-3.48,6.629-7.248,6.629H6.606c-3.648,0-6.606,2.957-6.606,6.606   v14.137c0,3.648,2.957,6.606,6.606,6.606h28.225c3.769,0,6.897,2.877,7.248,6.629c9.605,102.468,91.15,184.012,193.618,193.618   c3.752,0.351,6.629,3.48,6.629,7.248v28.225c0,3.648,2.957,6.606,6.606,6.606h14.137c3.648,0,6.606-2.957,6.606-6.606v-28.225   c0-1.813,0.671-3.474,1.78-4.753C270.258,471.037,268.551,470.104,266.604,469.921z"/>
	<circle style="fill:#E4EAF8;" cx="256" cy="256" r="187.537"/>
	<path style="fill:#CCD2DB;" d="M99.37,256c0-98.369,75.74-179.039,172.084-186.899c-5.097-0.416-10.249-0.638-15.454-0.638   C152.426,68.463,68.463,152.426,68.463,256S152.426,443.537,256,443.537c5.204,0,10.356-0.222,15.454-0.638   C175.11,435.039,99.37,354.369,99.37,256z"/>
	<circle style="fill:#54A0FF;" cx="256" cy="256" r="140.426"/>
	<path style="fill:#338DEF;" d="M146.482,256c0-72.331,54.69-131.881,124.972-139.575c-5.076-0.556-10.23-0.85-15.454-0.85   c-77.555,0-140.426,62.871-140.426,140.426S178.445,396.426,256,396.426c5.224,0,10.378-0.295,15.454-0.85   C201.171,387.881,146.482,328.331,146.482,256z"/>
	<circle style="fill:#FF6B6B;" cx="256" cy="256" r="91.543"/>
	<path style="fill:#EE5253;" d="M195.364,256c0-45.29,32.892-82.893,76.09-90.238c-5.024-0.854-10.186-1.305-15.454-1.305   c-50.558,0-91.543,40.985-91.543,91.543s40.985,91.543,91.543,91.543c5.267,0,10.429-0.451,15.454-1.305   C228.256,338.893,195.364,301.29,195.364,256z"/>
	<circle style="fill:#FECA57;" cx="256" cy="256" r="41.853"/>
	<path style="fill:#F4B537;" d="M245.055,256c0-17.654,10.936-32.745,26.399-38.894c-4.783-1.902-9.993-2.959-15.454-2.959   c-23.115,0-41.853,18.738-41.853,41.853s18.738,41.853,41.853,41.853c5.46,0,10.671-1.057,15.454-2.959   C255.991,288.744,245.055,273.654,245.055,256z"/>
</g>















</svg>
