<?xml version="1.0" encoding="iso-8859-1"?>
<!-- Generator: Adobe Illustrator 21.0.0, SVG Export Plug-In . SVG Version: 6.00 Build 0)  -->
<svg xmlns="http://www.w3.org/2000/svg" xmlns:xlink="http://www.w3.org/1999/xlink" version="1.1" id="Capa_1" x="0px" y="0px" viewBox="0 0 512 512" style="enable-background:new 0 0 512 512;" xml:space="preserve" width="512" height="512">
<g>
	<path style="fill:#FF6B6B;" d="M83.093,254.797H48.279c-18.126,0-32.956,14.83-32.956,32.956v25.788c0,3.1,2.513,5.614,5.614,5.614   h89.498c3.1,0,5.614-2.513,5.614-5.614v-25.788C116.049,269.627,101.219,254.797,83.093,254.797z"/>
	<path style="fill:#EE5253;" d="M35.86,313.54v-25.788c0-18.125,14.83-32.956,32.956-32.956H48.279   c-18.126,0-32.956,14.83-32.956,32.956v25.788c0,3.1,2.513,5.614,5.614,5.614h20.537C38.373,319.154,35.86,316.64,35.86,313.54z"/>
	<g>
		<path style="fill:#338DEF;" d="M415.563,141.215c-2.261,0-4.502-0.987-6.03-2.885c-20.509-25.48-47.147-45.8-77.033-58.762    c-3.918-1.7-5.717-6.254-4.018-10.172c1.7-3.918,6.254-5.716,10.172-4.018c32.177,13.955,60.853,35.828,82.928,63.254    c2.678,3.327,2.152,8.195-1.175,10.874C418.978,140.656,417.264,141.215,415.563,141.215z"/>
	</g>
	<g>
		<path style="fill:#338DEF;" d="M74.709,170.847c-3.789-1.97-5.263-6.639-3.293-10.429c16.468-31.669,40.794-59.055,70.346-79.197    c3.528-2.405,8.341-1.495,10.746,2.035c2.406,3.529,1.495,8.34-2.035,10.746c-27.449,18.709-50.041,44.143-65.335,73.553    C83.168,171.341,78.499,172.818,74.709,170.847z"/>
	</g>
	<g>
		<path style="fill:#338DEF;" d="M173.343,447.055c-32.031-13.892-60.665-35.591-82.809-62.752    c-2.699-3.31-2.203-8.182,1.107-10.881c3.311-2.699,8.182-2.203,10.881,1.107c20.587,25.252,47.204,45.424,76.975,58.335    c3.918,1.7,5.717,6.254,4.018,10.172C181.817,446.953,177.265,448.755,173.343,447.055z"/>
	</g>
	<g>
		<path style="fill:#338DEF;" d="M364.082,433.938c-2.493,0-4.94-1.203-6.431-3.43c-2.377-3.548-1.428-8.352,2.12-10.729    c27.738-18.585,50.664-43.963,66.3-73.389c2.004-3.773,6.687-5.205,10.458-3.201c3.772,2.004,5.205,6.686,3.201,10.458    c-16.828,31.671-41.501,58.982-71.349,78.981C367.058,433.514,365.562,433.938,364.082,433.938z"/>
	</g>
	<circle style="fill:#FFCDBF;" cx="65.686" cy="224.039" r="30.758"/>
	<g>
		<path style="fill:#EE5253;" d="M48.394,319.154v-32.583c0-4.271-3.462-7.733-7.733-7.733s-7.733,3.462-7.733,7.733v32.583H48.394z    "/>
		<path style="fill:#EE5253;" d="M98.445,286.571c0-4.271-3.462-7.733-7.733-7.733c-4.271,0-7.733,3.462-7.733,7.733v32.583h15.467    V286.571z"/>
	</g>
	<path style="fill:#54A0FF;" d="M160.615,111.165l19.308-39.904c0.892-1.844-0.757-4.411-2.805-4.366l-44.319,0.968   c-1.847,0.04-2.649,2.223-1.484,4.037l25.011,38.936C157.492,112.65,159.81,112.828,160.615,111.165z"/>
	<path style="fill:#54A0FF;" d="M393.023,146.949l39.814,19.493c1.84,0.901,4.414-0.737,4.379-2.785l-0.763-44.323   c-0.032-1.847-2.211-2.66-4.03-1.503l-39.051,24.83C391.552,143.818,391.364,146.136,393.023,146.949z"/>
	<path style="fill:#54A0FF;" d="M351.905,402.095l-21.737,38.634c-1.004,1.785,0.483,4.449,2.53,4.531l44.294,1.773   c1.846,0.074,2.782-2.055,1.731-3.938l-22.557-40.407C355.114,400.806,352.811,400.485,351.905,402.095z"/>
	<path style="fill:#54A0FF;" d="M77.435,394.116l-1.836-44.291c-0.085-2.047,2.45-3.746,4.311-2.89l40.274,18.523   c1.679,0.772,1.546,3.093-0.245,4.294L81.5,395.521C79.709,396.721,77.511,395.962,77.435,394.116z"/>
	<path style="fill:#338DEF;" d="M151.852,71.287c-0.984-1.531-0.555-3.31,0.71-3.857l-19.762,0.432   c-1.847,0.04-2.65,2.223-1.484,4.037l25.011,38.936c1.165,1.815,3.484,1.993,4.289,0.329l7.24-14.964L151.852,71.287z"/>
	<path style="fill:#338DEF;" d="M413.56,146.336c-1.659-0.813-1.471-3.13,0.349-4.287l22.688-14.426l-0.142-8.29   c-0.032-1.848-2.211-2.66-4.031-1.503l-39.051,24.83c-1.82,1.157-2.009,3.474-0.349,4.287l39.814,19.493   c1.84,0.9,4.414-0.737,4.379-2.785l-0.1-5.787L413.56,146.336z"/>
	<path style="fill:#338DEF;" d="M350.704,441.793l13.699-24.347l-8.238-14.757c-1.051-1.883-3.354-2.204-4.26-0.594l-21.737,38.634   c-1.004,1.785,0.483,4.449,2.529,4.532l19.485,0.78C350.728,445.298,349.883,443.253,350.704,441.793z"/>
	<path style="fill:#338DEF;" d="M96.354,354.498l-16.445-7.563c-1.861-0.856-4.395,0.843-4.311,2.89l1.836,44.291   c0.077,1.846,2.274,2.605,4.066,1.405l16.107-10.798L96.354,354.498z"/>
	<path style="fill:#FF6B6B;" d="M463.721,254.797h-34.814c-18.126,0-32.956,14.83-32.956,32.956v25.788   c0,3.1,2.513,5.614,5.614,5.614h89.498c3.1,0,5.614-2.513,5.614-5.614v-25.788C496.677,269.627,481.847,254.797,463.721,254.797z"/>
	<path style="fill:#EE5253;" d="M416.488,313.54v-25.788c0-18.125,14.83-32.956,32.956-32.956h-20.537   c-18.126,0-32.956,14.83-32.956,32.956v25.788c0,3.1,2.513,5.614,5.613,5.614h20.537   C419.001,319.154,416.488,316.64,416.488,313.54z"/>
	<circle style="fill:#FFCDBF;" cx="446.314" cy="224.039" r="30.758"/>
	<g>
		<path style="fill:#EE5253;" d="M429.022,319.154v-32.583c0-4.271-3.462-7.733-7.733-7.733c-4.271,0-7.733,3.462-7.733,7.733    v32.583H429.022z"/>
		<path style="fill:#EE5253;" d="M479.073,286.571c0-4.271-3.462-7.733-7.733-7.733c-4.271,0-7.733,3.462-7.733,7.733v32.583h15.467    V286.571z"/>
	</g>
	<path style="fill:#FF6B6B;" d="M273.061,60.298h-34.125c-17.767,0-32.303,14.536-32.303,32.303v25.277   c0,3.039,2.464,5.502,5.503,5.502h87.726c3.039,0,5.503-2.464,5.503-5.502V92.601C305.364,74.835,290.828,60.298,273.061,60.298z"/>
	<path style="fill:#EE5253;" d="M226.763,117.879V92.601c0-17.767,14.536-32.303,32.303-32.303h-20.13   c-17.767,0-32.303,14.536-32.303,32.303v25.277c0,3.039,2.463,5.502,5.502,5.502h20.13   C229.226,123.381,226.763,120.918,226.763,117.879z"/>
	<circle style="fill:#FFCDBF;" cx="255.998" cy="30.149" r="30.149"/>
	<g>
		<path style="fill:#EE5253;" d="M239.049,123.381V91.444c0-4.186-3.394-7.58-7.58-7.58s-7.58,3.394-7.58,7.58v31.938H239.049z"/>
		<path style="fill:#EE5253;" d="M288.109,91.444c0-4.186-3.394-7.58-7.58-7.58c-4.186,0-7.58,3.394-7.58,7.58v31.938h15.161V91.444    z"/>
	</g>
	<path style="fill:#FF6B6B;" d="M273.061,448.917h-34.125c-17.767,0-32.303,14.536-32.303,32.303v25.277   c0,3.039,2.464,5.502,5.503,5.502h87.726c3.039,0,5.503-2.464,5.503-5.502V481.22C305.364,463.454,290.828,448.917,273.061,448.917   z"/>
	<path style="fill:#EE5253;" d="M226.763,506.498V481.22c0-17.767,14.536-32.303,32.303-32.303h-20.13   c-17.767,0-32.303,14.536-32.303,32.303v25.277c0,3.039,2.463,5.502,5.502,5.502h20.13   C229.226,512,226.763,509.536,226.763,506.498z"/>
	<circle style="fill:#FFCDBF;" cx="255.998" cy="418.768" r="30.149"/>
	<path style="fill:#FFBEAB;" d="M65.861,224.039c0-11.347,6.149-21.251,15.292-26.583c-4.545-2.65-9.826-4.175-15.467-4.175   c-16.987,0-30.758,13.771-30.758,30.758c0,16.988,13.771,30.758,30.758,30.758c5.64,0,10.922-1.525,15.467-4.176   C72.01,245.29,65.861,235.385,65.861,224.039z"/>
	<path style="fill:#FFBEAB;" d="M446.489,224.039c0-11.347,6.149-21.251,15.292-26.583c-4.545-2.65-9.826-4.175-15.467-4.175   c-16.987,0-30.758,13.771-30.758,30.758c0,16.988,13.771,30.758,30.758,30.758c5.64,0,10.922-1.525,15.467-4.176   C452.638,245.29,446.489,235.385,446.489,224.039z"/>
	<path style="fill:#FFBEAB;" d="M256.783,30.149c0-10.996,5.889-20.613,14.683-25.88C266.943,1.56,261.654,0,255.999,0   c-16.651,0-30.149,13.498-30.149,30.149s13.498,30.149,30.149,30.149c5.655,0,10.944-1.56,15.467-4.269   C262.672,50.763,256.783,41.145,256.783,30.149z"/>
	<path style="fill:#FFBEAB;" d="M256.783,418.768c0-10.996,5.889-20.614,14.683-25.88c-4.523-2.709-9.812-4.269-15.467-4.269   c-16.651,0-30.149,13.498-30.149,30.149c0,16.651,13.498,30.149,30.149,30.149c5.655,0,10.944-1.56,15.467-4.269   C262.672,439.382,256.783,429.764,256.783,418.768z"/>
	<g>
		<path style="fill:#EE5253;" d="M239.049,512v-31.938c0-4.186-3.394-7.58-7.58-7.58s-7.58,3.394-7.58,7.58V512H239.049z"/>
		<path style="fill:#EE5253;" d="M288.109,480.062c0-4.186-3.394-7.58-7.58-7.58c-4.186,0-7.58,3.394-7.58,7.58V512h15.161V480.062z    "/>
	</g>
</g>















</svg>
